{"glyphs":{"0":{"ha":931,"x_min":92,"x_max":840,"o":"m 465 -18 q 263 37 346 -18 q 135 197 179 92 q 92 453 92 303 q 135 708 92 603 q 263 867 179 813 q 465 922 346 922 q 669 867 585 922 q 797 708 753 813 q 840 453 840 603 q 797 197 840 303 q 669 37 753 92 q 465 -18 585 -18 m 465 100 q 600 142 543 100 q 687 264 657 185 q 717 451 717 343 q 687 640 717 561 q 600 763 657 719 q 465 806 543 806 q 331 763 388 806 q 245 641 275 721 q 215 453 215 561 q 245 264 215 343 q 331 142 275 185 q 465 100 388 100 z "},"1":{"ha":750,"x_min":104,"x_max":647,"o":"m 113 814 l 342 903 l 388 828 l 138 692 l 113 814 m 104 118 l 392 92 l 647 118 l 647 0 l 104 0 l 104 118 m 324 829 l 342 903 l 444 903 l 444 31 l 324 31 l 324 829 z "},"2":{"ha":819,"x_min":51,"x_max":725,"o":"m 51 61 q 394 381 281 263 q 542 560 508 499 q 575 676 575 622 q 535 773 575 738 q 421 808 496 808 q 296 790 358 808 q 193 742 233 771 l 160 853 q 284 902 213 883 q 428 921 356 921 q 626 859 554 921 q 697 696 697 797 q 657 530 697 613 q 496 318 617 447 q 135 -18 375 189 l 51 61 m 201 153 l 724 104 l 725 -11 l 197 61 l 201 153 m 628 40 l 617 251 l 725 251 l 725 96 l 628 40 m 296 575 l 175 575 l 160 853 l 256 846 l 296 575 z "},"3":{"ha":736,"x_min":49,"x_max":664,"o":"m 325 -19 q 192 -5 265 -19 q 49 39 118 10 l 69 139 q 193 106 126 118 q 322 94 260 94 q 484 142 429 94 q 539 272 539 189 q 484 400 539 357 q 326 446 429 443 l 200 436 l 200 536 l 329 536 q 576 467 488 536 q 664 268 664 399 q 574 58 664 135 q 325 -19 485 -19 m 92 903 l 513 903 l 535 803 l 85 793 l 92 903 m 622 829 q 565 666 610 754 q 453 488 519 578 l 367 511 q 466 702 429 606 q 510 903 503 799 l 596 903 l 622 829 z "},"4":{"ha":806,"x_min":40,"x_max":738,"o":"m 40 346 l 449 896 l 513 832 l 149 329 l 72 257 l 40 346 m 244 101 l 518 82 l 738 104 l 738 0 l 244 0 l 244 101 m 458 878 l 449 896 l 569 896 l 569 31 l 458 31 l 458 878 m 518 347 l 725 360 l 725 257 l 72 257 l 92 353 l 518 347 z "},"5":{"ha":764,"x_min":76,"x_max":688,"o":"m 183 517 q 290 538 249 532 q 389 544 332 544 q 606 476 524 544 q 688 272 688 407 q 603 60 688 139 q 367 -19 519 -19 q 211 -4 282 -19 q 76 39 140 11 l 100 140 q 230 103 164 117 q 363 90 296 90 q 515 138 464 90 q 565 269 565 186 q 511 399 565 357 q 363 440 457 440 q 179 419 278 440 l 122 492 l 149 896 l 635 896 l 638 785 l 258 790 l 239 489 l 183 517 z "},"6":{"ha":847,"x_min":86,"x_max":763,"o":"m 439 -19 q 178 94 271 -19 q 86 428 86 208 q 133 685 86 578 q 268 851 181 793 q 475 908 356 908 q 598 897 536 908 q 713 864 660 885 l 689 763 q 486 797 585 797 q 335 753 399 797 q 239 626 272 710 q 206 428 206 543 q 265 175 206 258 q 440 92 325 92 q 546 117 500 92 q 616 187 592 142 q 640 290 640 232 q 589 427 640 375 q 444 479 538 479 q 314 450 374 479 q 196 368 254 421 l 167 440 q 300 543 228 504 q 467 582 372 582 q 622 547 554 582 q 726 445 689 511 q 763 293 763 379 q 723 133 763 204 q 610 22 683 63 q 439 -19 536 -19 z "},"7":{"ha":771,"x_min":82,"x_max":715,"o":"m 715 868 q 494 461 589 682 q 331 -15 399 240 l 208 17 q 385 508 288 283 q 610 921 482 732 l 715 868 m 610 779 l 579 781 l 85 807 l 82 918 l 614 872 l 610 779 m 181 871 l 208 665 l 86 665 l 82 879 l 181 871 z "},"8":{"ha":833,"x_min":79,"x_max":754,"o":"m 417 -19 q 238 12 314 -19 q 120 99 161 43 q 79 229 79 156 q 143 382 79 313 q 317 492 207 451 l 372 439 q 254 353 301 404 q 207 240 207 301 q 263 122 207 165 q 417 78 319 78 q 572 120 515 78 q 628 233 628 163 q 599 300 628 271 q 530 351 571 329 q 410 407 489 372 q 256 478 315 446 q 154 561 196 511 q 113 679 113 611 q 149 799 113 747 q 255 880 186 851 q 417 908 324 908 q 578 880 510 908 q 684 801 647 851 q 721 685 721 750 q 663 541 721 607 q 514 438 606 475 l 453 482 q 561 566 519 518 q 603 669 603 614 q 553 772 603 733 q 417 811 503 811 q 281 774 332 811 q 231 676 231 736 q 261 605 231 636 q 337 551 292 574 q 461 496 382 528 q 614 426 556 457 q 713 349 672 396 q 754 236 754 301 q 664 50 754 119 q 417 -19 574 -19 z "},"9":{"ha":847,"x_min":85,"x_max":761,"o":"m 408 918 q 669 804 576 918 q 761 471 761 690 q 714 213 761 321 q 579 48 667 106 q 372 -10 492 -10 q 249 2 311 -10 q 135 35 188 14 l 158 136 q 361 101 263 101 q 512 145 449 101 q 608 272 575 189 q 642 471 642 356 q 582 724 642 640 q 407 807 522 807 q 301 782 347 807 q 231 712 256 757 q 207 608 207 667 q 258 472 207 524 q 403 419 310 419 q 533 449 474 419 q 651 531 593 478 l 681 458 q 547 356 619 394 q 381 317 475 317 q 226 352 293 317 q 122 453 158 388 q 85 606 85 519 q 124 765 85 694 q 238 877 164 836 q 408 918 311 918 z "},"Ɛ":{"ha":618,"x_min":115,"x_max":507,"o":"m 507 -264 l 115 -264 l 115 972 l 507 972 l 507 -264 m 207 129 l 207 -11 l 411 -11 l 411 129 l 207 129 m 371 31 l 247 31 l 247 89 l 371 89 l 371 31 m 288 343 l 288 274 l 331 274 l 331 303 l 371 303 l 371 244 l 247 244 l 247 343 l 207 343 l 207 203 l 411 203 l 411 343 l 288 343 m 371 494 l 371 413 l 207 413 l 207 371 l 411 371 l 411 494 l 371 494 m 207 568 l 207 528 l 288 528 l 288 482 l 207 482 l 207 440 l 331 440 l 331 528 l 411 528 l 411 568 l 207 568 m 288 643 l 247 643 l 247 688 l 288 688 l 288 643 m 207 731 l 207 601 l 411 601 l 411 643 l 331 643 l 331 731 l 207 731 m 208 889 l 208 849 l 288 849 l 288 803 l 207 803 l 207 763 l 411 763 l 411 803 l 331 803 l 331 849 l 411 849 l 411 889 l 208 889 m 207 -39 l 207 -79 l 293 -79 l 207 -137 l 207 -179 l 411 -179 l 411 -137 l 286 -137 l 372 -79 l 411 -79 l 411 -39 l 207 -39 z "},"\r":{"ha":375,"x_min":0,"x_max":0,"o":""}," ":{"ha":375,"x_min":0,"x_max":0,"o":""},"!":{"ha":472,"x_min":147,"x_max":324,"o":"m 165 903 l 304 903 l 286 283 l 183 283 l 165 903 m 236 -18 q 171 3 194 -18 q 147 60 147 24 q 171 115 147 94 q 236 136 194 136 q 300 115 276 136 q 324 60 324 94 q 300 3 324 24 q 236 -18 276 -18 z "},"\"":{"ha":653,"x_min":142,"x_max":553,"o":"m 142 972 l 277 972 l 281 915 l 236 606 l 145 606 l 142 972 m 413 972 l 547 972 l 551 915 l 507 606 l 416 606 l 413 972 z "},"#":{"ha":778,"x_min":117,"x_max":663,"o":"m 217 324 l 117 324 l 117 394 l 228 394 l 251 554 l 117 554 l 117 625 l 261 625 l 286 783 l 363 783 l 338 625 l 493 625 l 517 783 l 594 783 l 569 625 l 663 625 l 663 554 l 560 554 l 536 394 l 663 394 l 663 324 l 525 324 l 499 147 l 422 147 l 449 324 l 293 324 l 267 147 l 190 147 l 217 324 m 458 394 l 483 554 l 328 554 l 304 394 l 458 394 z "},"$":{"ha":750,"x_min":69,"x_max":665,"o":"m 381 86 q 219 99 299 86 q 69 136 140 113 l 93 240 q 234 206 160 218 q 379 193 308 193 q 501 215 461 193 q 540 282 540 238 q 523 331 540 313 q 468 363 506 350 q 358 389 431 375 q 199 438 258 408 q 113 508 139 467 q 86 606 86 549 q 155 742 86 696 q 354 788 224 788 q 501 775 426 788 q 640 739 576 763 l 611 635 q 492 667 561 654 q 356 681 424 681 q 243 664 278 681 q 208 606 208 647 q 224 558 208 576 q 277 526 240 540 q 383 497 314 513 q 544 449 483 475 q 635 383 604 422 q 665 282 665 343 q 592 136 665 186 q 381 86 518 86 m 333 131 l 424 131 l 432 -111 l 325 -111 l 333 131 m 325 983 l 432 983 l 424 742 l 333 742 l 325 983 z "},"%":{"ha":903,"x_min":76,"x_max":828,"o":"m 88 146 l 740 813 q 775 783 760 800 q 801 747 790 767 l 154 85 l 88 146 m 643 -19 q 508 32 558 -19 q 458 171 458 83 q 508 307 458 257 q 643 357 558 357 q 778 307 728 357 q 828 171 828 257 q 778 32 828 83 q 643 -19 728 -19 m 643 74 q 709 99 685 74 q 733 171 733 125 q 709 240 733 215 q 643 265 685 265 q 576 240 600 265 q 553 171 553 215 q 576 99 553 125 q 643 74 600 74 m 261 547 q 126 599 176 547 q 76 738 76 650 q 126 872 76 822 q 261 922 176 922 q 396 872 346 922 q 446 738 446 822 q 396 599 446 650 q 261 547 346 547 m 261 639 q 328 665 304 639 q 351 738 351 690 q 328 808 351 782 q 261 833 304 833 q 194 808 218 833 q 171 738 171 783 q 194 665 171 690 q 261 639 218 639 z "},"&":{"ha":833,"x_min":25,"x_max":819,"o":"m 819 61 q 739 -19 783 11 l 268 501 q 186 615 215 560 q 157 732 157 669 q 182 826 157 783 q 260 896 207 869 q 394 922 314 922 q 528 909 465 922 q 661 867 590 896 l 638 767 q 515 805 569 793 q 404 817 460 817 q 306 791 338 817 q 275 724 275 765 q 296 653 275 690 q 356 574 317 617 l 819 61 m 418 379 q 277 383 339 382 q 164 381 215 383 q 151 310 154 342 q 147 231 147 278 q 181 127 147 161 q 282 93 214 93 q 442 138 365 93 q 585 281 518 183 q 651 564 628 397 l 758 564 q 724 376 744 461 q 671 213 704 292 q 483 39 586 97 q 261 -19 381 -19 q 90 41 154 -19 q 25 228 25 101 q 35 351 25 297 q 68 474 44 404 q 239 478 165 479 q 414 472 313 478 l 418 379 z "},"'":{"ha":444,"x_min":158,"x_max":304,"o":"m 158 972 l 300 972 l 304 915 l 257 606 l 161 606 l 158 972 z "},"(":{"ha":639,"x_min":149,"x_max":521,"o":"m 458 -244 q 224 36 299 -119 q 149 367 149 192 q 224 696 149 540 q 458 976 299 851 l 521 908 q 333 662 396 796 q 271 367 271 528 q 333 70 271 204 q 521 -176 396 -64 l 458 -244 z "},")":{"ha":639,"x_min":118,"x_max":490,"o":"m 118 -176 q 306 70 243 -64 q 368 367 368 204 q 306 662 368 528 q 118 908 243 796 l 181 976 q 415 696 340 851 q 490 367 490 540 q 415 36 490 192 q 181 -244 340 -119 l 118 -176 z "},"*":{"ha":549,"x_min":49,"x_max":483,"o":"m 251 722 l 92 599 l 49 671 l 238 749 l 49 825 l 92 897 l 253 772 l 224 975 l 308 975 l 281 772 l 442 897 l 483 825 l 296 749 l 483 671 l 442 599 l 281 722 l 308 521 l 224 521 l 251 722 z "},"+":{"ha":625,"x_min":60,"x_max":565,"o":"m 264 350 l 260 603 l 365 603 l 363 350 l 365 97 l 260 97 l 264 350 m 60 403 l 313 400 l 565 403 l 565 297 l 313 301 l 60 297 l 60 403 z "},",":{"ha":431,"x_min":115,"x_max":308,"o":"m 126 -208 q 194 -120 167 -169 q 231 -15 222 -71 l 122 3 q 138 98 115 63 q 213 133 161 133 q 285 102 261 133 q 308 19 308 71 q 274 -124 308 -53 q 186 -249 240 -196 l 126 -208 z "},"-":{"ha":625,"x_min":88,"x_max":539,"o":"m 88 403 l 539 403 l 539 297 l 88 297 l 88 403 z "},".":{"ha":431,"x_min":126,"x_max":303,"o":"m 215 -18 q 150 3 174 -18 q 126 60 126 24 q 150 115 126 94 q 215 136 174 136 q 279 115 256 136 q 303 60 303 94 q 279 3 303 24 q 215 -18 256 -18 z "},"/":{"ha":847,"x_min":49,"x_max":800,"o":"m 49 -217 l 703 972 l 800 925 l 146 -265 l 49 -217 z "},":":{"ha":431,"x_min":126,"x_max":303,"o":"m 215 -18 q 150 3 174 -18 q 126 60 126 24 q 150 115 126 94 q 215 136 174 136 q 279 115 256 136 q 303 60 303 94 q 279 3 303 24 q 215 -18 256 -18 m 215 526 q 150 547 174 526 q 126 604 126 568 q 150 660 126 639 q 215 681 174 681 q 279 660 256 681 q 303 604 303 639 q 279 547 303 568 q 215 526 256 526 z "},";":{"ha":431,"x_min":121,"x_max":314,"o":"m 221 532 q 156 553 179 532 q 132 610 132 574 q 156 665 132 644 q 221 686 179 686 q 285 665 261 686 q 308 610 308 644 q 285 553 308 574 q 221 532 261 532 m 132 -208 q 200 -120 172 -169 q 236 -15 228 -71 l 128 3 q 144 98 121 63 q 218 133 167 133 q 290 102 267 133 q 314 19 314 71 q 280 -124 314 -53 q 192 -249 246 -196 l 132 -208 z "},"<":{"ha":750,"x_min":92,"x_max":658,"o":"m 92 275 l 92 394 l 603 672 l 658 578 l 186 335 l 658 92 l 603 -4 l 92 275 z "},"=":{"ha":625,"x_min":60,"x_max":565,"o":"m 60 263 l 565 263 l 565 157 l 60 157 l 60 263 m 60 524 l 565 524 l 565 418 l 60 418 l 60 524 z "},">":{"ha":750,"x_min":92,"x_max":658,"o":"m 92 92 l 564 335 l 92 578 l 147 672 l 658 394 l 658 275 l 147 -4 l 92 92 z "},"?":{"ha":556,"x_min":58,"x_max":497,"o":"m 133 382 q 269 465 217 426 q 348 544 321 503 q 375 632 375 585 q 300 749 375 706 q 58 799 225 793 l 64 906 q 301 871 204 903 q 448 781 399 839 q 497 640 497 722 q 453 502 497 564 q 343 394 408 440 q 179 293 278 347 l 133 382 m 201 -18 q 136 3 160 -18 q 113 60 113 24 q 136 115 113 94 q 201 136 160 136 q 265 115 242 136 q 289 60 289 94 q 265 3 289 24 q 201 -18 242 -18 z "},"@":{"ha":975,"x_min":60,"x_max":892,"o":"m 775 315 l 775 631 q 721 767 775 718 q 542 817 667 817 q 362 781 443 817 q 228 648 281 744 q 175 385 175 551 l 60 385 q 137 716 60 596 q 322 879 214 836 q 543 922 429 922 q 799 856 706 922 q 892 647 892 790 l 892 288 l 892 288 q 892 189 892 239 q 842 187 867 188 q 794 189 818 186 l 775 315 m 535 169 q 402 224 450 169 q 354 382 354 279 q 367 490 354 442 q 403 582 379 538 q 602 587 507 589 q 799 576 697 585 l 789 486 q 622 497 692 494 q 481 496 551 499 q 468 442 472 471 q 464 382 464 413 q 490 299 464 325 q 567 274 515 274 q 671 301 613 274 q 782 371 729 329 l 797 278 q 663 197 731 225 q 535 169 596 169 m 867 -68 q 698 -128 778 -110 q 519 -146 618 -146 q 302 -103 404 -146 q 130 57 200 -61 q 60 385 60 175 l 175 385 q 224 126 175 219 q 352 -4 274 32 q 528 -40 431 -40 q 688 -21 607 -40 q 867 39 769 -1 q 867 -68 867 -15 z "},"A":{"ha":875,"x_min":42,"x_max":833,"o":"m 42 0 q 164 422 86 185 q 335 903 242 658 l 540 903 q 712 419 636 653 q 833 0 788 185 l 704 0 q 638 238 657 175 l 238 238 q 171 0 189 72 l 42 0 m 611 342 q 535 575 572 465 q 458 789 497 685 l 417 789 q 337 565 376 679 q 264 342 297 450 l 611 342 z "},"B":{"ha":847,"x_min":129,"x_max":769,"o":"m 226 99 l 457 99 q 599 142 549 99 q 650 264 650 186 q 599 376 650 340 q 440 414 549 413 l 233 415 l 238 510 l 447 510 q 479 505 463 510 q 510 494 496 500 q 533 485 521 489 q 556 482 544 482 q 711 423 653 482 q 769 269 769 364 q 692 70 769 140 q 469 0 615 0 l 250 0 l 226 99 m 447 510 q 531 532 496 510 q 583 588 565 554 q 600 654 600 621 q 554 765 600 726 q 419 804 508 804 l 193 804 l 253 903 l 431 903 q 641 840 568 903 q 714 664 714 776 q 669 528 714 589 q 551 454 625 467 l 447 510 m 129 732 l 129 782 l 129 782 q 129 903 129 843 l 253 903 l 253 0 l 129 0 l 129 732 z "},"C":{"ha":778,"x_min":69,"x_max":738,"o":"m 488 -19 q 262 38 356 -19 q 119 201 168 94 q 69 457 69 308 q 119 706 69 601 q 263 867 169 811 q 483 922 357 922 q 607 913 553 922 q 736 879 661 903 l 713 772 q 625 793 667 785 l 625 793 q 553 803 585 800 q 490 807 521 807 q 334 765 400 807 q 233 645 268 724 q 197 458 197 567 q 231 265 197 346 q 332 140 265 183 q 493 96 399 96 q 607 107 547 96 q 713 132 667 118 l 738 24 q 608 -10 663 0 q 488 -19 553 -19 z "},"D":{"ha":924,"x_min":124,"x_max":853,"o":"m 124 746 l 124 792 l 124 792 q 124 903 124 847 l 403 903 q 642 848 540 903 q 798 691 743 793 q 853 451 853 589 q 798 212 853 314 q 642 55 743 110 q 403 0 540 0 l 124 0 l 124 746 m 401 111 q 572 153 499 111 q 684 272 644 194 q 724 451 724 349 q 684 631 724 554 q 572 749 644 708 q 401 790 499 790 l 244 790 l 244 111 l 401 111 z "},"E":{"ha":750,"x_min":129,"x_max":697,"o":"m 129 772 l 129 903 l 253 903 l 253 0 l 129 0 l 129 772 m 229 104 l 697 113 l 690 0 l 164 0 l 229 104 m 236 421 l 236 515 l 608 525 l 608 414 l 236 421 m 136 903 l 232 903 l 232 808 l 136 785 l 136 903 m 229 799 l 235 903 l 676 903 l 683 792 l 229 799 z "},"F":{"ha":708,"x_min":128,"x_max":682,"o":"m 128 771 l 128 903 l 251 903 l 251 0 l 128 0 l 128 771 m 235 372 l 235 467 l 607 476 l 607 365 l 235 372 m 135 785 q 135 903 135 844 l 231 903 l 231 808 l 135 785 m 228 799 l 233 903 l 675 903 l 682 792 l 228 799 z "},"G":{"ha":889,"x_min":71,"x_max":792,"o":"m 503 -19 q 274 35 371 -19 q 124 197 176 90 q 71 453 71 303 q 123 705 71 599 q 271 867 175 811 q 494 922 367 922 q 642 906 574 922 q 768 861 711 889 l 749 763 q 627 797 688 785 q 508 808 567 808 q 341 765 411 808 q 235 642 271 722 q 199 454 199 563 q 238 258 199 339 q 351 135 278 176 q 524 94 424 94 q 603 100 564 94 q 681 117 643 106 l 651 419 l 772 425 l 792 26 q 649 -7 726 6 q 503 -19 572 -19 z "},"H":{"ha":958,"x_min":131,"x_max":829,"o":"m 706 903 l 829 903 l 829 0 l 706 0 l 706 903 m 131 903 l 254 903 l 254 0 l 131 0 l 131 903 m 172 511 l 783 511 l 783 403 l 172 403 l 172 511 z "},"I":{"ha":625,"x_min":57,"x_max":567,"o":"m 251 903 l 375 903 l 375 0 l 251 0 l 251 903 m 57 110 l 313 103 l 567 110 l 564 0 l 61 0 l 57 110 m 61 903 l 564 903 l 567 794 l 313 801 l 57 794 l 61 903 z "},"J":{"ha":653,"x_min":43,"x_max":554,"o":"m 286 -19 q 164 -3 226 -19 q 43 42 101 14 l 64 143 q 174 110 121 122 q 271 99 226 99 q 397 144 358 99 q 435 296 435 189 l 435 903 l 554 903 l 554 281 q 485 51 554 122 q 286 -19 417 -19 m 129 903 l 467 903 l 467 794 l 122 786 l 129 903 z "},"K":{"ha":826,"x_min":129,"x_max":792,"o":"m 129 732 l 129 782 l 129 782 q 129 901 129 842 q 191 903 160 903 q 253 903 222 903 l 253 0 l 129 0 l 129 732 m 242 390 q 399 546 324 460 q 532 725 475 632 q 614 903 589 818 q 742 903 678 903 q 631 666 704 782 q 457 447 557 550 q 242 263 357 344 l 242 390 m 654 0 q 535 230 607 100 q 413 439 464 360 l 500 499 q 653 256 571 396 q 792 0 735 115 l 654 0 z "},"L":{"ha":694,"x_min":128,"x_max":669,"o":"m 128 903 l 251 903 l 251 104 l 588 108 l 588 108 l 588 108 q 669 108 629 108 l 664 0 l 128 0 l 128 903 z "},"M":{"ha":1056,"x_min":128,"x_max":928,"o":"m 492 254 l 229 708 l 238 724 l 244 0 l 128 0 l 128 903 l 235 903 l 528 401 l 819 903 l 928 903 l 928 0 l 811 0 l 817 724 l 825 708 l 563 254 l 492 254 z "},"N":{"ha":958,"x_min":131,"x_max":829,"o":"m 131 903 l 244 903 l 725 178 l 713 175 l 706 903 l 829 903 l 829 0 l 717 0 l 235 724 l 246 728 l 253 0 l 131 0 l 131 903 z "},"O":{"ha":944,"x_min":71,"x_max":874,"o":"m 472 -19 q 260 38 351 -19 q 120 202 169 96 q 71 451 71 308 q 120 701 71 594 q 260 865 169 807 q 472 922 351 922 q 684 865 593 922 q 824 701 775 807 q 874 451 874 594 q 824 202 874 308 q 684 38 775 96 q 472 -19 593 -19 m 471 97 q 617 141 554 97 q 713 265 679 185 q 747 451 747 344 q 713 639 747 558 q 617 763 679 719 q 471 807 554 807 q 325 764 388 807 q 229 640 263 721 q 196 451 196 560 q 229 264 196 344 q 325 140 263 183 q 471 97 388 97 z "},"P":{"ha":806,"x_min":129,"x_max":744,"o":"m 217 403 l 428 417 q 574 469 525 422 q 622 603 622 517 q 571 743 622 694 q 428 792 519 792 l 232 792 l 253 903 l 428 903 q 662 824 579 903 q 744 603 744 746 q 663 391 744 464 q 435 310 582 318 l 217 297 l 217 403 m 129 732 l 129 782 l 129 782 q 129 903 129 843 l 253 903 l 253 0 l 129 0 l 129 732 z "},"Q":{"ha":944,"x_min":71,"x_max":886,"o":"m 472 -19 q 260 38 351 -19 q 120 202 169 96 q 71 451 71 308 q 120 701 71 594 q 260 865 169 807 q 472 922 351 922 q 684 865 593 922 q 824 701 775 807 q 874 451 874 594 q 824 202 874 308 q 684 38 775 96 q 472 -19 593 -19 m 471 97 q 617 141 554 97 q 713 265 679 185 q 747 451 747 344 q 713 639 747 558 q 617 763 679 719 q 471 807 554 807 q 325 764 388 807 q 229 640 263 721 q 196 451 196 560 q 229 264 196 344 q 325 140 263 183 q 471 97 388 97 m 610 60 l 683 110 l 886 -115 q 789 -192 849 -153 l 610 60 z "},"R":{"ha":842,"x_min":131,"x_max":776,"o":"m 217 421 l 435 435 q 570 489 521 440 q 619 615 619 538 q 570 744 619 697 q 435 792 521 792 l 219 792 l 254 903 l 435 903 q 663 826 579 903 q 747 615 747 749 q 710 474 747 536 q 603 374 674 411 q 435 331 532 338 l 217 317 l 217 421 m 639 0 q 538 202 589 106 q 451 354 488 299 l 560 379 q 667 205 608 306 q 776 0 725 104 l 639 0 m 131 732 l 131 782 l 131 782 q 131 903 131 843 l 254 903 l 254 0 l 131 0 l 131 732 z "},"S":{"ha":722,"x_min":49,"x_max":674,"o":"m 372 -19 q 206 -5 288 -19 q 49 38 125 10 l 67 139 q 223 106 144 117 q 371 94 301 94 q 502 130 454 94 q 550 229 550 165 q 530 302 550 272 q 465 355 510 332 q 344 399 419 378 q 185 460 246 426 q 93 543 124 494 q 63 661 63 592 q 141 850 63 785 q 365 915 219 915 q 503 907 442 915 q 624 879 564 899 q 608 772 617 813 q 495 795 551 789 q 363 801 439 801 q 233 767 279 801 q 188 669 188 733 q 206 601 188 629 q 265 553 225 574 q 371 513 304 532 q 545 444 479 481 q 642 356 611 407 q 674 232 674 304 q 595 46 674 111 q 372 -19 517 -19 z "},"T":{"ha":708,"x_min":21,"x_max":689,"o":"m 292 792 l 21 792 l 21 903 l 689 903 l 689 792 l 417 792 l 417 0 l 292 0 l 292 792 z "},"U":{"ha":917,"x_min":101,"x_max":817,"o":"m 458 -19 q 193 79 285 -19 q 101 363 101 178 l 101 903 l 225 903 l 225 363 q 283 166 225 233 q 458 99 342 99 q 631 166 571 99 q 692 363 692 233 l 692 903 l 817 903 l 817 363 q 722 80 817 179 q 458 -19 628 -19 z "},"V":{"ha":875,"x_min":42,"x_max":833,"o":"m 339 0 q 165 488 242 256 q 42 903 88 719 l 171 903 q 282 519 217 719 q 422 115 347 319 l 451 115 q 592 519 525 315 q 704 903 658 722 l 833 903 q 711 487 790 725 q 536 0 632 249 l 339 0 z "},"W":{"ha":1139,"x_min":49,"x_max":1092,"o":"m 294 0 q 158 444 224 210 q 49 903 93 679 l 175 903 q 272 490 218 700 q 379 110 326 281 l 517 110 l 506 664 q 633 664 569 668 l 622 110 l 760 110 q 869 495 814 285 q 964 903 924 706 l 1092 903 q 985 454 1047 679 q 844 0 924 229 q 294 0 572 -3 z "},"X":{"ha":917,"x_min":78,"x_max":840,"o":"m 78 0 q 208 237 133 115 q 363 469 283 358 q 213 694 281 583 q 100 903 146 804 l 238 903 q 335 715 275 817 q 461 521 394 613 l 475 501 l 444 501 q 578 704 518 601 q 681 903 638 807 l 818 903 q 715 710 778 814 q 574 496 651 607 l 556 469 q 713 233 639 354 q 840 0 788 111 l 703 0 q 579 227 647 115 q 440 432 511 339 l 478 432 q 335 220 406 333 q 215 0 265 107 l 78 0 z "},"Y":{"ha":833,"x_min":50,"x_max":785,"o":"m 364 303 l 469 303 l 482 0 l 351 0 l 364 303 m 453 376 q 567 636 513 499 q 657 903 621 774 l 785 903 q 677 603 743 764 q 536 290 611 443 l 451 290 l 453 376 m 314 400 l 524 400 l 522 290 l 313 290 l 314 400 m 299 290 q 155 597 221 438 q 50 903 89 757 l 176 903 q 264 637 210 774 q 382 376 318 500 l 383 290 l 299 290 z "},"Z":{"ha":736,"x_min":40,"x_max":696,"o":"m 40 94 l 542 813 l 556 801 l 57 790 l 57 903 l 671 903 l 671 810 l 174 89 l 161 101 l 696 111 l 696 0 l 40 0 l 40 94 z "},"[":{"ha":583,"x_min":122,"x_max":542,"o":"m 122 964 l 542 964 l 542 864 l 238 864 l 238 -131 l 542 -131 l 542 -231 l 122 -231 l 122 964 z "},"\\":{"ha":847,"x_min":47,"x_max":799,"o":"m 47 925 l 144 972 l 799 -217 l 701 -265 l 47 925 z "},"]":{"ha":583,"x_min":42,"x_max":461,"o":"m 42 -231 l 42 -131 l 346 -131 l 346 864 l 42 864 l 42 964 l 461 964 l 461 -231 l 42 -231 z "},"^":{"ha":750,"x_min":107,"x_max":650,"o":"m 428 911 l 650 526 l 556 494 l 378 797 l 200 494 l 107 526 l 329 911 l 428 911 z "},"_":{"ha":875,"x_min":7,"x_max":868,"o":"m 7 -125 l 868 -125 l 868 -217 l 7 -217 l 7 -125 z "},"`":{"ha":875,"x_min":243,"x_max":518,"o":"m 335 1038 l 518 829 l 467 785 l 243 960 l 335 1038 z "},"a":{"ha":736,"x_min":82,"x_max":640,"o":"m 531 78 q 413 7 476 33 q 289 -19 349 -19 q 138 35 193 -19 q 82 189 82 90 q 94 287 82 238 q 129 383 106 336 q 307 386 217 388 q 524 379 397 385 l 524 408 l 524 413 q 511 499 522 463 q 471 555 500 535 q 393 575 442 575 q 285 561 349 575 q 147 521 222 547 q 119 622 133 572 q 274 666 200 651 q 407 681 347 681 q 533 657 482 681 q 613 580 585 633 q 640 439 640 526 l 640 99 l 640 99 q 640 0 640 50 q 594 -3 619 -3 q 543 0 568 -3 l 531 78 m 197 196 q 225 115 197 144 q 310 85 253 85 q 414 110 361 85 q 524 179 467 136 l 524 282 q 213 289 339 293 q 201 244 204 265 q 197 196 197 222 z "},"b":{"ha":806,"x_min":122,"x_max":743,"o":"m 404 -19 q 269 -2 343 -19 q 122 46 194 15 l 175 146 q 300 100 243 115 q 397 85 357 85 q 519 116 469 85 q 594 206 569 147 q 619 347 619 265 q 597 470 619 419 q 534 547 575 521 q 436 572 493 572 q 321 546 383 572 q 197 479 258 519 l 196 586 q 331 659 268 635 q 460 683 393 683 q 611 644 547 683 q 709 528 675 604 q 743 346 743 451 q 701 151 743 233 q 583 24 660 68 q 404 -19 507 -19 m 122 972 l 242 972 l 242 63 l 122 46 l 122 972 m 124 863 q 122 972 124 935 q 182 975 149 975 q 242 972 215 975 l 226 863 l 124 863 z "},"c":{"ha":653,"x_min":61,"x_max":613,"o":"m 388 -19 q 217 23 292 -19 q 102 146 143 65 q 61 335 61 226 q 103 521 61 442 q 221 642 144 600 q 399 683 297 683 q 498 671 444 683 q 608 631 551 658 q 592 528 603 578 q 526 550 546 544 l 526 550 q 459 567 490 561 q 403 574 428 574 q 288 545 338 574 q 210 463 238 517 q 183 336 183 410 q 211 203 183 258 q 289 119 239 147 q 407 90 339 90 q 505 106 447 90 q 596 136 563 121 q 608 60 603 108 q 613 35 611 47 q 497 -7 553 6 q 388 -19 440 -19 z "},"d":{"ha":799,"x_min":78,"x_max":690,"o":"m 361 -19 q 213 19 276 -19 q 113 134 149 57 q 78 325 78 211 q 117 516 78 435 q 228 640 157 597 q 389 683 299 683 q 510 668 446 683 q 622 631 574 653 l 619 529 q 520 564 579 549 q 422 579 461 579 q 302 549 351 579 q 227 459 253 518 q 201 313 201 400 q 251 151 201 211 q 382 92 300 92 q 476 111 422 92 q 578 158 529 131 q 585 163 582 161 l 604 74 q 481 6 551 31 q 361 -19 411 -19 m 571 119 l 571 972 q 634 976 614 976 q 690 972 654 976 l 690 106 l 690 106 q 690 0 690 53 q 638 -3 665 -3 q 590 0 611 -3 l 571 119 z "},"e":{"ha":729,"x_min":64,"x_max":667,"o":"m 393 -19 q 217 23 292 -19 q 103 144 143 65 q 64 332 64 224 q 105 516 64 436 q 217 640 146 596 q 376 683 289 683 q 532 642 467 683 q 632 525 597 600 q 667 353 667 450 q 663 292 667 319 q 422 292 500 292 q 186 292 343 292 q 251 146 196 201 q 401 90 307 90 q 514 103 456 90 q 618 139 572 117 q 639 36 633 61 q 525 -4 588 11 q 393 -19 463 -19 m 186 392 q 554 392 371 392 q 526 492 549 451 q 466 553 504 532 q 372 574 428 574 q 287 551 326 574 q 221 486 247 528 q 186 392 194 444 z "},"f":{"ha":514,"x_min":24,"x_max":540,"o":"m 174 753 q 223 921 174 861 q 386 981 272 981 q 467 972 426 981 q 540 946 507 963 l 524 854 q 462 869 486 865 q 410 874 438 874 q 320 842 347 874 q 293 740 293 811 l 293 0 l 174 0 l 174 753 m 182 111 l 231 111 l 293 111 l 293 0 l 182 0 l 182 111 m 24 664 l 499 664 q 499 546 503 606 l 224 561 l 24 546 l 24 664 z "},"g":{"ha":799,"x_min":74,"x_max":685,"o":"m 361 -283 q 240 -272 299 -283 q 121 -239 181 -260 l 147 -137 q 257 -169 207 -158 q 357 -179 307 -179 q 471 -156 425 -179 q 541 -84 517 -133 q 565 43 565 -35 l 565 588 l 685 604 l 685 42 q 601 -202 685 -121 q 361 -283 518 -283 m 339 13 q 149 95 224 13 q 74 339 74 178 q 113 522 74 444 q 224 642 151 600 q 397 683 297 683 q 551 661 478 683 q 685 604 625 639 l 618 525 q 509 566 565 551 q 397 581 453 581 q 290 549 335 581 q 220 464 244 518 q 196 344 196 410 q 235 174 196 232 q 351 117 275 117 q 476 144 415 117 q 582 217 536 171 l 613 128 q 495 47 569 82 q 339 13 421 13 z "},"h":{"ha":819,"x_min":133,"x_max":700,"o":"m 581 400 q 553 524 581 488 q 458 561 526 561 q 342 538 406 561 q 225 476 279 514 l 217 578 q 313 633 263 608 q 417 670 364 657 q 518 683 469 683 q 657 631 614 683 q 700 469 700 579 l 700 0 l 581 0 l 581 400 m 133 867 l 133 867 q 133 975 133 921 q 253 975 176 981 l 253 0 l 133 0 l 133 867 z "},"i":{"ha":424,"x_min":54,"x_max":311,"o":"m 178 104 l 178 104 l 178 642 l 297 664 l 297 104 l 297 104 l 297 0 l 178 0 l 178 104 m 58 546 q 58 664 54 607 q 178 667 106 667 q 297 664 251 667 l 253 575 l 58 546 m 219 806 q 151 828 176 806 q 125 889 125 850 q 151 949 125 926 q 219 971 176 971 q 287 949 263 971 q 311 889 311 926 q 287 828 311 850 q 219 806 263 806 z "},"j":{"ha":424,"x_min":-29,"x_max":326,"o":"m 117 -276 q 44 -270 82 -276 q -29 -251 6 -264 q -11 -150 -24 -196 q 43 -162 19 -158 q 88 -167 67 -167 q 156 -136 133 -167 q 178 -31 178 -106 l 178 649 l 297 664 l 297 -40 q 249 -220 297 -164 q 117 -276 201 -276 m 58 546 q 58 664 54 608 q 292 664 124 668 l 253 575 l 58 546 m 235 806 q 166 828 192 806 q 140 889 140 850 q 166 949 140 926 q 235 971 192 971 q 302 949 278 971 q 326 889 326 926 q 302 828 326 850 q 235 806 278 806 z "},"k":{"ha":743,"x_min":124,"x_max":735,"o":"m 213 317 q 359 410 286 351 q 487 535 432 468 q 564 664 542 603 q 697 664 629 668 q 595 493 661 578 q 434 333 529 408 q 221 204 339 257 l 213 317 m 597 0 q 476 190 557 65 q 397 313 438 251 l 478 381 q 735 0 628 175 l 597 0 m 124 860 l 124 860 q 124 972 124 917 q 183 974 157 974 q 243 972 210 974 l 243 0 l 124 0 l 124 860 z "},"l":{"ha":410,"x_min":25,"x_max":268,"o":"m 149 104 l 149 104 l 149 949 l 268 972 l 268 104 l 268 104 l 268 0 l 149 0 l 149 104 m 29 854 q 29 972 25 911 q 154 975 86 975 q 268 972 222 975 l 225 883 q 161 875 193 879 q 94 865 117 868 q 29 854 72 861 z "},"m":{"ha":1167,"x_min":133,"x_max":1047,"o":"m 133 664 q 233 665 176 668 l 253 532 l 253 0 l 133 0 l 133 664 m 531 443 q 521 517 531 490 q 492 553 511 543 q 440 563 472 563 q 342 538 397 563 q 238 471 288 513 l 201 558 q 355 654 289 625 q 481 683 421 683 q 603 636 557 683 q 650 478 650 589 l 650 0 l 531 0 l 531 443 m 928 428 q 915 513 928 483 q 881 553 901 543 q 832 563 860 563 q 734 536 788 563 q 633 471 681 510 l 603 556 q 745 651 682 619 q 872 683 808 683 q 999 636 950 683 q 1047 479 1047 589 l 1047 0 l 928 0 l 928 428 z "},"n":{"ha":819,"x_min":133,"x_max":700,"o":"m 581 419 q 569 506 581 476 q 531 549 557 536 q 458 561 506 561 q 344 533 407 561 q 225 463 281 506 l 213 564 q 326 635 276 610 q 418 672 375 661 q 506 683 461 683 q 654 628 608 683 q 700 460 700 572 l 700 0 l 581 0 l 581 419 m 133 554 l 133 554 q 133 663 133 608 q 181 665 157 665 q 233 664 206 665 l 253 514 l 253 0 l 133 0 l 133 554 z "},"o":{"ha":764,"x_min":61,"x_max":701,"o":"m 381 -19 q 210 23 282 -19 q 99 144 138 65 q 61 332 61 224 q 99 519 61 440 q 210 641 138 599 q 381 683 282 683 q 552 641 479 683 q 663 519 625 599 q 701 332 701 440 q 663 144 701 224 q 552 23 625 65 q 381 -19 479 -19 m 379 85 q 488 113 443 85 q 555 196 532 140 q 578 332 578 251 q 555 469 578 414 q 488 551 532 524 q 379 579 443 579 q 274 551 317 579 q 208 469 231 524 q 185 332 185 414 q 208 196 185 251 q 274 113 231 140 q 379 85 317 85 z "},"p":{"ha":806,"x_min":122,"x_max":743,"o":"m 474 683 q 615 643 554 683 q 709 527 675 603 q 743 346 743 451 q 700 151 743 233 q 581 25 657 68 q 408 -18 504 -18 q 292 0 356 -18 q 181 46 229 18 l 185 146 q 309 99 253 115 q 407 83 365 83 q 515 114 467 83 q 592 204 564 144 q 619 347 619 264 q 597 469 619 418 q 533 546 574 519 q 439 572 493 572 q 331 547 396 572 q 218 490 267 521 l 199 579 q 330 653 260 624 q 474 683 400 683 m 235 564 l 242 517 l 242 -264 l 122 -264 l 122 664 q 172 665 150 665 q 217 664 193 665 l 224 664 l 235 564 m 236 -168 q 236 -264 236 -217 l 140 -264 q 140 -168 140 -217 l 186 -168 l 236 -168 z "},"q":{"ha":799,"x_min":78,"x_max":690,"o":"m 361 -19 q 214 19 278 -19 q 114 134 150 57 q 78 325 78 211 q 117 515 78 433 q 231 640 157 596 q 407 683 306 683 q 549 663 471 683 q 690 604 628 642 l 624 525 q 521 563 579 547 q 422 579 463 579 q 301 548 350 579 q 226 458 251 517 q 201 314 201 399 q 249 150 201 208 q 382 92 296 92 q 478 112 425 92 q 583 167 531 132 l 619 90 l 608 82 q 483 6 542 31 q 361 -19 424 -19 m 571 585 l 690 604 l 690 -264 l 571 -264 l 571 585 m 579 -264 q 579 -154 579 -210 l 638 -154 l 683 -154 q 683 -264 683 -210 l 579 -264 z "},"r":{"ha":556,"x_min":129,"x_max":540,"o":"m 129 106 l 129 106 l 129 565 l 129 565 q 129 664 129 615 q 190 667 165 667 q 249 664 215 667 l 249 533 q 381 625 318 589 q 524 681 443 661 q 535 546 540 628 q 386 508 453 536 q 250 429 319 479 l 249 106 l 249 106 l 249 0 l 129 0 l 129 106 z "},"s":{"ha":590,"x_min":42,"x_max":549,"o":"m 60 496 q 119 635 60 586 q 292 683 178 683 q 413 672 354 683 q 524 635 471 660 q 503 536 518 586 q 394 569 443 560 q 294 579 344 579 q 209 558 238 579 q 181 496 181 538 q 192 448 181 465 q 232 419 204 431 q 314 394 260 407 q 458 345 407 374 q 528 277 508 317 q 549 182 549 238 q 479 33 549 86 q 293 -19 410 -19 q 158 -5 226 -19 q 42 35 90 10 l 64 143 q 174 107 117 119 q 285 94 232 94 q 390 117 353 94 q 428 181 428 139 q 399 243 428 222 q 300 278 371 264 q 158 324 211 294 q 83 394 106 353 q 60 496 60 436 z "},"t":{"ha":583,"x_min":18,"x_max":556,"o":"m 375 -19 q 218 42 272 -19 q 164 244 164 103 l 164 610 l 171 619 l 163 863 l 296 863 l 274 621 l 283 611 l 283 240 q 310 122 283 154 q 382 90 336 90 q 469 100 428 90 q 543 126 511 110 q 556 25 556 64 q 474 -6 528 8 q 375 -19 419 -19 m 18 664 l 550 664 q 550 546 554 606 l 226 561 l 18 547 l 18 664 z "},"u":{"ha":813,"x_min":119,"x_max":682,"o":"m 239 251 q 251 161 239 193 q 289 117 263 129 q 363 104 315 104 q 469 131 410 104 q 590 201 528 157 l 607 107 q 512 41 561 69 q 410 -3 463 13 q 308 -19 358 -19 q 166 33 213 -19 q 119 194 119 86 l 119 664 l 239 664 l 239 251 m 682 110 l 682 110 q 682 1 682 56 q 582 0 640 -4 l 563 150 l 563 664 l 682 664 l 682 110 z "},"v":{"ha":708,"x_min":33,"x_max":675,"o":"m 263 0 q 129 363 186 200 q 33 664 72 526 l 153 664 q 235 400 189 533 q 339 107 281 267 l 367 107 q 382 150 375 129 q 477 417 433 290 q 554 664 521 543 l 675 664 q 582 374 636 526 q 443 0 528 221 l 263 0 z "},"w":{"ha":847,"x_min":35,"x_max":813,"o":"m 578 10 l 575 57 q 655 347 624 188 q 692 664 686 507 q 813 664 751 667 q 767 341 807 517 q 669 0 728 165 l 578 10 m 226 106 l 638 106 l 669 0 l 179 0 l 226 106 m 179 0 q 82 336 122 161 q 35 664 42 511 q 156 664 96 667 q 193 347 161 508 q 274 57 225 186 l 269 10 l 179 0 m 378 90 q 368 499 368 281 q 482 499 425 503 q 469 90 482 265 l 378 90 z "},"x":{"ha":736,"x_min":51,"x_max":685,"o":"m 51 0 q 121 100 86 50 q 286 333 247 281 q 215 436 251 385 q 64 664 157 521 l 204 664 q 276 542 233 611 q 374 389 319 472 l 406 340 l 331 340 q 339 351 335 346 q 443 513 390 429 q 533 664 496 596 l 671 664 q 565 501 621 586 q 450 333 508 417 q 570 167 511 251 q 685 0 629 83 l 544 0 q 483 97 518 46 q 411 203 449 149 q 332 314 392 232 l 406 314 q 344 229 375 272 q 190 0 265 117 l 51 0 z "},"y":{"ha":694,"x_min":33,"x_max":660,"o":"m 272 38 q 129 392 190 233 q 33 664 68 551 q 158 664 96 664 q 247 408 201 536 q 340 150 293 279 l 351 150 q 447 413 399 276 q 533 664 494 549 q 660 664 597 664 q 560 383 624 550 q 421 38 496 215 l 272 38 m 146 -232 q 188 -171 167 -203 q 228 -110 210 -139 q 325 92 285 -15 l 421 38 q 325 -158 371 -78 q 244 -285 281 -237 l 146 -232 z "},"z":{"ha":611,"x_min":54,"x_max":583,"o":"m 54 97 l 414 576 l 433 560 l 72 553 q 72 664 72 608 l 553 664 l 553 568 l 186 85 l 182 103 l 579 111 q 579 0 583 58 l 54 0 l 54 97 z "},"{":{"ha":681,"x_min":74,"x_max":629,"o":"m 629 -243 q 434 -226 525 -243 q 281 -164 343 -210 q 218 -35 218 -118 q 229 46 218 11 q 261 122 240 81 q 283 176 276 158 q 289 213 289 193 q 236 290 289 265 q 74 314 183 314 l 74 426 q 236 451 183 426 q 289 528 289 475 q 282 570 289 549 q 260 624 275 592 q 229 699 240 665 q 218 774 218 732 q 281 903 218 857 q 434 965 343 949 q 629 982 525 982 l 629 881 q 483 869 547 881 q 378 826 418 857 q 338 746 338 796 q 346 692 338 718 q 371 631 354 665 q 396 567 389 589 q 403 519 403 546 q 356 424 403 463 q 214 369 308 386 q 355 316 307 354 q 403 219 403 278 q 394 165 403 192 q 371 107 386 139 q 346 43 354 69 q 338 -15 338 17 q 420 -112 338 -83 q 629 -142 503 -142 l 629 -243 z "},"|":{"ha":458,"x_min":169,"x_max":289,"o":"m 289 972 l 289 -278 l 169 -278 l 169 972 l 289 972 z "},"}":{"ha":681,"x_min":51,"x_max":607,"o":"m 51 -142 q 260 -112 178 -142 q 343 -15 343 -83 q 335 43 343 17 q 310 107 326 69 q 286 165 294 139 q 278 219 278 192 q 326 316 278 278 q 467 369 374 354 q 325 424 372 386 q 278 519 278 463 q 285 567 278 546 q 310 631 292 589 q 335 692 326 665 q 343 746 343 718 q 303 826 343 796 q 198 869 263 857 q 51 881 133 881 l 51 982 q 247 965 156 982 q 400 903 338 949 q 463 774 463 857 q 451 699 463 732 q 421 624 440 665 q 399 570 406 592 q 392 528 392 549 q 444 451 392 475 q 607 426 497 426 l 607 314 q 444 290 497 314 q 392 213 392 265 q 398 176 392 193 q 419 122 404 158 q 451 46 440 81 q 463 -35 463 11 q 400 -164 463 -118 q 247 -226 338 -210 q 51 -243 156 -243 l 51 -142 z "},"~":{"ha":750,"x_min":75,"x_max":676,"o":"m 500 253 q 429 269 463 253 q 353 317 396 286 q 295 352 318 340 q 251 364 272 364 q 190 333 215 364 q 139 233 164 301 l 75 261 q 128 378 101 335 q 188 442 156 422 q 260 463 219 463 q 331 446 297 463 q 407 399 364 429 q 462 363 440 375 q 503 351 483 351 q 563 381 539 351 q 611 475 588 410 l 676 447 q 624 333 650 375 q 569 272 599 290 q 500 253 540 253 z "}," ":{"ha":375,"x_min":0,"x_max":0,"o":""},"¡":{"ha":472,"x_min":147,"x_max":324,"o":"m 286 383 l 304 -236 l 165 -236 l 183 383 l 286 383 m 236 685 q 300 664 276 685 q 324 607 324 643 q 300 551 324 572 q 236 531 276 531 q 171 551 194 531 q 147 607 147 572 q 171 664 147 643 q 236 685 194 685 z "},"¢":{"ha":750,"x_min":75,"x_max":663,"o":"m 413 83 q 235 124 311 83 q 117 238 158 165 q 75 404 75 311 q 119 572 75 501 q 237 681 163 643 q 399 718 311 718 q 533 708 468 718 q 663 681 599 697 l 644 579 q 531 603 586 594 q 417 613 475 613 q 310 589 360 613 q 228 519 260 565 q 197 406 197 472 q 225 294 197 343 q 303 217 253 244 q 418 189 353 189 q 530 198 474 189 q 644 222 586 207 l 663 121 q 546 94 604 104 q 413 83 488 83 m 464 910 l 456 668 l 365 668 l 357 910 l 464 910 m 365 133 l 456 133 l 464 -108 l 357 -108 l 365 133 z "},"£":{"ha":806,"x_min":85,"x_max":765,"o":"m 88 0 l 88 106 l 232 97 l 193 54 l 249 542 q 293 728 261 651 q 390 848 325 804 q 561 892 456 892 q 765 856 650 892 l 744 756 q 572 783 642 783 q 458 756 500 783 q 394 677 415 729 q 363 542 372 625 l 304 56 l 268 97 l 707 107 l 700 0 l 88 0 m 85 467 l 285 458 l 674 467 l 667 367 l 289 375 l 85 367 l 85 467 z "},"¤":{"ha":722,"x_min":65,"x_max":657,"o":"m 65 214 l 164 318 q 122 476 122 375 q 164 635 122 575 l 67 740 l 140 801 l 225 688 q 360 718 278 718 q 497 689 446 718 l 582 801 l 654 740 l 558 635 q 601 476 601 572 q 557 317 601 378 l 657 214 l 585 153 l 496 264 q 361 235 444 235 q 226 263 281 235 l 138 153 l 65 214 m 363 331 q 465 366 432 331 q 497 476 497 401 q 465 587 497 551 q 363 622 432 622 q 260 587 293 622 q 226 476 226 551 q 260 366 226 401 q 363 331 293 331 z "},"¥":{"ha":847,"x_min":88,"x_max":761,"o":"m 394 397 q 531 634 461 493 q 636 903 601 775 l 761 903 q 644 608 719 758 q 485 340 568 458 l 394 340 l 394 397 m 143 218 l 422 210 l 703 218 l 703 147 l 422 156 l 143 147 l 143 218 m 363 421 l 486 421 l 486 0 l 363 0 l 363 421 m 143 385 l 422 376 l 703 385 l 703 314 l 422 322 l 143 314 l 143 385 m 363 340 q 203 608 279 458 q 88 903 128 758 l 211 903 q 316 635 246 775 q 454 397 386 494 l 454 340 l 363 340 z "},"¦":{"ha":278,"x_min":83,"x_max":196,"o":"m 83 938 l 196 938 l 196 438 l 83 438 l 83 938 m 196 -256 l 83 -256 l 83 243 l 196 243 l 196 -256 z "},"§":{"ha":625,"x_min":40,"x_max":574,"o":"m 333 243 q 421 273 390 249 q 451 336 451 297 q 417 400 451 379 q 292 436 382 421 q 148 480 203 453 q 69 546 93 507 q 44 636 44 585 q 110 758 44 713 q 304 803 176 803 q 428 794 369 803 q 543 768 486 786 q 536 717 540 738 q 522 674 532 697 q 406 701 460 693 q 301 708 353 708 q 197 688 232 708 q 161 633 161 668 q 176 591 161 607 q 224 564 190 575 q 321 540 257 553 q 471 493 415 521 q 550 429 526 465 q 574 343 574 393 q 516 226 574 272 q 350 161 458 179 l 333 243 m 281 450 q 194 419 225 443 q 164 357 164 396 q 198 292 164 313 q 322 256 232 272 q 467 212 413 239 q 547 147 522 185 q 571 61 571 110 q 506 -65 571 -19 q 313 -111 442 -111 q 188 -99 247 -111 q 71 -62 129 -87 q 99 26 76 -19 q 217 -6 168 4 q 313 -17 267 -17 q 419 1 385 -17 q 454 60 454 19 q 421 116 454 97 q 294 151 388 135 q 144 199 200 171 q 64 263 88 226 q 40 350 40 300 q 99 467 40 421 q 265 532 157 514 l 281 450 z "},"¨":{"ha":875,"x_min":200,"x_max":671,"o":"m 281 803 q 222 822 244 803 q 200 872 200 840 q 222 922 200 903 q 281 940 244 940 q 338 922 315 940 q 360 872 360 903 q 338 822 360 840 q 281 803 317 803 m 592 803 q 533 822 556 803 q 511 872 511 840 q 533 922 511 903 q 592 940 556 940 q 649 922 626 940 q 671 872 671 903 q 649 822 671 840 q 592 803 628 803 z "},"©":{"ha":931,"x_min":67,"x_max":867,"o":"m 467 24 q 254 76 344 24 q 115 226 164 129 q 67 453 67 324 q 115 678 67 582 q 254 828 164 775 q 467 881 344 881 q 679 828 589 881 q 818 678 769 775 q 867 453 867 582 q 818 226 867 324 q 679 76 769 129 q 467 24 589 24 m 465 101 q 631 144 560 101 q 741 265 701 186 q 781 451 781 344 q 741 638 781 558 q 631 760 701 717 q 465 803 560 803 q 301 760 372 803 q 190 638 229 718 q 151 453 151 558 q 190 267 151 346 q 301 144 229 188 q 465 101 372 101 m 472 189 q 303 263 358 189 q 247 454 247 336 q 300 643 247 571 q 460 715 353 715 q 551 703 511 715 q 631 664 590 690 l 567 606 q 519 630 544 622 q 463 638 494 638 q 366 588 394 638 q 338 456 338 538 q 369 316 338 365 q 476 267 401 267 q 624 318 551 267 q 640 246 636 286 q 561 205 606 221 q 472 189 517 189 m 565 668 l 631 664 q 622 474 628 533 l 538 474 l 565 668 z "},"ª":{"ha":586,"x_min":36,"x_max":529,"o":"m 435 429 q 320 360 375 385 q 215 335 265 335 q 81 378 126 335 q 36 507 36 422 q 49 599 36 554 q 89 674 63 644 q 251 677 164 679 q 428 669 339 675 l 428 693 l 428 697 q 401 791 426 757 q 310 825 375 825 q 207 814 268 825 q 89 783 146 803 l 69 869 q 204 909 139 896 q 324 922 269 922 q 435 903 390 922 q 505 839 481 883 q 529 719 529 794 l 529 436 l 529 436 q 529 350 529 393 q 488 349 510 349 q 443 350 465 349 l 435 429 m 132 529 q 160 458 132 485 q 240 432 188 432 q 333 453 283 432 q 428 508 382 475 l 428 585 q 288 592 358 590 q 153 592 218 593 q 137 562 142 575 q 132 529 132 549 z "},"«":{"ha":847,"x_min":79,"x_max":786,"o":"m 79 294 l 79 393 l 399 667 l 453 606 l 179 344 l 453 82 l 399 21 l 79 294 m 406 315 l 406 372 l 732 667 l 786 606 l 513 344 l 786 82 l 732 21 l 406 315 z "},"¬":{"ha":750,"x_min":114,"x_max":643,"o":"m 521 85 l 521 303 l 114 303 l 114 411 l 643 411 l 643 85 l 521 85 z "},"­":{"ha":625,"x_min":88,"x_max":539,"o":"m 88 403 l 539 403 l 539 297 l 88 297 l 88 403 z "},"®":{"ha":806,"x_min":69,"x_max":738,"o":"m 404 235 q 228 277 304 235 q 111 397 153 319 q 69 578 69 474 q 111 760 69 682 q 228 880 153 838 q 404 922 304 922 q 578 880 503 922 q 696 760 654 838 q 738 578 738 682 q 696 397 738 474 q 578 277 654 319 q 404 235 503 235 m 403 311 q 535 343 478 311 q 625 435 593 375 q 657 578 657 496 q 625 722 657 661 q 535 814 593 782 q 403 846 478 846 q 270 814 328 846 q 181 722 213 782 q 149 578 149 661 q 181 435 149 496 q 270 343 213 375 q 403 311 328 311 m 310 590 l 404 596 q 462 612 443 597 q 481 654 481 626 q 462 695 481 682 q 404 708 443 708 l 311 708 l 326 776 l 404 776 q 519 745 479 776 q 560 656 560 714 q 519 567 560 600 q 404 531 479 535 l 310 525 l 310 590 m 474 386 q 388 544 440 469 l 463 556 q 558 386 515 479 l 474 386 m 257 699 l 257 722 l 257 721 l 257 776 l 332 776 l 332 386 l 257 386 l 257 699 z "},"¯":{"ha":875,"x_min":213,"x_max":650,"o":"m 213 888 l 650 888 l 650 794 l 432 804 l 213 794 l 213 888 z "},"°":{"ha":611,"x_min":83,"x_max":529,"o":"m 306 464 q 190 492 240 464 q 111 572 139 519 q 83 693 83 624 q 111 813 83 761 q 190 894 139 865 q 306 922 240 922 q 422 894 371 922 q 501 813 472 865 q 529 693 529 761 q 501 572 529 624 q 422 492 472 519 q 306 464 371 464 m 306 551 q 403 590 367 551 q 440 693 440 628 q 403 796 440 757 q 306 835 367 835 q 208 797 244 835 q 172 693 172 758 q 208 590 172 628 q 306 551 244 551 z "},"±":{"ha":625,"x_min":60,"x_max":565,"o":"m 264 476 l 260 729 l 365 729 l 363 476 l 365 224 l 260 224 l 264 476 m 60 529 l 313 526 l 565 529 l 565 424 l 313 428 l 60 424 l 60 529 m 60 147 l 565 147 l 565 52 l 60 52 l 60 147 z "},"²":{"ha":597,"x_min":32,"x_max":539,"o":"m 32 481 q 261 671 182 600 q 356 764 325 728 q 397 821 388 800 q 406 860 406 842 q 380 921 406 900 q 304 942 354 942 q 206 929 257 942 q 126 896 156 917 l 90 993 q 191 1026 129 1013 q 311 1039 253 1039 q 458 995 406 1039 q 511 878 511 951 q 480 769 511 824 q 360 631 449 715 q 99 413 272 547 l 32 481 m 147 528 l 533 506 l 539 415 l 144 461 l 147 528 m 468 458 l 458 599 l 539 599 l 539 415 l 468 458 m 193 804 l 103 804 l 90 993 l 160 988 l 193 804 z "},"³":{"ha":533,"x_min":36,"x_max":488,"o":"m 236 411 q 137 420 188 411 q 36 449 86 429 l 53 533 q 141 516 96 522 q 235 510 186 510 q 345 536 308 510 q 382 610 382 563 q 353 676 382 653 q 269 706 324 699 q 239 708 250 708 l 146 701 l 146 786 l 242 785 q 423 740 358 785 q 488 607 488 694 q 422 463 488 515 q 236 411 356 411 m 67 1026 l 365 1026 l 383 940 l 61 931 l 67 1026 m 458 963 q 414 856 449 915 q 333 747 379 797 l 261 767 q 331 890 304 825 q 363 1026 357 954 l 435 1026 l 458 963 z "},"´":{"ha":833,"x_min":264,"x_max":539,"o":"m 315 785 l 264 829 l 447 1038 l 539 960 l 315 785 z "},"µ":{"ha":806,"x_min":113,"x_max":685,"o":"m 232 265 q 261 141 232 178 q 361 104 290 104 q 464 128 407 104 q 593 200 521 151 l 596 93 q 494 31 544 56 q 396 -7 444 6 q 301 -19 347 -19 q 158 33 203 -19 q 113 194 113 85 l 113 664 l 232 664 l 232 265 m 685 110 l 685 110 q 685 1 685 56 q 585 0 643 -4 l 565 150 l 565 664 l 685 664 l 685 110 m 203 194 l 236 -193 l 113 -193 l 113 194 l 203 194 z "},"¶":{"ha":806,"x_min":53,"x_max":685,"o":"m 589 -132 l 589 299 l 442 306 l 442 -132 l 346 -132 l 346 311 q 128 399 204 325 q 53 603 53 472 q 138 824 53 746 q 379 903 224 903 l 589 903 l 685 903 q 685 782 685 843 l 685 776 l 685 771 l 685 -132 l 589 -132 m 169 603 q 215 471 169 519 q 346 411 261 422 l 346 799 q 216 740 263 792 q 169 603 169 689 m 589 397 l 589 800 l 442 800 l 442 404 l 589 397 z "},"·":{"ha":486,"x_min":126,"x_max":303,"o":"m 215 267 q 150 288 174 267 q 126 344 126 308 q 150 400 126 379 q 215 421 174 421 q 279 400 256 421 q 303 344 303 379 q 279 288 303 308 q 215 267 256 267 z "},"¸":{"ha":875,"x_min":315,"x_max":486,"o":"m 315 -237 l 403 11 l 486 7 l 428 -257 l 315 -237 z "},"¹":{"ha":542,"x_min":68,"x_max":474,"o":"m 75 972 l 240 1029 l 328 1029 l 328 515 l 474 529 l 474 428 l 68 428 l 68 529 l 225 517 l 225 929 l 96 867 l 75 972 z "},"º":{"ha":669,"x_min":47,"x_max":622,"o":"m 336 329 q 183 365 247 329 q 83 467 118 400 q 47 624 47 533 q 83 781 47 714 q 183 885 118 849 q 336 921 247 921 q 488 885 424 921 q 588 781 553 849 q 622 624 622 714 q 588 467 622 533 q 488 365 553 400 q 336 329 424 329 m 335 424 q 468 474 421 424 q 515 624 515 525 q 468 776 515 725 q 335 826 421 826 q 203 776 250 826 q 156 624 156 725 q 203 474 156 525 q 335 424 250 424 z "},"»":{"ha":847,"x_min":61,"x_max":768,"o":"m 394 82 l 668 344 l 394 606 l 449 667 l 768 393 l 768 294 l 449 21 l 394 82 m 61 82 l 335 344 l 61 606 l 115 667 l 442 372 l 442 315 l 115 21 l 61 82 z "},"¼":{"ha":556,"x_min":60,"x_max":540,"o":"m 540 499 l 540 436 l 60 436 l 60 499 l 540 499 m 118 153 l 336 386 l 375 349 l 176 140 l 140 106 l 118 153 m 231 42 l 381 29 l 503 44 l 503 -21 l 231 -21 l 231 42 m 336 374 l 336 386 l 415 386 l 415 -1 l 336 -1 l 336 374 m 381 157 l 496 165 l 496 106 l 140 106 l 153 160 l 381 157 z "},"½":{"ha":556,"x_min":53,"x_max":533,"o":"m 533 500 l 533 438 l 53 438 l 53 500 l 533 500 m 122 29 q 292 161 235 111 q 368 237 350 211 q 386 282 386 263 q 368 315 386 303 q 317 326 350 326 q 256 318 289 326 q 201 296 222 310 l 179 372 q 247 394 208 386 q 325 403 285 403 q 430 374 392 403 q 468 296 468 344 q 447 219 468 257 q 363 126 425 182 q 178 -24 301 69 l 122 29 m 207 72 l 483 50 l 485 -22 l 204 10 l 207 72 m 432 13 l 426 110 l 485 111 l 485 47 l 432 13 m 253 242 l 189 235 l 179 372 l 228 372 l 253 242 z "},"¾":{"ha":556,"x_min":60,"x_max":540,"o":"m 540 499 l 540 436 l 60 436 l 60 499 l 540 499 m 118 153 l 336 386 l 375 349 l 176 140 l 140 106 l 118 153 m 231 42 l 381 29 l 503 44 l 503 -21 l 231 -21 l 231 42 m 336 374 l 336 386 l 415 386 l 415 -1 l 336 -1 l 336 374 m 381 157 l 496 165 l 496 106 l 140 106 l 153 160 l 381 157 z "},"¿":{"ha":556,"x_min":58,"x_max":497,"o":"m 422 281 q 287 198 339 236 q 208 119 235 160 q 181 31 181 78 q 256 -87 181 -43 q 497 -136 331 -131 l 492 -243 q 254 -208 351 -240 q 108 -118 157 -176 q 58 22 58 -60 q 103 160 58 99 q 213 269 147 222 q 376 369 278 315 l 422 281 m 354 681 q 419 660 396 681 q 443 603 443 639 q 419 547 443 568 q 354 526 396 526 q 290 547 314 526 q 267 603 267 568 q 290 660 267 639 q 354 681 314 681 z "},"À":{"ha":875,"x_min":42,"x_max":833,"o":"m 42 0 q 164 422 86 185 q 335 903 242 658 l 540 903 q 712 419 636 653 q 833 0 788 185 l 704 0 q 638 238 657 175 l 238 238 q 171 0 189 72 l 42 0 m 611 342 q 535 575 572 465 q 458 789 497 685 l 417 789 q 337 565 376 679 q 264 342 297 450 l 611 342 m 331 1172 l 593 1043 l 551 965 l 285 1057 l 331 1172 z "},"Á":{"ha":875,"x_min":42,"x_max":833,"o":"m 42 0 q 164 422 86 185 q 335 903 242 658 l 540 903 q 712 419 636 653 q 833 0 788 185 l 704 0 q 638 238 657 175 l 238 238 q 171 0 189 72 l 42 0 m 611 342 q 535 575 572 465 q 458 789 497 685 l 417 789 q 337 565 376 679 q 264 342 297 450 l 611 342 m 329 965 l 288 1043 l 550 1172 l 596 1057 l 329 965 z "},"Â":{"ha":875,"x_min":42,"x_max":833,"o":"m 42 0 q 164 422 86 185 q 335 903 242 658 l 540 903 q 712 419 636 653 q 833 0 788 185 l 704 0 q 638 238 657 175 l 238 238 q 171 0 189 72 l 42 0 m 611 342 q 535 575 572 465 q 458 789 497 685 l 417 789 q 337 565 376 679 q 264 342 297 450 l 611 342 m 213 1026 l 418 1179 l 463 1179 l 668 1026 l 617 960 l 440 1079 l 263 960 l 213 1026 z "},"Ã":{"ha":875,"x_min":42,"x_max":833,"o":"m 42 0 q 164 422 86 185 q 335 903 242 658 l 540 903 q 712 419 636 653 q 833 0 788 185 l 704 0 q 638 238 657 175 l 238 238 q 171 0 189 72 l 42 0 m 611 342 q 535 575 572 465 q 458 789 497 685 l 417 789 q 337 565 376 679 q 264 342 297 450 l 611 342 m 531 979 q 485 991 510 979 q 428 1025 460 1003 q 376 1056 392 1047 q 344 1064 360 1064 q 300 1041 319 1064 q 257 969 281 1018 l 207 990 q 275 1109 242 1071 q 350 1147 308 1147 q 394 1136 371 1147 q 451 1103 418 1125 q 501 1074 482 1083 q 536 1064 521 1064 q 578 1088 558 1064 q 621 1158 599 1111 l 672 1138 q 604 1018 638 1057 q 531 979 571 979 z "},"Ä":{"ha":875,"x_min":42,"x_max":833,"o":"m 42 0 q 164 422 86 185 q 335 903 242 658 l 540 903 q 712 419 636 653 q 833 0 788 185 l 704 0 q 638 238 657 175 l 238 238 q 171 0 189 72 l 42 0 m 611 342 q 535 575 572 465 q 458 789 497 685 l 417 789 q 337 565 376 679 q 264 342 297 450 l 611 342 m 300 979 q 237 999 260 979 q 214 1054 214 1019 q 237 1107 214 1088 q 300 1126 260 1126 q 362 1107 339 1126 q 385 1054 385 1088 q 363 999 385 1019 q 300 979 340 979 m 582 979 q 518 999 542 979 q 494 1054 494 1019 q 518 1107 494 1088 q 582 1126 542 1126 q 643 1107 621 1126 q 665 1054 665 1088 q 643 999 665 1019 q 582 979 621 979 z "},"Å":{"ha":875,"x_min":42,"x_max":833,"o":"m 42 0 q 164 422 86 185 q 335 903 242 658 l 540 903 q 712 419 636 653 q 833 0 788 185 l 704 0 q 638 238 657 175 l 238 238 q 171 0 189 72 l 42 0 m 611 342 q 535 575 572 465 q 458 789 497 685 l 417 789 q 337 565 376 679 q 264 342 297 450 l 611 342 m 440 933 q 324 971 367 933 q 281 1074 281 1008 q 324 1174 281 1138 q 440 1211 367 1211 q 556 1174 514 1211 q 599 1074 599 1138 q 556 971 599 1008 q 440 933 514 933 m 442 1010 q 498 1026 478 1010 q 518 1074 518 1043 q 497 1118 518 1101 q 442 1135 476 1135 q 383 1118 404 1135 q 361 1074 361 1101 q 383 1026 361 1043 q 442 1010 404 1010 z "},"Æ":{"ha":1194,"x_min":32,"x_max":1133,"o":"m 32 0 q 230 479 135 265 q 426 903 325 693 l 617 903 l 526 851 q 397 571 465 726 q 256 236 328 415 q 163 0 232 179 l 32 0 m 215 332 l 660 332 l 660 222 l 196 222 l 215 332 m 665 104 l 1133 113 l 1126 0 l 600 0 l 665 104 m 565 772 l 565 903 l 690 903 l 690 0 l 565 0 l 565 772 m 674 421 l 674 515 l 1044 525 l 1044 414 l 674 421 m 476 903 l 660 903 l 663 810 l 468 810 l 476 903 m 665 799 l 671 903 l 1113 903 l 1119 792 l 665 799 z "},"Ç":{"ha":778,"x_min":69,"x_max":738,"o":"m 488 -19 q 262 38 356 -19 q 119 201 168 94 q 69 457 69 308 q 119 706 69 601 q 263 867 169 811 q 483 922 357 922 q 607 913 553 922 q 736 879 661 903 l 713 772 q 625 793 667 785 l 625 793 q 553 803 585 800 q 490 807 521 807 q 334 765 400 807 q 233 645 268 724 q 197 458 197 567 q 231 265 197 346 q 332 140 265 183 q 493 96 399 96 q 607 107 547 96 q 713 132 667 118 l 738 24 q 608 -10 663 0 q 488 -19 553 -19 m 331 -232 l 418 17 l 501 14 l 443 -251 l 331 -232 z "},"È":{"ha":750,"x_min":129,"x_max":697,"o":"m 129 772 l 129 903 l 253 903 l 253 0 l 129 0 l 129 772 m 229 104 l 697 113 l 690 0 l 164 0 l 229 104 m 236 421 l 236 515 l 608 525 l 608 414 l 236 421 m 136 903 l 232 903 l 232 808 l 136 785 l 136 903 m 229 799 l 235 903 l 676 903 l 683 792 l 229 799 m 299 1172 l 561 1043 l 519 965 l 253 1057 l 299 1172 z "},"É":{"ha":750,"x_min":129,"x_max":697,"o":"m 129 772 l 129 903 l 253 903 l 253 0 l 129 0 l 129 772 m 229 104 l 697 113 l 690 0 l 164 0 l 229 104 m 236 421 l 236 515 l 608 525 l 608 414 l 236 421 m 136 903 l 232 903 l 232 808 l 136 785 l 136 903 m 229 799 l 235 903 l 676 903 l 683 792 l 229 799 m 297 965 l 256 1043 l 518 1172 l 564 1057 l 297 965 z "},"Ê":{"ha":750,"x_min":129,"x_max":697,"o":"m 129 772 l 129 903 l 253 903 l 253 0 l 129 0 l 129 772 m 229 104 l 697 113 l 690 0 l 164 0 l 229 104 m 236 421 l 236 515 l 608 525 l 608 414 l 236 421 m 136 903 l 232 903 l 232 808 l 136 785 l 136 903 m 229 799 l 235 903 l 676 903 l 683 792 l 229 799 m 181 1026 l 386 1179 l 431 1179 l 636 1026 l 585 960 l 408 1079 l 231 960 l 181 1026 z "},"Ë":{"ha":750,"x_min":129,"x_max":697,"o":"m 129 772 l 129 903 l 253 903 l 253 0 l 129 0 l 129 772 m 229 104 l 697 113 l 690 0 l 164 0 l 229 104 m 236 421 l 236 515 l 608 525 l 608 414 l 236 421 m 136 903 l 232 903 l 232 808 l 136 785 l 136 903 m 229 799 l 235 903 l 676 903 l 683 792 l 229 799 m 268 979 q 205 999 228 979 q 182 1054 182 1019 q 205 1107 182 1088 q 268 1126 228 1126 q 330 1107 307 1126 q 353 1054 353 1088 q 331 999 353 1019 q 268 979 308 979 m 550 979 q 486 999 510 979 q 463 1054 463 1019 q 486 1107 463 1088 q 550 1126 510 1126 q 611 1107 589 1126 q 633 1054 633 1088 q 611 999 633 1019 q 550 979 589 979 z "},"Ì":{"ha":625,"x_min":57,"x_max":567,"o":"m 251 903 l 375 903 l 375 0 l 251 0 l 251 903 m 57 110 l 313 103 l 567 110 l 564 0 l 61 0 l 57 110 m 61 903 l 564 903 l 567 794 l 313 801 l 57 794 l 61 903 m 203 1172 l 465 1043 l 424 965 l 157 1057 l 203 1172 z "},"Í":{"ha":625,"x_min":57,"x_max":567,"o":"m 251 903 l 375 903 l 375 0 l 251 0 l 251 903 m 57 110 l 313 103 l 567 110 l 564 0 l 61 0 l 57 110 m 61 903 l 564 903 l 567 794 l 313 801 l 57 794 l 61 903 m 201 965 l 160 1043 l 422 1172 l 468 1057 l 201 965 z "},"Î":{"ha":625,"x_min":57,"x_max":567,"o":"m 251 903 l 375 903 l 375 0 l 251 0 l 251 903 m 57 110 l 313 103 l 567 110 l 564 0 l 61 0 l 57 110 m 61 903 l 564 903 l 567 794 l 313 801 l 57 794 l 61 903 m 85 1026 l 290 1179 l 335 1179 l 540 1026 l 489 960 l 313 1079 l 135 960 l 85 1026 z "},"Ï":{"ha":625,"x_min":57,"x_max":567,"o":"m 251 903 l 375 903 l 375 0 l 251 0 l 251 903 m 57 110 l 313 103 l 567 110 l 564 0 l 61 0 l 57 110 m 61 903 l 564 903 l 567 794 l 313 801 l 57 794 l 61 903 m 172 979 q 109 999 132 979 q 86 1054 86 1019 q 109 1107 86 1088 q 172 1126 132 1126 q 234 1107 211 1126 q 257 1054 257 1088 q 235 999 257 1019 q 172 979 213 979 m 454 979 q 390 999 414 979 q 367 1054 367 1019 q 390 1107 367 1088 q 454 1126 414 1126 q 515 1107 493 1126 q 538 1054 538 1088 q 515 999 538 1019 q 454 979 493 979 z "},"Ð":{"ha":903,"x_min":46,"x_max":853,"o":"m 124 746 l 124 792 l 124 792 q 124 903 124 847 l 403 903 q 642 848 540 903 q 798 691 743 793 q 853 451 853 589 q 798 212 853 314 q 642 55 743 110 q 403 0 540 0 l 124 0 l 124 746 m 401 111 q 572 153 499 111 q 684 272 644 194 q 724 451 724 349 q 684 631 724 554 q 572 749 644 708 q 401 790 499 790 l 244 790 l 244 111 l 401 111 m 47 497 q 444 497 246 493 q 444 401 444 450 q 47 401 246 406 q 47 497 46 450 z "},"Ñ":{"ha":958,"x_min":131,"x_max":829,"o":"m 131 903 l 244 903 l 725 178 l 713 175 l 706 903 l 829 903 l 829 0 l 717 0 l 235 724 l 246 728 l 253 0 l 131 0 l 131 903 m 569 979 q 524 991 549 979 q 467 1025 499 1003 q 415 1056 431 1047 q 383 1064 399 1064 q 339 1041 358 1064 q 296 969 319 1018 l 246 990 q 314 1109 281 1071 q 389 1147 347 1147 q 433 1136 410 1147 q 490 1103 457 1125 q 540 1074 521 1083 q 575 1064 560 1064 q 617 1088 597 1064 q 660 1158 638 1111 l 711 1138 q 643 1018 676 1057 q 569 979 610 979 z "},"Ò":{"ha":944,"x_min":71,"x_max":874,"o":"m 472 -19 q 260 38 351 -19 q 120 202 169 96 q 71 451 71 308 q 120 701 71 594 q 260 865 169 807 q 472 922 351 922 q 684 865 593 922 q 824 701 775 807 q 874 451 874 594 q 824 202 874 308 q 684 38 775 96 q 472 -19 593 -19 m 471 97 q 617 141 554 97 q 713 265 679 185 q 747 451 747 344 q 713 639 747 558 q 617 763 679 719 q 471 807 554 807 q 325 764 388 807 q 229 640 263 721 q 196 451 196 560 q 229 264 196 344 q 325 140 263 183 q 471 97 388 97 m 361 1172 l 624 1043 l 582 965 l 315 1057 l 361 1172 z "},"Ó":{"ha":944,"x_min":71,"x_max":874,"o":"m 472 -19 q 260 38 351 -19 q 120 202 169 96 q 71 451 71 308 q 120 701 71 594 q 260 865 169 807 q 472 922 351 922 q 684 865 593 922 q 824 701 775 807 q 874 451 874 594 q 824 202 874 308 q 684 38 775 96 q 472 -19 593 -19 m 471 97 q 617 141 554 97 q 713 265 679 185 q 747 451 747 344 q 713 639 747 558 q 617 763 679 719 q 471 807 554 807 q 325 764 388 807 q 229 640 263 721 q 196 451 196 560 q 229 264 196 344 q 325 140 263 183 q 471 97 388 97 m 360 965 l 318 1043 l 581 1172 l 626 1057 l 360 965 z "},"Ô":{"ha":944,"x_min":71,"x_max":874,"o":"m 472 -19 q 260 38 351 -19 q 120 202 169 96 q 71 451 71 308 q 120 701 71 594 q 260 865 169 807 q 472 922 351 922 q 684 865 593 922 q 824 701 775 807 q 874 451 874 594 q 824 202 874 308 q 684 38 775 96 q 472 -19 593 -19 m 471 97 q 617 141 554 97 q 713 265 679 185 q 747 451 747 344 q 713 639 747 558 q 617 763 679 719 q 471 807 554 807 q 325 764 388 807 q 229 640 263 721 q 196 451 196 560 q 229 264 196 344 q 325 140 263 183 q 471 97 388 97 m 243 1026 l 449 1179 l 493 1179 l 699 1026 l 647 960 l 471 1079 l 293 960 l 243 1026 z "},"Õ":{"ha":944,"x_min":71,"x_max":874,"o":"m 472 -19 q 260 38 351 -19 q 120 202 169 96 q 71 451 71 308 q 120 701 71 594 q 260 865 169 807 q 472 922 351 922 q 684 865 593 922 q 824 701 775 807 q 874 451 874 594 q 824 202 874 308 q 684 38 775 96 q 472 -19 593 -19 m 471 97 q 617 141 554 97 q 713 265 679 185 q 747 451 747 344 q 713 639 747 558 q 617 763 679 719 q 471 807 554 807 q 325 764 388 807 q 229 640 263 721 q 196 451 196 560 q 229 264 196 344 q 325 140 263 183 q 471 97 388 97 m 561 979 q 515 991 540 979 q 458 1025 490 1003 q 406 1056 422 1047 q 375 1064 390 1064 q 331 1041 350 1064 q 288 969 311 1018 l 238 990 q 306 1109 272 1071 q 381 1147 339 1147 q 425 1136 401 1147 q 482 1103 449 1125 q 532 1074 513 1083 q 567 1064 551 1064 q 609 1088 589 1064 q 651 1158 629 1111 l 703 1138 q 635 1018 668 1057 q 561 979 601 979 z "},"Ö":{"ha":944,"x_min":71,"x_max":874,"o":"m 472 -19 q 260 38 351 -19 q 120 202 169 96 q 71 451 71 308 q 120 701 71 594 q 260 865 169 807 q 472 922 351 922 q 684 865 593 922 q 824 701 775 807 q 874 451 874 594 q 824 202 874 308 q 684 38 775 96 q 472 -19 593 -19 m 471 97 q 617 141 554 97 q 713 265 679 185 q 747 451 747 344 q 713 639 747 558 q 617 763 679 719 q 471 807 554 807 q 325 764 388 807 q 229 640 263 721 q 196 451 196 560 q 229 264 196 344 q 325 140 263 183 q 471 97 388 97 m 331 979 q 267 999 290 979 q 244 1054 244 1019 q 267 1107 244 1088 q 331 1126 290 1126 q 392 1107 369 1126 q 415 1054 415 1088 q 393 999 415 1019 q 331 979 371 979 m 613 979 q 549 999 572 979 q 525 1054 525 1019 q 549 1107 525 1088 q 613 1126 572 1126 q 674 1107 651 1126 q 696 1054 696 1088 q 674 999 696 1019 q 613 979 651 979 z "},"×":{"ha":625,"x_min":118,"x_max":507,"o":"m 193 544 l 347 385 l 507 231 l 433 156 l 278 315 l 118 471 l 193 544 m 278 386 l 433 544 l 507 471 l 347 315 l 193 156 l 118 231 l 278 386 z "},"Ø":{"ha":944,"x_min":57,"x_max":878,"o":"m 472 -19 q 260 38 351 -19 q 120 202 169 96 q 71 451 71 308 q 120 701 71 594 q 260 865 169 807 q 472 922 351 922 q 684 865 593 922 q 824 701 775 807 q 874 451 874 594 q 824 202 874 308 q 684 38 775 96 q 472 -19 593 -19 m 471 97 q 617 141 554 97 q 713 265 679 185 q 747 451 747 344 q 713 639 747 558 q 617 763 679 719 q 471 807 554 807 q 325 764 388 807 q 229 640 263 721 q 196 451 196 560 q 229 264 196 344 q 325 140 263 183 q 471 97 388 97 m 57 14 l 799 954 l 878 892 l 138 -49 l 57 14 z "},"Ù":{"ha":917,"x_min":101,"x_max":817,"o":"m 458 -19 q 193 79 285 -19 q 101 363 101 178 l 101 903 l 225 903 l 225 363 q 283 166 225 233 q 458 99 342 99 q 631 166 571 99 q 692 363 692 233 l 692 903 l 817 903 l 817 363 q 722 80 817 179 q 458 -19 628 -19 m 349 1172 l 611 1043 l 569 965 l 303 1057 l 349 1172 z "},"Ú":{"ha":917,"x_min":101,"x_max":817,"o":"m 458 -19 q 193 79 285 -19 q 101 363 101 178 l 101 903 l 225 903 l 225 363 q 283 166 225 233 q 458 99 342 99 q 631 166 571 99 q 692 363 692 233 l 692 903 l 817 903 l 817 363 q 722 80 817 179 q 458 -19 628 -19 m 347 965 l 306 1043 l 568 1172 l 614 1057 l 347 965 z "},"Û":{"ha":917,"x_min":101,"x_max":817,"o":"m 458 -19 q 193 79 285 -19 q 101 363 101 178 l 101 903 l 225 903 l 225 363 q 283 166 225 233 q 458 99 342 99 q 631 166 571 99 q 692 363 692 233 l 692 903 l 817 903 l 817 363 q 722 80 817 179 q 458 -19 628 -19 m 231 1026 l 436 1179 l 481 1179 l 686 1026 l 635 960 l 458 1079 l 281 960 l 231 1026 z "},"Ü":{"ha":917,"x_min":101,"x_max":817,"o":"m 458 -19 q 193 79 285 -19 q 101 363 101 178 l 101 903 l 225 903 l 225 363 q 283 166 225 233 q 458 99 342 99 q 631 166 571 99 q 692 363 692 233 l 692 903 l 817 903 l 817 363 q 722 80 817 179 q 458 -19 628 -19 m 318 979 q 255 999 278 979 q 232 1054 232 1019 q 255 1107 232 1088 q 318 1126 278 1126 q 380 1107 357 1126 q 403 1054 403 1088 q 381 999 403 1019 q 318 979 358 979 m 600 979 q 536 999 560 979 q 513 1054 513 1019 q 536 1107 513 1088 q 600 1126 560 1126 q 661 1107 639 1126 q 683 1054 683 1088 q 661 999 683 1019 q 600 979 639 979 z "},"Ý":{"ha":833,"x_min":50,"x_max":785,"o":"m 364 303 l 469 303 l 482 0 l 351 0 l 364 303 m 453 376 q 567 636 513 499 q 657 903 621 774 l 785 903 q 677 603 743 764 q 536 290 611 443 l 451 290 l 453 376 m 314 400 l 524 400 l 522 290 l 313 290 l 314 400 m 299 290 q 155 597 221 438 q 50 903 89 757 l 176 903 q 264 637 210 774 q 382 376 318 500 l 383 290 l 299 290 m 307 965 l 265 1043 l 528 1172 l 574 1057 l 307 965 z "},"Þ":{"ha":819,"x_min":131,"x_max":750,"o":"m 215 267 l 433 267 q 576 318 525 267 q 628 460 628 369 q 576 604 628 553 q 435 656 525 656 l 219 656 l 219 767 l 428 767 q 665 685 579 767 q 750 460 750 604 q 665 236 750 317 q 428 156 579 156 l 215 156 l 215 267 m 131 789 l 131 903 l 254 903 l 254 0 l 131 0 l 131 789 m 142 903 l 228 903 l 228 815 l 142 792 l 142 903 z "},"ß":{"ha":903,"x_min":72,"x_max":808,"o":"m 592 -19 q 503 -10 546 -19 q 415 15 461 -1 l 439 118 q 512 94 476 101 q 579 86 547 86 q 660 117 629 86 q 690 201 690 149 q 677 260 690 235 q 646 304 664 286 q 594 350 628 322 q 517 427 543 392 q 490 519 490 463 q 506 596 490 567 q 550 657 521 625 q 590 712 576 688 q 603 774 603 736 q 569 851 603 824 q 472 879 536 879 q 347 826 386 879 q 307 654 307 774 l 307 0 l 188 0 l 188 665 q 259 904 188 826 q 471 982 331 982 q 658 927 596 982 q 719 793 719 872 q 702 693 719 729 q 651 618 685 657 q 617 574 628 592 q 607 529 607 556 q 625 477 607 500 q 685 417 643 454 q 749 356 724 383 q 791 290 774 329 q 808 200 808 251 q 780 85 808 135 q 702 8 751 35 q 592 -19 653 -19 m 72 664 l 254 664 l 233 568 l 72 546 l 72 664 z "},"à":{"ha":736,"x_min":82,"x_max":640,"o":"m 531 78 q 413 7 476 33 q 289 -19 349 -19 q 138 35 193 -19 q 82 189 82 90 q 94 287 82 238 q 129 383 106 336 q 307 386 217 388 q 524 379 397 385 l 524 408 l 524 413 q 511 499 522 463 q 471 555 500 535 q 393 575 442 575 q 285 561 349 575 q 147 521 222 547 q 119 622 133 572 q 274 666 200 651 q 407 681 347 681 q 533 657 482 681 q 613 580 585 633 q 640 439 640 526 l 640 99 l 640 99 q 640 0 640 50 q 594 -3 619 -3 q 543 0 568 -3 l 531 78 m 197 196 q 225 115 197 144 q 310 85 253 85 q 414 110 361 85 q 524 179 467 136 l 524 282 q 213 289 339 293 q 201 244 204 265 q 197 196 197 222 m 196 926 q 240 969 218 951 q 288 1001 263 988 l 471 807 l 415 756 l 196 926 z "},"á":{"ha":736,"x_min":82,"x_max":640,"o":"m 531 78 q 413 7 476 33 q 289 -19 349 -19 q 138 35 193 -19 q 82 189 82 90 q 94 287 82 238 q 129 383 106 336 q 307 386 217 388 q 524 379 397 385 l 524 408 l 524 413 q 511 499 522 463 q 471 555 500 535 q 393 575 442 575 q 285 561 349 575 q 147 521 222 547 q 119 622 133 572 q 274 666 200 651 q 407 681 347 681 q 533 657 482 681 q 613 580 585 633 q 640 439 640 526 l 640 99 l 640 99 q 640 0 640 50 q 594 -3 619 -3 q 543 0 568 -3 l 531 78 m 197 196 q 225 115 197 144 q 310 85 253 85 q 414 110 361 85 q 524 179 467 136 l 524 282 q 213 289 339 293 q 201 244 204 265 q 197 196 197 222 m 354 756 l 299 807 l 482 1001 q 529 969 507 988 q 574 926 551 951 l 354 756 z "},"â":{"ha":736,"x_min":82,"x_max":640,"o":"m 531 78 q 413 7 476 33 q 289 -19 349 -19 q 138 35 193 -19 q 82 189 82 90 q 94 287 82 238 q 129 383 106 336 q 307 386 217 388 q 524 379 397 385 l 524 408 l 524 413 q 511 499 522 463 q 471 555 500 535 q 393 575 442 575 q 285 561 349 575 q 147 521 222 547 q 119 622 133 572 q 274 666 200 651 q 407 681 347 681 q 533 657 482 681 q 613 580 585 633 q 640 439 640 526 l 640 99 l 640 99 q 640 0 640 50 q 594 -3 619 -3 q 543 0 568 -3 l 531 78 m 197 196 q 225 115 197 144 q 310 85 253 85 q 414 110 361 85 q 524 179 467 136 l 524 282 q 213 289 339 293 q 201 244 204 265 q 197 196 197 222 m 157 804 l 363 971 l 407 971 l 613 804 l 561 738 l 385 864 l 207 738 l 157 804 z "},"ã":{"ha":736,"x_min":82,"x_max":640,"o":"m 531 78 q 413 7 476 33 q 289 -19 349 -19 q 138 35 193 -19 q 82 189 82 90 q 94 287 82 238 q 129 383 106 336 q 307 386 217 388 q 524 379 397 385 l 524 408 l 524 413 q 511 499 522 463 q 471 555 500 535 q 393 575 442 575 q 285 561 349 575 q 147 521 222 547 q 119 622 133 572 q 274 666 200 651 q 407 681 347 681 q 533 657 482 681 q 613 580 585 633 q 640 439 640 526 l 640 99 l 640 99 q 640 0 640 50 q 594 -3 619 -3 q 543 0 568 -3 l 531 78 m 197 196 q 225 115 197 144 q 310 85 253 85 q 414 110 361 85 q 524 179 467 136 l 524 282 q 213 289 339 293 q 201 244 204 265 q 197 196 197 222 m 489 806 q 435 816 461 806 q 368 847 408 826 q 325 867 346 858 q 289 876 304 876 q 242 859 263 876 q 199 799 222 842 l 135 833 q 203 941 169 908 q 281 974 238 974 q 335 963 307 974 q 400 933 363 953 q 448 911 431 918 q 481 904 465 904 q 525 922 504 904 q 568 982 546 940 l 633 947 q 565 838 599 871 q 489 806 531 806 z "},"ä":{"ha":736,"x_min":82,"x_max":640,"o":"m 531 78 q 413 7 476 33 q 289 -19 349 -19 q 138 35 193 -19 q 82 189 82 90 q 94 287 82 238 q 129 383 106 336 q 307 386 217 388 q 524 379 397 385 l 524 408 l 524 413 q 511 499 522 463 q 471 555 500 535 q 393 575 442 575 q 285 561 349 575 q 147 521 222 547 q 119 622 133 572 q 274 666 200 651 q 407 681 347 681 q 533 657 482 681 q 613 580 585 633 q 640 439 640 526 l 640 99 l 640 99 q 640 0 640 50 q 594 -3 619 -3 q 543 0 568 -3 l 531 78 m 197 196 q 225 115 197 144 q 310 85 253 85 q 414 110 361 85 q 524 179 467 136 l 524 282 q 213 289 339 293 q 201 244 204 265 q 197 196 197 222 m 501 811 q 438 831 461 811 q 414 886 414 851 q 438 939 414 919 q 501 958 461 958 q 563 939 540 958 q 585 886 585 919 q 563 831 585 851 q 501 811 540 811 m 263 811 q 199 831 222 811 q 176 886 176 851 q 199 939 176 919 q 263 958 222 958 q 324 939 301 958 q 347 886 347 919 q 325 831 347 851 q 263 811 303 811 z "},"å":{"ha":736,"x_min":82,"x_max":640,"o":"m 531 78 q 413 7 476 33 q 289 -19 349 -19 q 138 35 193 -19 q 82 189 82 90 q 94 287 82 238 q 129 383 106 336 q 307 386 217 388 q 524 379 397 385 l 524 408 l 524 413 q 511 499 522 463 q 471 555 500 535 q 393 575 442 575 q 285 561 349 575 q 147 521 222 547 q 119 622 133 572 q 274 666 200 651 q 407 681 347 681 q 533 657 482 681 q 613 580 585 633 q 640 439 640 526 l 640 99 l 640 99 q 640 0 640 50 q 594 -3 619 -3 q 543 0 568 -3 l 531 78 m 197 196 q 225 115 197 144 q 310 85 253 85 q 414 110 361 85 q 524 179 467 136 l 524 282 q 213 289 339 293 q 201 244 204 265 q 197 196 197 222 m 385 738 q 269 777 313 738 q 225 882 225 817 q 269 987 225 947 q 385 1026 313 1026 q 499 987 456 1026 q 543 882 543 947 q 499 777 543 817 q 385 738 456 738 m 386 803 q 449 824 425 803 q 472 882 472 846 q 449 940 472 918 q 386 961 425 961 q 321 940 346 961 q 296 882 296 918 q 321 824 296 846 q 386 803 346 803 z "},"æ":{"ha":1167,"x_min":88,"x_max":1099,"o":"m 507 408 q 495 495 507 458 q 457 553 483 532 q 389 574 431 574 q 286 560 347 574 q 154 521 225 547 l 125 622 q 274 667 201 653 q 404 681 347 681 q 515 658 472 681 q 581 581 558 635 q 603 439 603 528 l 603 326 l 507 306 l 507 408 m 289 -19 q 144 35 201 -19 q 88 186 88 89 q 99 286 88 236 q 133 381 111 336 l 532 381 l 524 290 l 218 289 q 207 244 211 267 q 203 196 203 222 q 231 115 203 144 q 315 85 258 85 q 433 115 375 85 q 560 206 492 146 l 585 119 q 440 17 514 53 q 289 -19 367 -19 m 832 -19 q 665 22 739 -19 q 550 135 590 63 l 543 149 q 519 224 526 181 q 511 324 511 267 l 511 332 q 549 522 511 443 q 653 642 586 601 q 806 683 719 683 q 960 641 893 683 q 1063 523 1026 599 q 1099 350 1099 447 q 1096 297 1099 314 l 989 317 q 990 336 990 326 q 967 470 990 415 q 903 553 944 525 q 804 581 861 581 q 707 553 749 581 q 642 471 665 526 q 619 333 619 415 q 645 198 619 253 q 721 115 671 143 q 842 86 771 86 q 956 98 897 86 q 1060 133 1015 110 l 1079 35 q 967 -5 1031 10 q 832 -19 903 -19 m 551 381 q 822 382 683 381 q 1079 388 961 383 l 1096 297 q 831 292 975 293 q 551 290 688 290 l 551 381 z "},"ç":{"ha":653,"x_min":61,"x_max":613,"o":"m 388 -19 q 217 23 292 -19 q 102 146 143 65 q 61 335 61 226 q 103 521 61 442 q 221 642 144 600 q 399 683 297 683 q 498 671 444 683 q 608 631 551 658 q 592 528 603 578 q 526 550 546 544 l 526 550 q 459 567 490 561 q 403 574 428 574 q 288 545 338 574 q 210 463 238 517 q 183 336 183 410 q 211 203 183 258 q 289 119 239 147 q 407 90 339 90 q 505 106 447 90 q 596 136 563 121 q 608 60 603 108 q 613 35 611 47 q 497 -7 553 6 q 388 -19 440 -19 m 242 -232 l 329 17 l 413 14 l 354 -251 l 242 -232 z "},"è":{"ha":729,"x_min":64,"x_max":667,"o":"m 393 -19 q 217 23 292 -19 q 103 144 143 65 q 64 332 64 224 q 105 516 64 436 q 217 640 146 596 q 376 683 289 683 q 532 642 467 683 q 632 525 597 600 q 667 353 667 450 q 663 292 667 319 q 422 292 500 292 q 186 292 343 292 q 251 146 196 201 q 401 90 307 90 q 514 103 456 90 q 618 139 572 117 q 639 36 633 61 q 525 -4 588 11 q 393 -19 463 -19 m 186 392 q 554 392 371 392 q 526 492 549 451 q 466 553 504 532 q 372 574 428 574 q 287 551 326 574 q 221 486 247 528 q 186 392 194 444 m 181 926 q 225 969 203 951 q 272 1001 247 988 l 456 807 l 400 756 l 181 926 z "},"é":{"ha":729,"x_min":64,"x_max":667,"o":"m 393 -19 q 217 23 292 -19 q 103 144 143 65 q 64 332 64 224 q 105 516 64 436 q 217 640 146 596 q 376 683 289 683 q 532 642 467 683 q 632 525 597 600 q 667 353 667 450 q 663 292 667 319 q 422 292 500 292 q 186 292 343 292 q 251 146 196 201 q 401 90 307 90 q 514 103 456 90 q 618 139 572 117 q 639 36 633 61 q 525 -4 588 11 q 393 -19 463 -19 m 186 392 q 554 392 371 392 q 526 492 549 451 q 466 553 504 532 q 372 574 428 574 q 287 551 326 574 q 221 486 247 528 q 186 392 194 444 m 339 756 l 283 807 l 467 1001 q 514 969 492 988 q 558 926 536 951 l 339 756 z "},"ê":{"ha":729,"x_min":64,"x_max":667,"o":"m 393 -19 q 217 23 292 -19 q 103 144 143 65 q 64 332 64 224 q 105 516 64 436 q 217 640 146 596 q 376 683 289 683 q 532 642 467 683 q 632 525 597 600 q 667 353 667 450 q 663 292 667 319 q 422 292 500 292 q 186 292 343 292 q 251 146 196 201 q 401 90 307 90 q 514 103 456 90 q 618 139 572 117 q 639 36 633 61 q 525 -4 588 11 q 393 -19 463 -19 m 186 392 q 554 392 371 392 q 526 492 549 451 q 466 553 504 532 q 372 574 428 574 q 287 551 326 574 q 221 486 247 528 q 186 392 194 444 m 142 804 l 347 971 l 392 971 l 597 804 l 546 738 l 369 864 l 192 738 l 142 804 z "},"ë":{"ha":729,"x_min":64,"x_max":667,"o":"m 393 -19 q 217 23 292 -19 q 103 144 143 65 q 64 332 64 224 q 105 516 64 436 q 217 640 146 596 q 376 683 289 683 q 532 642 467 683 q 632 525 597 600 q 667 353 667 450 q 663 292 667 319 q 422 292 500 292 q 186 292 343 292 q 251 146 196 201 q 401 90 307 90 q 514 103 456 90 q 618 139 572 117 q 639 36 633 61 q 525 -4 588 11 q 393 -19 463 -19 m 186 392 q 554 392 371 392 q 526 492 549 451 q 466 553 504 532 q 372 574 428 574 q 287 551 326 574 q 221 486 247 528 q 186 392 194 444 m 486 811 q 422 831 446 811 q 399 886 399 851 q 422 939 399 919 q 486 958 446 958 q 547 939 525 958 q 569 886 569 919 q 547 831 569 851 q 486 811 525 811 m 247 811 q 184 831 207 811 q 161 886 161 851 q 184 939 161 919 q 247 958 207 958 q 309 939 286 958 q 332 886 332 919 q 310 831 332 851 q 247 811 288 811 z "},"ì":{"ha":424,"x_min":31,"x_max":306,"o":"m 178 104 l 178 104 l 178 642 l 297 664 l 297 104 l 297 104 l 297 0 l 178 0 l 178 104 m 58 546 q 58 664 54 607 q 178 667 106 667 q 297 664 251 667 l 253 575 l 58 546 m 31 926 q 75 969 53 951 q 122 1001 97 988 l 306 807 l 250 756 l 31 926 z "},"í":{"ha":424,"x_min":54,"x_max":408,"o":"m 178 104 l 178 104 l 178 642 l 297 664 l 297 104 l 297 104 l 297 0 l 178 0 l 178 104 m 58 546 q 58 664 54 607 q 178 667 106 667 q 297 664 251 667 l 253 575 l 58 546 m 189 756 l 133 807 l 317 1001 q 364 969 342 988 q 408 926 386 951 l 189 756 z "},"î":{"ha":424,"x_min":-8,"x_max":447,"o":"m 178 104 l 178 104 l 178 642 l 297 664 l 297 104 l 297 104 l 297 0 l 178 0 l 178 104 m 58 546 q 58 664 54 607 q 178 667 106 667 q 297 664 251 667 l 253 575 l 58 546 m -8 804 l 197 971 l 242 971 l 447 804 l 396 738 l 219 864 l 42 738 l -8 804 z "},"ï":{"ha":424,"x_min":11,"x_max":419,"o":"m 178 104 l 178 104 l 178 642 l 297 664 l 297 104 l 297 104 l 297 0 l 178 0 l 178 104 m 58 546 q 58 664 54 607 q 178 667 106 667 q 297 664 251 667 l 253 575 l 58 546 m 336 811 q 272 831 296 811 q 249 886 249 851 q 272 939 249 919 q 336 958 296 958 q 397 939 375 958 q 419 886 419 919 q 397 831 419 851 q 336 811 375 811 m 97 811 q 34 831 57 811 q 11 886 11 851 q 34 939 11 919 q 97 958 57 958 q 159 939 136 958 q 182 886 182 919 q 160 831 182 851 q 97 811 138 811 z "},"ð":{"ha":806,"x_min":82,"x_max":721,"o":"m 393 -19 q 229 22 300 -19 q 120 137 158 63 q 82 308 82 211 q 123 499 82 421 q 232 615 164 576 q 381 653 300 653 q 519 629 453 653 q 629 567 585 606 l 611 474 q 507 531 556 514 q 397 549 458 549 q 251 487 304 549 q 199 308 199 425 q 224 185 199 236 q 292 109 249 135 q 392 83 335 83 q 549 158 493 83 q 604 371 604 233 q 574 637 604 533 q 453 806 543 740 q 189 893 363 872 l 207 988 q 497 901 382 974 q 666 701 611 829 q 721 390 721 574 q 679 166 721 258 q 564 27 638 74 q 393 -19 490 -19 m 292 781 l 467 875 l 642 999 l 682 925 l 510 829 l 335 696 l 292 781 z "},"ñ":{"ha":819,"x_min":133,"x_max":700,"o":"m 581 419 q 569 506 581 476 q 531 549 557 536 q 458 561 506 561 q 344 533 407 561 q 225 463 281 506 l 213 564 q 326 635 276 610 q 418 672 375 661 q 506 683 461 683 q 654 628 608 683 q 700 460 700 572 l 700 0 l 581 0 l 581 419 m 133 554 l 133 554 q 133 663 133 608 q 181 665 157 665 q 233 664 206 665 l 253 514 l 253 0 l 133 0 l 133 554 m 515 806 q 461 816 488 806 q 394 847 435 826 q 351 867 372 858 q 315 876 331 876 q 269 859 289 876 q 225 799 249 842 l 161 833 q 230 941 196 908 q 307 974 264 974 q 361 963 333 974 q 426 933 389 953 q 474 911 457 918 q 507 904 492 904 q 551 922 531 904 q 594 982 572 940 l 660 947 q 591 838 625 871 q 515 806 557 806 z "},"ò":{"ha":764,"x_min":61,"x_max":701,"o":"m 381 -19 q 210 23 282 -19 q 99 144 138 65 q 61 332 61 224 q 99 519 61 440 q 210 641 138 599 q 381 683 282 683 q 552 641 479 683 q 663 519 625 599 q 701 332 701 440 q 663 144 701 224 q 552 23 625 65 q 381 -19 479 -19 m 379 85 q 488 113 443 85 q 555 196 532 140 q 578 332 578 251 q 555 469 578 414 q 488 551 532 524 q 379 579 443 579 q 274 551 317 579 q 208 469 231 524 q 185 332 185 414 q 208 196 185 251 q 274 113 231 140 q 379 85 317 85 m 192 926 q 236 969 214 951 q 283 1001 258 988 l 467 807 l 411 756 l 192 926 z "},"ó":{"ha":764,"x_min":61,"x_max":701,"o":"m 381 -19 q 210 23 282 -19 q 99 144 138 65 q 61 332 61 224 q 99 519 61 440 q 210 641 138 599 q 381 683 282 683 q 552 641 479 683 q 663 519 625 599 q 701 332 701 440 q 663 144 701 224 q 552 23 625 65 q 381 -19 479 -19 m 379 85 q 488 113 443 85 q 555 196 532 140 q 578 332 578 251 q 555 469 578 414 q 488 551 532 524 q 379 579 443 579 q 274 551 317 579 q 208 469 231 524 q 185 332 185 414 q 208 196 185 251 q 274 113 231 140 q 379 85 317 85 m 350 756 l 294 807 l 478 1001 q 525 969 503 988 q 569 926 547 951 l 350 756 z "},"ô":{"ha":764,"x_min":61,"x_max":701,"o":"m 381 -19 q 210 23 282 -19 q 99 144 138 65 q 61 332 61 224 q 99 519 61 440 q 210 641 138 599 q 381 683 282 683 q 552 641 479 683 q 663 519 625 599 q 701 332 701 440 q 663 144 701 224 q 552 23 625 65 q 381 -19 479 -19 m 379 85 q 488 113 443 85 q 555 196 532 140 q 578 332 578 251 q 555 469 578 414 q 488 551 532 524 q 379 579 443 579 q 274 551 317 579 q 208 469 231 524 q 185 332 185 414 q 208 196 185 251 q 274 113 231 140 q 379 85 317 85 m 153 804 l 358 971 l 403 971 l 608 804 l 557 738 l 381 864 l 203 738 l 153 804 z "},"õ":{"ha":764,"x_min":61,"x_max":701,"o":"m 381 -19 q 210 23 282 -19 q 99 144 138 65 q 61 332 61 224 q 99 519 61 440 q 210 641 138 599 q 381 683 282 683 q 552 641 479 683 q 663 519 625 599 q 701 332 701 440 q 663 144 701 224 q 552 23 625 65 q 381 -19 479 -19 m 379 85 q 488 113 443 85 q 555 196 532 140 q 578 332 578 251 q 555 469 578 414 q 488 551 532 524 q 379 579 443 579 q 274 551 317 579 q 208 469 231 524 q 185 332 185 414 q 208 196 185 251 q 274 113 231 140 q 379 85 317 85 m 485 806 q 431 816 457 806 q 364 847 404 826 q 321 867 342 858 q 285 876 300 876 q 238 859 258 876 q 194 799 218 842 l 131 833 q 199 941 165 908 q 276 974 233 974 q 331 963 303 974 q 396 933 358 953 q 444 911 426 918 q 476 904 461 904 q 521 922 500 904 q 564 982 542 940 l 629 947 q 560 838 594 871 q 485 806 526 806 z "},"ö":{"ha":764,"x_min":61,"x_max":701,"o":"m 381 -19 q 210 23 282 -19 q 99 144 138 65 q 61 332 61 224 q 99 519 61 440 q 210 641 138 599 q 381 683 282 683 q 552 641 479 683 q 663 519 625 599 q 701 332 701 440 q 663 144 701 224 q 552 23 625 65 q 381 -19 479 -19 m 379 85 q 488 113 443 85 q 555 196 532 140 q 578 332 578 251 q 555 469 578 414 q 488 551 532 524 q 379 579 443 579 q 274 551 317 579 q 208 469 231 524 q 185 332 185 414 q 208 196 185 251 q 274 113 231 140 q 379 85 317 85 m 497 811 q 433 831 457 811 q 410 886 410 851 q 433 939 410 919 q 497 958 457 958 q 558 939 536 958 q 581 886 581 919 q 558 831 581 851 q 497 811 536 811 m 258 811 q 195 831 218 811 q 172 886 172 851 q 195 939 172 919 q 258 958 218 958 q 320 939 297 958 q 343 886 343 919 q 321 831 343 851 q 258 811 299 811 z "},"÷":{"ha":625,"x_min":83,"x_max":543,"o":"m 83 396 l 314 393 l 543 396 l 543 304 l 314 308 l 83 304 l 83 396 m 314 86 q 260 103 279 86 q 240 150 240 121 q 260 197 240 179 q 314 215 281 215 q 367 197 347 215 q 386 150 386 179 q 367 103 386 121 q 314 86 347 86 m 314 485 q 260 503 281 485 q 240 550 240 521 q 260 597 240 579 q 314 615 281 615 q 367 597 347 615 q 386 550 386 579 q 367 503 386 521 q 314 485 347 485 z "},"ø":{"ha":764,"x_min":61,"x_max":701,"o":"m 381 -19 q 210 23 282 -19 q 99 144 138 65 q 61 332 61 224 q 99 519 61 440 q 210 641 138 599 q 381 683 282 683 q 552 641 479 683 q 663 519 625 599 q 701 332 701 440 q 663 144 701 224 q 552 23 625 65 q 381 -19 479 -19 m 379 85 q 488 113 443 85 q 555 196 532 140 q 578 332 578 251 q 555 469 578 414 q 488 551 532 524 q 379 579 443 579 q 274 551 317 579 q 208 469 231 524 q 185 332 185 414 q 208 196 185 251 q 274 113 231 140 q 379 85 317 85 m 78 40 l 340 363 l 576 701 l 679 624 l 417 300 l 181 -37 l 78 40 z "},"ù":{"ha":813,"x_min":119,"x_max":682,"o":"m 239 251 q 251 161 239 193 q 289 117 263 129 q 363 104 315 104 q 469 131 410 104 q 590 201 528 157 l 607 107 q 512 41 561 69 q 410 -3 463 13 q 308 -19 358 -19 q 166 33 213 -19 q 119 194 119 86 l 119 664 l 239 664 l 239 251 m 682 110 l 682 110 q 682 1 682 56 q 582 0 640 -4 l 563 150 l 563 664 l 682 664 l 682 110 m 219 926 q 264 969 242 951 q 311 1001 286 988 l 494 807 l 439 756 l 219 926 z "},"ú":{"ha":813,"x_min":119,"x_max":682,"o":"m 239 251 q 251 161 239 193 q 289 117 263 129 q 363 104 315 104 q 469 131 410 104 q 590 201 528 157 l 607 107 q 512 41 561 69 q 410 -3 463 13 q 308 -19 358 -19 q 166 33 213 -19 q 119 194 119 86 l 119 664 l 239 664 l 239 251 m 682 110 l 682 110 q 682 1 682 56 q 582 0 640 -4 l 563 150 l 563 664 l 682 664 l 682 110 m 378 756 l 322 807 l 506 1001 q 553 969 531 988 q 597 926 575 951 l 378 756 z "},"û":{"ha":813,"x_min":119,"x_max":682,"o":"m 239 251 q 251 161 239 193 q 289 117 263 129 q 363 104 315 104 q 469 131 410 104 q 590 201 528 157 l 607 107 q 512 41 561 69 q 410 -3 463 13 q 308 -19 358 -19 q 166 33 213 -19 q 119 194 119 86 l 119 664 l 239 664 l 239 251 m 682 110 l 682 110 q 682 1 682 56 q 582 0 640 -4 l 563 150 l 563 664 l 682 664 l 682 110 m 181 804 l 386 971 l 431 971 l 636 804 l 585 738 l 408 864 l 231 738 l 181 804 z "},"ü":{"ha":813,"x_min":119,"x_max":682,"o":"m 239 251 q 251 161 239 193 q 289 117 263 129 q 363 104 315 104 q 469 131 410 104 q 590 201 528 157 l 607 107 q 512 41 561 69 q 410 -3 463 13 q 308 -19 358 -19 q 166 33 213 -19 q 119 194 119 86 l 119 664 l 239 664 l 239 251 m 682 110 l 682 110 q 682 1 682 56 q 582 0 640 -4 l 563 150 l 563 664 l 682 664 l 682 110 m 525 811 q 461 831 485 811 q 438 886 438 851 q 461 939 438 919 q 525 958 485 958 q 586 939 564 958 q 608 886 608 919 q 586 831 608 851 q 525 811 564 811 m 286 811 q 223 831 246 811 q 200 886 200 851 q 223 939 200 919 q 286 958 246 958 q 348 939 325 958 q 371 886 371 919 q 349 831 371 851 q 286 811 326 811 z "},"ý":{"ha":694,"x_min":33,"x_max":660,"o":"m 272 38 q 129 392 190 233 q 33 664 68 551 q 158 664 96 664 q 247 408 201 536 q 340 150 293 279 l 351 150 q 447 413 399 276 q 533 664 494 549 q 660 664 597 664 q 560 383 624 550 q 421 38 496 215 l 272 38 m 146 -232 q 188 -171 167 -203 q 228 -110 210 -139 q 325 92 285 -15 l 421 38 q 325 -158 371 -78 q 244 -285 281 -237 l 146 -232 m 315 756 l 260 807 l 443 1001 q 490 969 468 988 q 535 926 513 951 l 315 756 z "},"þ":{"ha":833,"x_min":126,"x_max":740,"o":"m 413 -18 q 297 0 360 -18 q 185 46 233 18 l 189 146 q 222 132 200 140 q 326 96 279 108 q 411 83 374 83 q 520 114 474 83 q 592 204 567 144 q 618 347 618 264 q 596 469 618 418 q 535 546 574 519 q 449 572 496 572 q 347 551 401 572 q 222 488 293 529 l 207 586 q 349 663 289 642 q 475 683 410 683 q 613 643 553 683 q 707 527 674 603 q 740 346 740 451 q 700 150 740 232 q 585 25 660 68 q 413 -18 511 -18 m 146 -168 l 190 -168 l 240 -168 l 240 -264 l 146 -264 l 146 -168 m 126 972 l 246 972 l 246 -264 l 126 -264 l 126 972 m 128 972 q 188 972 168 972 q 246 972 207 972 l 206 881 l 128 856 l 128 972 z "},"ÿ":{"ha":694,"x_min":33,"x_max":660,"o":"m 272 38 q 129 392 190 233 q 33 664 68 551 q 158 664 96 664 q 247 408 201 536 q 340 150 293 279 l 351 150 q 447 413 399 276 q 533 664 494 549 q 660 664 597 664 q 560 383 624 550 q 421 38 496 215 l 272 38 m 146 -232 q 188 -171 167 -203 q 228 -110 210 -139 q 325 92 285 -15 l 421 38 q 325 -158 371 -78 q 244 -285 281 -237 l 146 -232 m 463 811 q 399 831 422 811 q 375 886 375 851 q 399 939 375 919 q 463 958 422 958 q 524 939 501 958 q 546 886 546 919 q 524 831 546 851 q 463 811 501 811 m 224 811 q 160 831 183 811 q 138 886 138 851 q 160 939 138 919 q 224 958 183 958 q 285 939 263 958 q 308 886 308 919 q 286 831 308 851 q 224 811 264 811 z "},"Ā":{"ha":875,"x_min":42,"x_max":833,"o":"m 42 0 q 164 422 86 185 q 335 903 242 658 l 540 903 q 712 419 636 653 q 833 0 788 185 l 704 0 q 638 238 657 175 l 238 238 q 171 0 189 72 l 42 0 m 611 342 q 535 575 572 465 q 458 789 497 685 l 417 789 q 337 565 376 679 q 264 342 297 450 l 611 342 m 221 1071 l 658 1071 l 658 978 l 440 988 l 221 978 l 221 1071 z "},"ā":{"ha":736,"x_min":82,"x_max":640,"o":"m 531 78 q 413 7 476 33 q 289 -19 349 -19 q 138 35 193 -19 q 82 189 82 90 q 94 287 82 238 q 129 383 106 336 q 307 386 217 388 q 524 379 397 385 l 524 408 l 524 413 q 511 499 522 463 q 471 555 500 535 q 393 575 442 575 q 285 561 349 575 q 147 521 222 547 q 119 622 133 572 q 274 666 200 651 q 407 681 347 681 q 533 657 482 681 q 613 580 585 633 q 640 439 640 526 l 640 99 l 640 99 q 640 0 640 50 q 594 -3 619 -3 q 543 0 568 -3 l 531 78 m 197 196 q 225 115 197 144 q 310 85 253 85 q 414 110 361 85 q 524 179 467 136 l 524 282 q 213 289 339 293 q 201 244 204 265 q 197 196 197 222 m 165 888 l 603 888 l 603 794 l 385 804 l 165 794 l 165 888 z "},"Ă":{"ha":875,"x_min":42,"x_max":833,"o":"m 42 0 q 164 422 86 185 q 335 903 242 658 l 540 903 q 712 419 636 653 q 833 0 788 185 l 704 0 q 638 238 657 175 l 238 238 q 171 0 189 72 l 42 0 m 611 342 q 535 575 572 465 q 458 789 497 685 l 417 789 q 337 565 376 679 q 264 342 297 450 l 611 342 m 439 972 q 300 1019 353 972 q 242 1157 247 1067 l 324 1172 q 358 1076 329 1107 q 439 1044 388 1044 q 519 1076 490 1044 q 554 1172 549 1107 l 636 1157 q 578 1019 631 1067 q 439 972 525 972 z "},"ă":{"ha":736,"x_min":82,"x_max":640,"o":"m 531 78 q 413 7 476 33 q 289 -19 349 -19 q 138 35 193 -19 q 82 189 82 90 q 94 287 82 238 q 129 383 106 336 q 307 386 217 388 q 524 379 397 385 l 524 408 l 524 413 q 511 499 522 463 q 471 555 500 535 q 393 575 442 575 q 285 561 349 575 q 147 521 222 547 q 119 622 133 572 q 274 666 200 651 q 407 681 347 681 q 533 657 482 681 q 613 580 585 633 q 640 439 640 526 l 640 99 l 640 99 q 640 0 640 50 q 594 -3 619 -3 q 543 0 568 -3 l 531 78 m 197 196 q 225 115 197 144 q 310 85 253 85 q 414 110 361 85 q 524 179 467 136 l 524 282 q 213 289 339 293 q 201 244 204 265 q 197 196 197 222 m 382 772 q 242 822 296 772 q 182 958 188 872 l 278 969 q 310 886 282 917 q 382 856 338 856 q 455 885 426 856 q 488 968 483 915 l 581 958 q 522 822 575 872 q 382 772 469 772 z "},"Ą":{"ha":875,"x_min":42,"x_max":886,"o":"m 42 0 q 164 422 86 185 q 335 903 242 658 l 540 903 q 712 419 636 653 q 833 0 788 185 l 704 0 q 638 238 657 175 l 238 238 q 171 0 189 72 l 42 0 m 611 342 q 535 575 572 465 q 458 789 497 685 l 417 789 q 337 565 376 679 q 264 342 297 450 l 611 342 m 832 0 q 785 -64 800 -36 q 769 -114 769 -92 q 799 -157 769 -144 q 886 -164 829 -169 l 886 -256 q 713 -231 764 -267 q 661 -137 661 -196 q 688 -62 661 -103 q 761 11 714 -21 l 832 0 z "},"ą":{"ha":736,"x_min":82,"x_max":694,"o":"m 531 78 q 413 7 476 33 q 289 -19 349 -19 q 138 35 193 -19 q 82 189 82 90 q 94 287 82 238 q 129 383 106 336 q 307 386 217 388 q 524 379 397 385 l 524 408 l 524 413 q 511 499 522 463 q 471 555 500 535 q 393 575 442 575 q 285 561 349 575 q 147 521 222 547 q 119 622 133 572 q 274 666 200 651 q 407 681 347 681 q 533 657 482 681 q 613 580 585 633 q 640 439 640 526 l 640 99 l 640 99 q 640 0 640 50 q 594 -3 619 -3 q 543 0 568 -3 l 531 78 m 197 196 q 225 115 197 144 q 310 85 253 85 q 414 110 361 85 q 524 179 467 136 l 524 282 q 213 289 339 293 q 201 244 204 265 q 197 196 197 222 m 640 0 q 593 -64 608 -36 q 578 -114 578 -92 q 608 -157 578 -144 q 694 -164 638 -169 l 694 -256 q 521 -231 572 -267 q 469 -137 469 -196 q 496 -62 469 -103 q 569 11 522 -21 l 640 0 z "},"Ć":{"ha":778,"x_min":69,"x_max":738,"o":"m 488 -19 q 262 38 356 -19 q 119 201 168 94 q 69 457 69 308 q 119 706 69 601 q 263 867 169 811 q 483 922 357 922 q 607 913 553 922 q 736 879 661 903 l 713 772 q 625 793 667 785 l 625 793 q 553 803 585 800 q 490 807 521 807 q 334 765 400 807 q 233 645 268 724 q 197 458 197 567 q 231 265 197 346 q 332 140 265 183 q 493 96 399 96 q 607 107 547 96 q 713 132 667 118 l 738 24 q 608 -10 663 0 q 488 -19 553 -19 m 411 965 l 369 1043 l 632 1172 l 678 1057 l 411 965 z "},"ć":{"ha":653,"x_min":61,"x_max":614,"o":"m 388 -19 q 217 23 292 -19 q 102 146 143 65 q 61 335 61 226 q 103 521 61 442 q 221 642 144 600 q 399 683 297 683 q 498 671 444 683 q 608 631 551 658 q 592 528 603 578 q 526 550 546 544 l 526 550 q 459 567 490 561 q 403 574 428 574 q 288 545 338 574 q 210 463 238 517 q 183 336 183 410 q 211 203 183 258 q 289 119 239 147 q 407 90 339 90 q 505 106 447 90 q 596 136 563 121 q 608 60 603 108 q 613 35 611 47 q 497 -7 553 6 q 388 -19 440 -19 m 394 756 l 339 807 l 522 1001 q 569 969 547 988 q 614 926 592 951 l 394 756 z "},"Ĉ":{"ha":778,"x_min":69,"x_max":750,"o":"m 488 -19 q 262 38 356 -19 q 119 201 168 94 q 69 457 69 308 q 119 706 69 601 q 263 867 169 811 q 483 922 357 922 q 607 913 553 922 q 736 879 661 903 l 713 772 q 625 793 667 785 l 625 793 q 553 803 585 800 q 490 807 521 807 q 334 765 400 807 q 233 645 268 724 q 197 458 197 567 q 231 265 197 346 q 332 140 265 183 q 493 96 399 96 q 607 107 547 96 q 713 132 667 118 l 738 24 q 608 -10 663 0 q 488 -19 553 -19 m 294 1026 l 500 1179 l 544 1179 l 750 1026 l 699 960 l 522 1079 l 344 960 l 294 1026 z "},"ĉ":{"ha":653,"x_min":61,"x_max":653,"o":"m 388 -19 q 217 23 292 -19 q 102 146 143 65 q 61 335 61 226 q 103 521 61 442 q 221 642 144 600 q 399 683 297 683 q 498 671 444 683 q 608 631 551 658 q 592 528 603 578 q 526 550 546 544 l 526 550 q 459 567 490 561 q 403 574 428 574 q 288 545 338 574 q 210 463 238 517 q 183 336 183 410 q 211 203 183 258 q 289 119 239 147 q 407 90 339 90 q 505 106 447 90 q 596 136 563 121 q 608 60 603 108 q 613 35 611 47 q 497 -7 553 6 q 388 -19 440 -19 m 197 804 l 403 971 l 447 971 l 653 804 l 601 738 l 425 864 l 247 738 l 197 804 z "},"Ċ":{"ha":778,"x_min":69,"x_max":738,"o":"m 488 -19 q 262 38 356 -19 q 119 201 168 94 q 69 457 69 308 q 119 706 69 601 q 263 867 169 811 q 483 922 357 922 q 607 913 553 922 q 736 879 661 903 l 713 772 q 625 793 667 785 l 625 793 q 553 803 585 800 q 490 807 521 807 q 334 765 400 807 q 233 645 268 724 q 197 458 197 567 q 231 265 197 346 q 332 140 265 183 q 493 96 399 96 q 607 107 547 96 q 713 132 667 118 l 738 24 q 608 -10 663 0 q 488 -19 553 -19 m 522 972 q 453 994 479 972 q 428 1056 428 1017 q 453 1115 428 1093 q 522 1138 479 1138 q 590 1115 565 1138 q 614 1056 614 1093 q 590 994 614 1017 q 522 972 565 972 z "},"ċ":{"ha":653,"x_min":61,"x_max":613,"o":"m 388 -19 q 217 23 292 -19 q 102 146 143 65 q 61 335 61 226 q 103 521 61 442 q 221 642 144 600 q 399 683 297 683 q 498 671 444 683 q 608 631 551 658 q 592 528 603 578 q 526 550 546 544 l 526 550 q 459 567 490 561 q 403 574 428 574 q 288 545 338 574 q 210 463 238 517 q 183 336 183 410 q 211 203 183 258 q 289 119 239 147 q 407 90 339 90 q 505 106 447 90 q 596 136 563 121 q 608 60 603 108 q 613 35 611 47 q 497 -7 553 6 q 388 -19 440 -19 m 425 811 q 356 833 382 811 q 331 894 331 856 q 356 954 331 932 q 425 976 382 976 q 492 954 468 976 q 517 894 517 932 q 492 833 517 856 q 425 811 468 811 z "},"Č":{"ha":778,"x_min":69,"x_max":750,"o":"m 488 -19 q 262 38 356 -19 q 119 201 168 94 q 69 457 69 308 q 119 706 69 601 q 263 867 169 811 q 483 922 357 922 q 607 913 553 922 q 736 879 661 903 l 713 772 q 625 793 667 785 l 625 793 q 553 803 585 800 q 490 807 521 807 q 334 765 400 807 q 233 645 268 724 q 197 458 197 567 q 231 265 197 346 q 332 140 265 183 q 493 96 399 96 q 607 107 547 96 q 713 132 667 118 l 738 24 q 608 -10 663 0 q 488 -19 553 -19 m 522 1065 l 699 1192 l 750 1125 l 544 958 l 500 958 l 294 1125 l 344 1192 l 522 1065 z "},"č":{"ha":653,"x_min":61,"x_max":653,"o":"m 388 -19 q 217 23 292 -19 q 102 146 143 65 q 61 335 61 226 q 103 521 61 442 q 221 642 144 600 q 399 683 297 683 q 498 671 444 683 q 608 631 551 658 q 592 528 603 578 q 526 550 546 544 l 526 550 q 459 567 490 561 q 403 574 428 574 q 288 545 338 574 q 210 463 238 517 q 183 336 183 410 q 211 203 183 258 q 289 119 239 147 q 407 90 339 90 q 505 106 447 90 q 596 136 563 121 q 608 60 603 108 q 613 35 611 47 q 497 -7 553 6 q 388 -19 440 -19 m 425 871 l 601 997 l 653 931 l 447 764 l 403 764 l 197 931 l 247 997 l 425 871 z "},"Ď":{"ha":924,"x_min":115,"x_max":853,"o":"m 124 746 l 124 792 l 124 792 q 124 903 124 847 l 403 903 q 642 848 540 903 q 798 691 743 793 q 853 451 853 589 q 798 212 853 314 q 642 55 743 110 q 403 0 540 0 l 124 0 l 124 746 m 401 111 q 572 153 499 111 q 684 272 644 194 q 724 451 724 349 q 684 631 724 554 q 572 749 644 708 q 401 790 499 790 l 244 790 l 244 111 l 401 111 m 343 1065 l 519 1192 l 571 1125 l 365 958 l 321 958 l 115 1125 l 165 1192 l 343 1065 z "},"ď":{"ha":944,"x_min":68,"x_max":842,"o":"m 329 -19 q 197 19 256 -19 q 103 135 138 58 q 68 325 68 213 q 108 510 68 431 q 218 633 149 590 q 374 676 288 676 q 486 663 431 676 q 600 624 542 649 l 599 522 q 492 560 547 544 q 386 575 436 575 q 282 545 326 575 q 214 459 238 515 q 190 326 190 403 q 235 148 190 213 q 361 83 279 83 q 460 104 411 83 q 563 160 510 125 l 582 96 q 464 13 526 46 q 329 -19 401 -19 m 550 119 l 550 972 l 663 972 l 663 106 l 663 106 l 663 0 q 568 0 604 -6 l 550 119 m 750 972 l 838 972 l 842 915 l 808 626 l 753 626 l 750 972 z "},"Đ":{"ha":903,"x_min":46,"x_max":853,"o":"m 124 746 l 124 792 l 124 792 q 124 903 124 847 l 403 903 q 642 848 540 903 q 798 691 743 793 q 853 451 853 589 q 798 212 853 314 q 642 55 743 110 q 403 0 540 0 l 124 0 l 124 746 m 401 111 q 572 153 499 111 q 684 272 644 194 q 724 451 724 349 q 684 631 724 554 q 572 749 644 708 q 401 790 499 790 l 244 790 l 244 111 l 401 111 m 47 497 q 444 497 246 493 q 444 401 444 450 q 47 401 246 406 q 47 497 46 450 z "},"đ":{"ha":799,"x_min":78,"x_max":758,"o":"m 361 -19 q 213 19 276 -19 q 113 134 149 57 q 78 325 78 211 q 117 516 78 435 q 228 640 157 597 q 389 683 299 683 q 510 668 446 683 q 622 631 574 653 l 619 529 q 520 564 579 549 q 422 579 461 579 q 302 549 351 579 q 227 459 253 518 q 201 313 201 400 q 251 151 201 211 q 382 92 300 92 q 476 111 422 92 q 578 158 529 131 q 585 163 582 161 l 604 74 q 481 6 551 31 q 361 -19 411 -19 m 571 119 l 571 972 q 634 976 614 976 q 690 972 654 976 l 690 106 l 690 106 q 690 0 690 53 q 638 -3 665 -3 q 590 0 611 -3 l 571 119 m 758 806 l 336 806 l 336 893 l 758 893 l 758 806 z "},"Ē":{"ha":750,"x_min":129,"x_max":697,"o":"m 129 772 l 129 903 l 253 903 l 253 0 l 129 0 l 129 772 m 229 104 l 697 113 l 690 0 l 164 0 l 229 104 m 236 421 l 236 515 l 608 525 l 608 414 l 236 421 m 136 903 l 232 903 l 232 808 l 136 785 l 136 903 m 229 799 l 235 903 l 676 903 l 683 792 l 229 799 m 189 1071 l 626 1071 l 626 978 l 408 988 l 189 978 l 189 1071 z "},"ē":{"ha":729,"x_min":64,"x_max":667,"o":"m 393 -19 q 217 23 292 -19 q 103 144 143 65 q 64 332 64 224 q 105 516 64 436 q 217 640 146 596 q 376 683 289 683 q 532 642 467 683 q 632 525 597 600 q 667 353 667 450 q 663 292 667 319 q 422 292 500 292 q 186 292 343 292 q 251 146 196 201 q 401 90 307 90 q 514 103 456 90 q 618 139 572 117 q 639 36 633 61 q 525 -4 588 11 q 393 -19 463 -19 m 186 392 q 554 392 371 392 q 526 492 549 451 q 466 553 504 532 q 372 574 428 574 q 287 551 326 574 q 221 486 247 528 q 186 392 194 444 m 150 888 l 588 888 l 588 794 l 369 804 l 150 794 l 150 888 z "},"Ĕ":{"ha":750,"x_min":129,"x_max":697,"o":"m 129 772 l 129 903 l 253 903 l 253 0 l 129 0 l 129 772 m 229 104 l 697 113 l 690 0 l 164 0 l 229 104 m 236 421 l 236 515 l 608 525 l 608 414 l 236 421 m 136 903 l 232 903 l 232 808 l 136 785 l 136 903 m 229 799 l 235 903 l 676 903 l 683 792 l 229 799 m 407 972 q 268 1019 321 972 q 210 1157 215 1067 l 292 1172 q 326 1076 297 1107 q 407 1044 356 1044 q 488 1076 458 1044 q 522 1172 517 1107 l 604 1157 q 546 1019 599 1067 q 407 972 493 972 z "},"ĕ":{"ha":729,"x_min":64,"x_max":667,"o":"m 393 -19 q 217 23 292 -19 q 103 144 143 65 q 64 332 64 224 q 105 516 64 436 q 217 640 146 596 q 376 683 289 683 q 532 642 467 683 q 632 525 597 600 q 667 353 667 450 q 663 292 667 319 q 422 292 500 292 q 186 292 343 292 q 251 146 196 201 q 401 90 307 90 q 514 103 456 90 q 618 139 572 117 q 639 36 633 61 q 525 -4 588 11 q 393 -19 463 -19 m 186 392 q 554 392 371 392 q 526 492 549 451 q 466 553 504 532 q 372 574 428 574 q 287 551 326 574 q 221 486 247 528 q 186 392 194 444 m 367 772 q 226 822 281 772 q 167 958 172 872 l 263 969 q 294 886 267 917 q 367 856 322 856 q 440 885 411 856 q 472 968 468 915 l 565 958 q 507 822 560 872 q 367 772 454 772 z "},"Ė":{"ha":750,"x_min":129,"x_max":697,"o":"m 129 772 l 129 903 l 253 903 l 253 0 l 129 0 l 129 772 m 229 104 l 697 113 l 690 0 l 164 0 l 229 104 m 236 421 l 236 515 l 608 525 l 608 414 l 236 421 m 136 903 l 232 903 l 232 808 l 136 785 l 136 903 m 229 799 l 235 903 l 676 903 l 683 792 l 229 799 m 408 972 q 340 994 365 972 q 314 1056 314 1017 q 340 1115 314 1093 q 408 1138 365 1138 q 476 1115 451 1138 q 500 1056 500 1093 q 476 994 500 1017 q 408 972 451 972 z "},"ė":{"ha":729,"x_min":64,"x_max":667,"o":"m 393 -19 q 217 23 292 -19 q 103 144 143 65 q 64 332 64 224 q 105 516 64 436 q 217 640 146 596 q 376 683 289 683 q 532 642 467 683 q 632 525 597 600 q 667 353 667 450 q 663 292 667 319 q 422 292 500 292 q 186 292 343 292 q 251 146 196 201 q 401 90 307 90 q 514 103 456 90 q 618 139 572 117 q 639 36 633 61 q 525 -4 588 11 q 393 -19 463 -19 m 186 392 q 554 392 371 392 q 526 492 549 451 q 466 553 504 532 q 372 574 428 574 q 287 551 326 574 q 221 486 247 528 q 186 392 194 444 m 369 811 q 301 833 326 811 q 275 894 275 856 q 301 954 275 932 q 369 976 326 976 q 437 954 413 976 q 461 894 461 932 q 437 833 461 856 q 369 811 413 811 z "},"Ę":{"ha":750,"x_min":129,"x_max":744,"o":"m 129 772 l 129 903 l 253 903 l 253 0 l 129 0 l 129 772 m 229 104 l 697 113 l 690 0 l 164 0 l 229 104 m 236 421 l 236 515 l 608 525 l 608 414 l 236 421 m 136 903 l 232 903 l 232 808 l 136 785 l 136 903 m 229 799 l 235 903 l 676 903 l 683 792 l 229 799 m 690 0 q 643 -64 658 -36 q 628 -114 628 -92 q 658 -157 628 -144 q 744 -164 688 -169 l 744 -256 q 571 -231 622 -267 q 519 -137 519 -196 q 546 -62 519 -103 q 619 11 572 -21 l 690 0 z "},"ę":{"ha":729,"x_min":64,"x_max":693,"o":"m 393 -19 q 217 23 292 -19 q 103 144 143 65 q 64 332 64 224 q 105 516 64 436 q 217 640 146 596 q 376 683 289 683 q 532 642 467 683 q 632 525 597 600 q 667 353 667 450 q 663 292 667 319 q 422 292 500 292 q 186 292 343 292 q 251 146 196 201 q 401 90 307 90 q 514 103 456 90 q 618 139 572 117 q 639 36 633 61 q 525 -4 588 11 q 393 -19 463 -19 m 186 392 q 554 392 371 392 q 526 492 549 451 q 466 553 504 532 q 372 574 428 574 q 287 551 326 574 q 221 486 247 528 q 186 392 194 444 m 639 36 q 592 -28 607 0 q 576 -78 576 -56 q 606 -121 576 -108 q 693 -128 636 -133 l 693 -219 q 519 -195 571 -231 q 468 -101 468 -160 q 494 -26 468 -67 q 568 47 521 15 l 639 36 z "},"Ě":{"ha":750,"x_min":129,"x_max":697,"o":"m 129 772 l 129 903 l 253 903 l 253 0 l 129 0 l 129 772 m 229 104 l 697 113 l 690 0 l 164 0 l 229 104 m 236 421 l 236 515 l 608 525 l 608 414 l 236 421 m 136 903 l 232 903 l 232 808 l 136 785 l 136 903 m 229 799 l 235 903 l 676 903 l 683 792 l 229 799 m 408 1065 l 585 1192 l 636 1125 l 431 958 l 386 958 l 181 1125 l 231 1192 l 408 1065 z "},"ě":{"ha":729,"x_min":64,"x_max":667,"o":"m 393 -19 q 217 23 292 -19 q 103 144 143 65 q 64 332 64 224 q 105 516 64 436 q 217 640 146 596 q 376 683 289 683 q 532 642 467 683 q 632 525 597 600 q 667 353 667 450 q 663 292 667 319 q 422 292 500 292 q 186 292 343 292 q 251 146 196 201 q 401 90 307 90 q 514 103 456 90 q 618 139 572 117 q 639 36 633 61 q 525 -4 588 11 q 393 -19 463 -19 m 186 392 q 554 392 371 392 q 526 492 549 451 q 466 553 504 532 q 372 574 428 574 q 287 551 326 574 q 221 486 247 528 q 186 392 194 444 m 369 871 l 546 997 l 597 931 l 392 764 l 347 764 l 142 931 l 192 997 l 369 871 z "},"Ĝ":{"ha":889,"x_min":71,"x_max":792,"o":"m 503 -19 q 274 35 371 -19 q 124 197 176 90 q 71 453 71 303 q 123 705 71 599 q 271 867 175 811 q 494 922 367 922 q 642 906 574 922 q 768 861 711 889 l 749 763 q 627 797 688 785 q 508 808 567 808 q 341 765 411 808 q 235 642 271 722 q 199 454 199 563 q 238 258 199 339 q 351 135 278 176 q 524 94 424 94 q 603 100 564 94 q 681 117 643 106 l 651 419 l 772 425 l 792 26 q 649 -7 726 6 q 503 -19 572 -19 m 292 1026 l 497 1179 l 542 1179 l 747 1026 l 696 960 l 519 1079 l 342 960 l 292 1026 z "},"ĝ":{"ha":799,"x_min":74,"x_max":685,"o":"m 361 -283 q 240 -272 299 -283 q 121 -239 181 -260 l 147 -137 q 257 -169 207 -158 q 357 -179 307 -179 q 471 -156 425 -179 q 541 -84 517 -133 q 565 43 565 -35 l 565 588 l 685 604 l 685 42 q 601 -202 685 -121 q 361 -283 518 -283 m 339 13 q 149 95 224 13 q 74 339 74 178 q 113 522 74 444 q 224 642 151 600 q 397 683 297 683 q 551 661 478 683 q 685 604 625 639 l 618 525 q 509 566 565 551 q 397 581 453 581 q 290 549 335 581 q 220 464 244 518 q 196 344 196 410 q 235 174 196 232 q 351 117 275 117 q 476 144 415 117 q 582 217 536 171 l 613 128 q 495 47 569 82 q 339 13 421 13 m 160 804 l 365 971 l 410 971 l 615 804 l 564 738 l 388 864 l 210 738 l 160 804 z "},"Ğ":{"ha":889,"x_min":71,"x_max":792,"o":"m 503 -19 q 274 35 371 -19 q 124 197 176 90 q 71 453 71 303 q 123 705 71 599 q 271 867 175 811 q 494 922 367 922 q 642 906 574 922 q 768 861 711 889 l 749 763 q 627 797 688 785 q 508 808 567 808 q 341 765 411 808 q 235 642 271 722 q 199 454 199 563 q 238 258 199 339 q 351 135 278 176 q 524 94 424 94 q 603 100 564 94 q 681 117 643 106 l 651 419 l 772 425 l 792 26 q 649 -7 726 6 q 503 -19 572 -19 m 518 972 q 379 1019 432 972 q 321 1157 326 1067 l 403 1172 q 438 1076 408 1107 q 518 1044 467 1044 q 599 1076 569 1044 q 633 1172 628 1107 l 715 1157 q 657 1019 710 1067 q 518 972 604 972 z "},"ğ":{"ha":799,"x_min":74,"x_max":685,"o":"m 361 -283 q 240 -272 299 -283 q 121 -239 181 -260 l 147 -137 q 257 -169 207 -158 q 357 -179 307 -179 q 471 -156 425 -179 q 541 -84 517 -133 q 565 43 565 -35 l 565 588 l 685 604 l 685 42 q 601 -202 685 -121 q 361 -283 518 -283 m 339 13 q 149 95 224 13 q 74 339 74 178 q 113 522 74 444 q 224 642 151 600 q 397 683 297 683 q 551 661 478 683 q 685 604 625 639 l 618 525 q 509 566 565 551 q 397 581 453 581 q 290 549 335 581 q 220 464 244 518 q 196 344 196 410 q 235 174 196 232 q 351 117 275 117 q 476 144 415 117 q 582 217 536 171 l 613 128 q 495 47 569 82 q 339 13 421 13 m 385 772 q 244 822 299 772 q 185 958 190 872 l 281 969 q 313 886 285 917 q 385 856 340 856 q 458 885 429 856 q 490 968 486 915 l 583 958 q 525 822 578 872 q 385 772 472 772 z "},"Ġ":{"ha":889,"x_min":71,"x_max":792,"o":"m 503 -19 q 274 35 371 -19 q 124 197 176 90 q 71 453 71 303 q 123 705 71 599 q 271 867 175 811 q 494 922 367 922 q 642 906 574 922 q 768 861 711 889 l 749 763 q 627 797 688 785 q 508 808 567 808 q 341 765 411 808 q 235 642 271 722 q 199 454 199 563 q 238 258 199 339 q 351 135 278 176 q 524 94 424 94 q 603 100 564 94 q 681 117 643 106 l 651 419 l 772 425 l 792 26 q 649 -7 726 6 q 503 -19 572 -19 m 519 972 q 451 994 476 972 q 425 1056 425 1017 q 451 1115 425 1093 q 519 1138 476 1138 q 587 1115 563 1138 q 611 1056 611 1093 q 587 994 611 1017 q 519 972 563 972 z "},"ġ":{"ha":799,"x_min":74,"x_max":685,"o":"m 361 -283 q 240 -272 299 -283 q 121 -239 181 -260 l 147 -137 q 257 -169 207 -158 q 357 -179 307 -179 q 471 -156 425 -179 q 541 -84 517 -133 q 565 43 565 -35 l 565 588 l 685 604 l 685 42 q 601 -202 685 -121 q 361 -283 518 -283 m 339 13 q 149 95 224 13 q 74 339 74 178 q 113 522 74 444 q 224 642 151 600 q 397 683 297 683 q 551 661 478 683 q 685 604 625 639 l 618 525 q 509 566 565 551 q 397 581 453 581 q 290 549 335 581 q 220 464 244 518 q 196 344 196 410 q 235 174 196 232 q 351 117 275 117 q 476 144 415 117 q 582 217 536 171 l 613 128 q 495 47 569 82 q 339 13 421 13 m 388 811 q 319 833 344 811 q 293 894 293 856 q 319 954 293 932 q 388 976 344 976 q 455 954 431 976 q 479 894 479 932 q 455 833 479 856 q 388 811 431 811 z "},"Ģ":{"ha":889,"x_min":71,"x_max":792,"o":"m 503 -19 q 274 35 371 -19 q 124 197 176 90 q 71 453 71 303 q 123 705 71 599 q 271 867 175 811 q 494 922 367 922 q 642 906 574 922 q 768 861 711 889 l 749 763 q 627 797 688 785 q 508 808 567 808 q 341 765 411 808 q 235 642 271 722 q 199 454 199 563 q 238 258 199 339 q 351 135 278 176 q 524 94 424 94 q 603 100 564 94 q 681 117 643 106 l 651 419 l 772 425 l 792 26 q 649 -7 726 6 q 503 -19 572 -19 m 351 -276 l 404 -57 l 519 -57 l 435 -279 l 351 -276 z "},"ģ":{"ha":799,"x_min":74,"x_max":685,"o":"m 361 -283 q 240 -272 299 -283 q 121 -239 181 -260 l 147 -137 q 257 -169 207 -158 q 357 -179 307 -179 q 471 -156 425 -179 q 541 -84 517 -133 q 565 43 565 -35 l 565 588 l 685 604 l 685 42 q 601 -202 685 -121 q 361 -283 518 -283 m 339 13 q 149 95 224 13 q 74 339 74 178 q 113 522 74 444 q 224 642 151 600 q 397 683 297 683 q 551 661 478 683 q 685 604 625 639 l 618 525 q 509 566 565 551 q 397 581 453 581 q 290 549 335 581 q 220 464 244 518 q 196 344 196 410 q 235 174 196 232 q 351 117 275 117 q 476 144 415 117 q 582 217 536 171 l 613 128 q 495 47 569 82 q 339 13 421 13 m 457 1038 q 408 969 429 1008 q 381 899 386 931 l 449 876 q 431 820 449 840 q 379 800 413 800 q 304 869 304 800 q 335 972 304 919 q 417 1065 365 1024 l 457 1038 z "},"Ĥ":{"ha":958,"x_min":131,"x_max":829,"o":"m 706 903 l 829 903 l 829 0 l 706 0 l 706 903 m 131 903 l 254 903 l 254 0 l 131 0 l 131 903 m 172 511 l 783 511 l 783 403 l 172 403 l 172 511 m 250 1026 l 456 1179 l 500 1179 l 706 1026 l 654 960 l 478 1079 l 300 960 l 250 1026 z "},"ĥ":{"ha":819,"x_min":-32,"x_max":700,"o":"m 581 400 q 553 524 581 488 q 458 561 526 561 q 342 538 406 561 q 225 476 279 514 l 217 578 q 313 633 263 608 q 417 670 364 657 q 518 683 469 683 q 657 631 614 683 q 700 469 700 579 l 700 0 l 581 0 l 581 400 m 133 867 l 133 867 q 133 975 133 921 q 253 975 176 981 l 253 0 l 133 0 l 133 867 m -32 1042 l 174 1194 l 218 1194 l 424 1042 l 372 975 l 196 1094 l 18 975 l -32 1042 z "},"Ħ":{"ha":958,"x_min":43,"x_max":901,"o":"m 706 903 l 829 903 l 829 0 l 706 0 l 706 903 m 131 903 l 254 903 l 254 0 l 131 0 l 131 903 m 172 511 l 783 511 l 783 403 l 172 403 l 172 511 m 43 758 l 901 758 l 901 678 l 43 678 l 43 758 z "},"ħ":{"ha":819,"x_min":56,"x_max":700,"o":"m 581 400 q 553 524 581 488 q 458 561 526 561 q 342 538 406 561 q 225 476 279 514 l 217 578 q 313 633 263 608 q 417 670 364 657 q 518 683 469 683 q 657 631 614 683 q 700 469 700 579 l 700 0 l 581 0 l 581 400 m 133 975 q 253 975 176 981 l 253 0 l 133 0 l 133 975 m 478 771 l 56 771 l 56 858 l 478 858 l 478 771 z "},"Ĩ":{"ha":625,"x_min":57,"x_max":567,"o":"m 251 903 l 375 903 l 375 0 l 251 0 l 251 903 m 57 110 l 313 103 l 567 110 l 564 0 l 61 0 l 57 110 m 61 903 l 564 903 l 567 794 l 313 801 l 57 794 l 61 903 m 403 979 q 357 991 382 979 q 300 1025 332 1003 q 248 1056 264 1047 q 217 1064 232 1064 q 172 1041 192 1064 q 129 969 153 1018 l 79 990 q 147 1109 114 1071 q 222 1147 181 1147 q 267 1136 243 1147 q 324 1103 290 1125 q 374 1074 354 1083 q 408 1064 393 1064 q 451 1088 431 1064 q 493 1158 471 1111 l 544 1138 q 476 1018 510 1057 q 403 979 443 979 z "},"ĩ":{"ha":424,"x_min":-31,"x_max":468,"o":"m 178 104 l 178 104 l 178 642 l 297 664 l 297 104 l 297 104 l 297 0 l 178 0 l 178 104 m 58 546 q 58 664 54 607 q 178 667 106 667 q 297 664 251 667 l 253 575 l 58 546 m 324 806 q 269 816 296 806 q 203 847 243 826 q 160 867 181 858 q 124 876 139 876 q 77 859 97 876 q 33 799 57 842 l -31 833 q 38 941 4 908 q 115 974 72 974 q 169 963 142 974 q 235 933 197 953 q 283 911 265 918 q 315 904 300 904 q 360 922 339 904 q 403 982 381 940 l 468 947 q 399 838 433 871 q 324 806 365 806 z "},"Ī":{"ha":625,"x_min":57,"x_max":567,"o":"m 251 903 l 375 903 l 375 0 l 251 0 l 251 903 m 57 110 l 313 103 l 567 110 l 564 0 l 61 0 l 57 110 m 61 903 l 564 903 l 567 794 l 313 801 l 57 794 l 61 903 m 93 1071 l 531 1071 l 531 978 l 313 988 l 93 978 l 93 1071 z "},"ī":{"ha":424,"x_min":0,"x_max":438,"o":"m 178 104 l 178 104 l 178 642 l 297 664 l 297 104 l 297 104 l 297 0 l 178 0 l 178 104 m 58 546 q 58 664 54 607 q 178 667 106 667 q 297 664 251 667 l 253 575 l 58 546 m 0 888 l 438 888 l 438 794 l 219 804 l 0 794 l 0 888 z "},"Ĭ":{"ha":625,"x_min":57,"x_max":567,"o":"m 251 903 l 375 903 l 375 0 l 251 0 l 251 903 m 57 110 l 313 103 l 567 110 l 564 0 l 61 0 l 57 110 m 61 903 l 564 903 l 567 794 l 313 801 l 57 794 l 61 903 m 311 972 q 172 1019 225 972 q 114 1157 119 1067 l 196 1172 q 231 1076 201 1107 q 311 1044 260 1044 q 392 1076 363 1044 q 426 1172 421 1107 l 508 1157 q 450 1019 503 1067 q 311 972 397 972 z "},"ĭ":{"ha":424,"x_min":17,"x_max":415,"o":"m 178 104 l 178 104 l 178 642 l 297 664 l 297 104 l 297 104 l 297 0 l 178 0 l 178 104 m 58 546 q 58 664 54 607 q 178 667 106 667 q 297 664 251 667 l 253 575 l 58 546 m 217 772 q 76 822 131 772 q 17 958 22 872 l 113 969 q 144 886 117 917 q 217 856 172 856 q 290 885 261 856 q 322 968 318 915 l 415 958 q 357 822 410 872 q 217 772 304 772 z "},"Į":{"ha":625,"x_min":57,"x_max":567,"o":"m 251 903 l 375 903 l 375 0 l 251 0 l 251 903 m 57 110 l 313 103 l 567 110 l 564 0 l 61 0 l 57 110 m 61 903 l 564 903 l 567 794 l 313 801 l 57 794 l 61 903 m 357 0 q 310 -64 325 -36 q 294 -114 294 -92 q 324 -157 294 -144 q 411 -164 354 -169 l 411 -256 q 238 -231 289 -267 q 186 -137 186 -196 q 213 -62 186 -103 q 286 11 239 -21 l 357 0 z "},"į":{"ha":424,"x_min":54,"x_max":342,"o":"m 178 104 l 178 104 l 178 642 l 297 664 l 297 104 l 297 104 l 297 0 l 178 0 l 178 104 m 58 546 q 58 664 54 607 q 178 667 106 667 q 297 664 251 667 l 253 575 l 58 546 m 219 806 q 151 828 176 806 q 125 889 125 850 q 151 949 125 926 q 219 971 176 971 q 287 949 263 971 q 311 889 311 926 q 287 828 311 850 q 219 806 263 806 m 288 0 q 240 -64 256 -36 q 225 -114 225 -92 q 255 -157 225 -144 q 342 -164 285 -169 l 342 -256 q 168 -231 219 -267 q 117 -137 117 -196 q 143 -62 117 -103 q 217 11 169 -21 l 288 0 z "},"İ":{"ha":625,"x_min":57,"x_max":567,"o":"m 251 903 l 375 903 l 375 0 l 251 0 l 251 903 m 57 110 l 313 103 l 567 110 l 564 0 l 61 0 l 57 110 m 61 903 l 564 903 l 567 794 l 313 801 l 57 794 l 61 903 m 313 972 q 244 994 269 972 q 218 1056 218 1017 q 244 1115 218 1093 q 313 1138 269 1138 q 380 1115 356 1138 q 404 1056 404 1093 q 380 994 404 1017 q 313 972 356 972 z "},"ı":{"ha":424,"x_min":54,"x_max":297,"o":"m 178 104 l 178 104 l 178 642 l 297 664 l 297 104 l 297 104 l 297 0 l 178 0 l 178 104 m 58 546 q 58 664 54 607 q 178 667 106 667 q 297 664 251 667 l 253 575 l 58 546 z "},"Ĳ":{"ha":1278,"x_min":50,"x_max":1186,"o":"m 913 -19 q 786 -3 850 -19 q 661 42 722 14 l 682 143 q 796 110 742 122 q 897 99 850 99 q 1028 144 988 99 q 1068 296 1068 189 l 1068 903 l 1186 903 l 1186 281 q 1116 51 1186 122 q 913 -19 1046 -19 m 50 110 l 313 103 l 575 110 l 572 0 l 54 0 l 50 110 m 251 903 l 375 903 l 375 0 l 251 0 l 251 903 m 54 903 l 572 903 l 575 794 l 313 801 l 50 794 l 54 903 m 750 903 l 1100 903 l 1100 794 l 743 786 l 750 903 z "},"ĳ":{"ha":854,"x_min":26,"x_max":765,"o":"m 536 -276 q 446 -267 494 -276 q 357 -242 397 -257 q 375 -140 364 -183 q 448 -160 414 -153 q 522 -167 482 -167 q 601 -135 572 -167 q 629 -31 629 -104 l 629 649 l 749 664 l 749 -40 q 692 -220 749 -164 q 536 -276 635 -276 m 172 104 l 172 104 l 172 642 l 292 664 l 292 104 l 292 104 l 292 0 l 172 0 l 172 104 m 31 546 q 31 664 26 606 q 167 667 89 667 q 292 664 244 667 l 247 575 l 31 546 m 215 806 q 147 828 172 806 q 121 889 121 850 q 147 949 121 926 q 215 971 172 971 q 283 949 258 971 q 307 889 307 926 q 283 828 307 850 q 215 806 258 806 m 464 546 q 464 664 460 606 q 743 664 571 668 l 704 575 l 464 546 m 674 806 q 605 828 631 806 q 579 889 579 850 q 605 949 579 926 q 674 971 631 971 q 741 949 717 971 q 765 889 765 926 q 741 828 765 850 q 674 806 717 806 z "},"Ĵ":{"ha":653,"x_min":43,"x_max":554,"o":"m 286 -19 q 164 -3 226 -19 q 43 42 101 14 l 64 143 q 174 110 121 122 q 271 99 226 99 q 397 144 358 99 q 435 296 435 189 l 435 903 l 554 903 l 554 281 q 485 51 554 122 q 286 -19 417 -19 m 129 903 l 467 903 l 467 794 l 122 786 l 129 903 m 71 1026 l 276 1179 l 321 1179 l 526 1026 l 475 960 l 299 1079 l 121 960 l 71 1026 z "},"ĵ":{"ha":424,"x_min":-29,"x_max":463,"o":"m 117 -276 q 44 -270 82 -276 q -29 -251 6 -264 q -11 -150 -24 -196 q 43 -162 19 -158 q 88 -167 67 -167 q 156 -136 133 -167 q 178 -31 178 -106 l 178 649 l 297 664 l 297 -40 q 249 -220 297 -164 q 117 -276 201 -276 m 58 546 q 58 664 54 608 q 292 664 124 668 l 253 575 l 58 546 m 7 804 l 213 971 l 257 971 l 463 804 l 411 738 l 235 864 l 57 738 l 7 804 z "},"Ķ":{"ha":826,"x_min":129,"x_max":792,"o":"m 129 732 l 129 782 l 129 782 q 129 901 129 842 q 191 903 160 903 q 253 903 222 903 l 253 0 l 129 0 l 129 732 m 242 390 q 399 546 324 460 q 532 725 475 632 q 614 903 589 818 q 742 903 678 903 q 631 666 704 782 q 457 447 557 550 q 242 263 357 344 l 242 390 m 654 0 q 535 230 607 100 q 413 439 464 360 l 500 499 q 653 256 571 396 q 792 0 735 115 l 654 0 m 313 -276 l 365 -57 l 481 -57 l 396 -279 l 313 -276 z "},"ķ":{"ha":743,"x_min":124,"x_max":735,"o":"m 213 317 q 359 410 286 351 q 487 535 432 468 q 564 664 542 603 q 697 664 629 668 q 595 493 661 578 q 434 333 529 408 q 221 204 339 257 l 213 317 m 597 0 q 476 190 557 65 q 397 313 438 251 l 478 381 q 735 0 628 175 l 597 0 m 124 860 l 124 860 q 124 972 124 917 q 183 974 157 974 q 243 972 210 974 l 243 0 l 124 0 l 124 860 m 265 -276 l 318 -57 l 433 -57 l 349 -279 l 265 -276 z "},"ĸ":{"ha":743,"x_min":125,"x_max":708,"o":"m 213 256 q 356 399 297 333 q 456 528 414 465 q 532 664 497 592 q 671 664 624 667 q 568 482 635 576 q 410 297 501 388 q 213 136 319 206 l 213 256 m 567 0 q 447 183 517 82 q 401 253 424 218 q 356 322 378 288 l 461 365 q 585 190 519 288 q 708 0 651 92 l 567 0 m 125 551 l 125 551 q 125 664 125 608 q 185 665 158 665 q 244 664 211 665 l 244 0 l 125 0 l 125 551 z "},"Ĺ":{"ha":694,"x_min":97,"x_max":669,"o":"m 128 903 l 251 903 l 251 104 l 588 108 l 588 108 l 588 108 q 669 108 629 108 l 664 0 l 128 0 l 128 903 m 139 965 l 97 1043 l 360 1172 l 406 1057 l 139 965 z "},"ĺ":{"ha":410,"x_min":25,"x_max":354,"o":"m 149 104 l 149 104 l 149 949 l 268 972 l 268 104 l 268 104 l 268 0 l 149 0 l 149 104 m 29 854 q 29 972 25 911 q 154 975 86 975 q 268 972 222 975 l 225 883 q 161 875 193 879 q 94 865 117 868 q 29 854 72 861 m 88 1035 l 46 1113 l 308 1242 l 354 1126 l 88 1035 z "},"Ļ":{"ha":694,"x_min":128,"x_max":669,"o":"m 128 903 l 251 903 l 251 104 l 588 108 l 588 108 l 588 108 q 669 108 629 108 l 664 0 l 128 0 l 128 903 m 247 -276 l 300 -57 l 415 -57 l 331 -279 l 247 -276 z "},"ļ":{"ha":410,"x_min":25,"x_max":269,"o":"m 149 104 l 149 104 l 149 949 l 268 972 l 268 104 l 268 104 l 268 0 l 149 0 l 149 104 m 29 854 q 29 972 25 911 q 154 975 86 975 q 268 972 222 975 l 225 883 q 161 875 193 879 q 94 865 117 868 q 29 854 72 861 m 101 -276 l 154 -57 l 269 -57 l 185 -279 l 101 -276 z "},"Ľ":{"ha":694,"x_min":128,"x_max":669,"o":"m 128 903 l 251 903 l 251 104 l 588 108 l 588 108 l 588 108 q 669 108 629 108 l 664 0 l 128 0 l 128 903 m 522 903 l 622 903 l 626 846 l 593 557 l 525 557 l 522 903 z "},"ľ":{"ha":571,"x_min":25,"x_max":468,"o":"m 149 104 l 149 104 l 149 949 l 268 972 l 268 104 l 268 104 l 268 0 l 149 0 l 149 104 m 29 854 q 29 972 25 911 q 154 975 86 975 q 268 972 222 975 l 225 883 q 161 875 193 879 q 94 865 117 868 q 29 854 72 861 m 364 972 l 464 972 l 468 915 l 435 626 l 367 626 l 364 972 z "},"Ŀ":{"ha":694,"x_min":128,"x_max":669,"o":"m 128 903 l 251 903 l 251 104 l 588 108 l 588 108 l 588 108 q 669 108 629 108 l 664 0 l 128 0 l 128 903 m 446 390 q 394 406 412 390 q 375 452 375 423 q 394 496 375 480 q 446 513 412 513 q 497 496 478 513 q 516 452 516 480 q 497 406 516 423 q 446 390 478 390 z "},"ŀ":{"ha":410,"x_min":25,"x_max":493,"o":"m 149 104 l 149 104 l 149 949 l 268 972 l 268 104 l 268 104 l 268 0 l 149 0 l 149 104 m 29 854 q 29 972 25 911 q 154 975 86 975 q 268 972 222 975 l 225 883 q 161 875 193 879 q 94 865 117 868 q 29 854 72 861 m 427 344 q 378 361 396 344 q 360 409 360 379 q 378 456 360 438 q 427 473 396 473 q 475 456 457 473 q 493 409 493 438 q 475 361 493 379 q 427 344 457 344 z "},"Ł":{"ha":694,"x_min":-1,"x_max":669,"o":"m 128 903 l 251 903 l 251 104 l 588 108 l 588 108 l 588 108 q 669 108 629 108 l 664 0 l 128 0 l 128 903 m 407 657 l 443 574 l 35 365 l -1 449 l 407 657 z "},"ł":{"ha":410,"x_min":10,"x_max":403,"o":"m 149 104 l 149 104 l 149 949 l 268 972 l 268 104 l 268 104 l 268 0 l 149 0 l 149 104 m 29 854 q 29 972 25 911 q 154 975 86 975 q 268 972 222 975 l 225 883 q 161 875 193 879 q 94 865 117 868 q 29 854 72 861 m 10 393 l 363 590 l 403 522 l 46 328 l 10 393 z "},"Ń":{"ha":958,"x_min":131,"x_max":829,"o":"m 131 903 l 244 903 l 725 178 l 713 175 l 706 903 l 829 903 l 829 0 l 717 0 l 235 724 l 246 728 l 253 0 l 131 0 l 131 903 m 368 965 l 326 1043 l 589 1172 l 635 1057 l 368 965 z "},"ń":{"ha":819,"x_min":133,"x_max":700,"o":"m 581 419 q 569 506 581 476 q 531 549 557 536 q 458 561 506 561 q 344 533 407 561 q 225 463 281 506 l 213 564 q 326 635 276 610 q 418 672 375 661 q 506 683 461 683 q 654 628 608 683 q 700 460 700 572 l 700 0 l 581 0 l 581 419 m 133 554 l 133 554 q 133 663 133 608 q 181 665 157 665 q 233 664 206 665 l 253 514 l 253 0 l 133 0 l 133 554 m 381 756 l 325 807 l 508 1001 q 556 969 533 988 q 600 926 578 951 l 381 756 z "},"Ņ":{"ha":958,"x_min":131,"x_max":829,"o":"m 131 903 l 244 903 l 725 178 l 713 175 l 706 903 l 829 903 l 829 0 l 717 0 l 235 724 l 246 728 l 253 0 l 131 0 l 131 903 m 372 -276 l 425 -57 l 540 -57 l 456 -279 l 372 -276 z "},"ņ":{"ha":819,"x_min":133,"x_max":700,"o":"m 581 419 q 569 506 581 476 q 531 549 557 536 q 458 561 506 561 q 344 533 407 561 q 225 463 281 506 l 213 564 q 326 635 276 610 q 418 672 375 661 q 506 683 461 683 q 654 628 608 683 q 700 460 700 572 l 700 0 l 581 0 l 581 419 m 133 554 l 133 554 q 133 663 133 608 q 181 665 157 665 q 233 664 206 665 l 253 514 l 253 0 l 133 0 l 133 554 m 304 -276 l 357 -57 l 472 -57 l 388 -279 l 304 -276 z "},"Ň":{"ha":958,"x_min":131,"x_max":829,"o":"m 131 903 l 244 903 l 725 178 l 713 175 l 706 903 l 829 903 l 829 0 l 717 0 l 235 724 l 246 728 l 253 0 l 131 0 l 131 903 m 479 1065 l 656 1192 l 707 1125 l 501 958 l 457 958 l 251 1125 l 301 1192 l 479 1065 z "},"ň":{"ha":819,"x_min":133,"x_max":700,"o":"m 581 419 q 569 506 581 476 q 531 549 557 536 q 458 561 506 561 q 344 533 407 561 q 225 463 281 506 l 213 564 q 326 635 276 610 q 418 672 375 661 q 506 683 461 683 q 654 628 608 683 q 700 460 700 572 l 700 0 l 581 0 l 581 419 m 133 554 l 133 554 q 133 663 133 608 q 181 665 157 665 q 233 664 206 665 l 253 514 l 253 0 l 133 0 l 133 554 m 411 871 l 588 997 l 639 931 l 433 764 l 389 764 l 183 931 l 233 997 l 411 871 z "},"Ŋ":{"ha":958,"x_min":131,"x_max":829,"o":"m 131 903 l 244 903 l 725 178 l 713 175 l 706 903 l 829 903 l 829 24 l 717 0 l 235 724 l 246 728 l 253 0 l 131 0 l 131 903 m 631 -282 q 576 -277 600 -282 q 525 -262 551 -272 l 543 -151 q 588 -162 571 -160 q 622 -165 604 -165 q 688 -132 665 -165 q 711 -17 711 -99 l 711 121 l 829 121 l 829 -18 q 802 -174 829 -115 q 731 -258 775 -233 q 631 -282 686 -282 z "},"ŋ":{"ha":819,"x_min":133,"x_max":700,"o":"m 581 419 q 569 506 581 476 q 531 549 557 536 q 458 561 506 561 q 344 533 407 561 q 225 463 281 506 l 213 564 q 326 635 276 610 q 418 672 375 661 q 506 683 461 683 q 654 628 608 683 q 700 460 700 572 l 700 0 l 581 0 l 581 419 m 133 554 l 133 554 q 133 663 133 608 q 181 665 157 665 q 233 664 206 665 l 253 514 l 253 0 l 133 0 l 133 554 m 700 -26 q 636 -232 700 -167 q 454 -297 572 -297 q 363 -289 413 -297 q 272 -268 314 -281 l 290 -167 q 425 -186 364 -186 q 540 -145 500 -186 q 581 -10 581 -104 l 581 88 l 700 88 l 700 -26 z "},"Ō":{"ha":944,"x_min":71,"x_max":874,"o":"m 472 -19 q 260 38 351 -19 q 120 202 169 96 q 71 451 71 308 q 120 701 71 594 q 260 865 169 807 q 472 922 351 922 q 684 865 593 922 q 824 701 775 807 q 874 451 874 594 q 824 202 874 308 q 684 38 775 96 q 472 -19 593 -19 m 471 97 q 617 141 554 97 q 713 265 679 185 q 747 451 747 344 q 713 639 747 558 q 617 763 679 719 q 471 807 554 807 q 325 764 388 807 q 229 640 263 721 q 196 451 196 560 q 229 264 196 344 q 325 140 263 183 q 471 97 388 97 m 251 1071 l 689 1071 l 689 978 l 471 988 l 251 978 l 251 1071 z "},"ō":{"ha":764,"x_min":61,"x_max":701,"o":"m 381 -19 q 210 23 282 -19 q 99 144 138 65 q 61 332 61 224 q 99 519 61 440 q 210 641 138 599 q 381 683 282 683 q 552 641 479 683 q 663 519 625 599 q 701 332 701 440 q 663 144 701 224 q 552 23 625 65 q 381 -19 479 -19 m 379 85 q 488 113 443 85 q 555 196 532 140 q 578 332 578 251 q 555 469 578 414 q 488 551 532 524 q 379 579 443 579 q 274 551 317 579 q 208 469 231 524 q 185 332 185 414 q 208 196 185 251 q 274 113 231 140 q 379 85 317 85 m 161 888 l 599 888 l 599 794 l 381 804 l 161 794 l 161 888 z "},"Ŏ":{"ha":944,"x_min":71,"x_max":874,"o":"m 472 -19 q 260 38 351 -19 q 120 202 169 96 q 71 451 71 308 q 120 701 71 594 q 260 865 169 807 q 472 922 351 922 q 684 865 593 922 q 824 701 775 807 q 874 451 874 594 q 824 202 874 308 q 684 38 775 96 q 472 -19 593 -19 m 471 97 q 617 141 554 97 q 713 265 679 185 q 747 451 747 344 q 713 639 747 558 q 617 763 679 719 q 471 807 554 807 q 325 764 388 807 q 229 640 263 721 q 196 451 196 560 q 229 264 196 344 q 325 140 263 183 q 471 97 388 97 m 469 972 q 331 1019 383 972 q 272 1157 278 1067 l 354 1172 q 389 1076 360 1107 q 469 1044 418 1044 q 550 1076 521 1044 q 585 1172 579 1107 l 667 1157 q 608 1019 661 1067 q 469 972 556 972 z "},"ŏ":{"ha":764,"x_min":61,"x_max":701,"o":"m 381 -19 q 210 23 282 -19 q 99 144 138 65 q 61 332 61 224 q 99 519 61 440 q 210 641 138 599 q 381 683 282 683 q 552 641 479 683 q 663 519 625 599 q 701 332 701 440 q 663 144 701 224 q 552 23 625 65 q 381 -19 479 -19 m 379 85 q 488 113 443 85 q 555 196 532 140 q 578 332 578 251 q 555 469 578 414 q 488 551 532 524 q 379 579 443 579 q 274 551 317 579 q 208 469 231 524 q 185 332 185 414 q 208 196 185 251 q 274 113 231 140 q 379 85 317 85 m 378 772 q 238 822 292 772 q 178 958 183 872 l 274 969 q 306 886 278 917 q 378 856 333 856 q 451 885 422 856 q 483 968 479 915 l 576 958 q 518 822 571 872 q 378 772 465 772 z "},"Ő":{"ha":944,"x_min":71,"x_max":874,"o":"m 472 -19 q 260 38 351 -19 q 120 202 169 96 q 71 451 71 308 q 120 701 71 594 q 260 865 169 807 q 472 922 351 922 q 684 865 593 922 q 824 701 775 807 q 874 451 874 594 q 824 202 874 308 q 684 38 775 96 q 472 -19 593 -19 m 471 97 q 617 141 554 97 q 713 265 679 185 q 747 451 747 344 q 713 639 747 558 q 617 763 679 719 q 471 807 554 807 q 325 764 388 807 q 229 640 263 721 q 196 451 196 560 q 229 264 196 344 q 325 140 263 183 q 471 97 388 97 m 485 1044 l 711 1217 l 774 1111 l 536 975 l 485 1044 m 258 1044 l 485 1217 l 547 1111 l 311 975 l 258 1044 z "},"ő":{"ha":764,"x_min":61,"x_max":715,"o":"m 381 -19 q 210 23 282 -19 q 99 144 138 65 q 61 332 61 224 q 99 519 61 440 q 210 641 138 599 q 381 683 282 683 q 552 641 479 683 q 663 519 625 599 q 701 332 701 440 q 663 144 701 224 q 552 23 625 65 q 381 -19 479 -19 m 379 85 q 488 113 443 85 q 555 196 532 140 q 578 332 578 251 q 555 469 578 414 q 488 551 532 524 q 379 579 443 579 q 274 551 317 579 q 208 469 231 524 q 185 332 185 414 q 208 196 185 251 q 274 113 231 140 q 379 85 317 85 m 260 794 l 211 828 l 381 1044 l 472 990 l 260 794 m 501 796 l 453 829 l 625 1044 l 715 989 l 501 796 z "},"Œ":{"ha":1181,"x_min":74,"x_max":1119,"o":"m 557 0 q 202 116 331 0 q 74 451 74 232 q 202 787 74 671 q 557 903 331 903 l 557 786 q 367 749 447 786 q 243 636 286 711 q 200 451 200 561 q 243 267 200 342 q 367 155 286 192 q 557 118 447 118 l 557 0 m 651 104 l 1119 113 l 1113 0 l 586 0 l 651 104 m 551 903 l 675 903 l 675 0 l 551 0 l 551 903 m 658 421 l 658 515 l 1031 525 l 1031 414 l 658 421 m 651 799 l 656 903 l 1099 903 l 1106 792 l 651 799 z "},"œ":{"ha":1236,"x_min":85,"x_max":1154,"o":"m 390 -19 q 231 22 300 -19 q 124 143 163 64 q 85 332 85 222 q 124 521 85 442 q 231 642 163 600 q 390 683 300 683 q 535 640 472 683 q 633 516 599 596 q 668 332 668 436 q 633 148 668 228 q 535 24 599 68 q 390 -19 472 -19 m 390 85 q 485 115 444 85 q 549 202 526 146 q 572 332 572 258 q 549 462 572 406 q 485 549 526 518 q 390 579 444 579 q 294 552 338 579 q 226 469 251 525 q 201 332 201 414 q 226 196 201 251 q 294 113 251 140 q 390 85 338 85 m 901 -19 q 737 24 808 -19 q 626 148 665 68 q 586 332 586 228 q 622 516 586 436 q 724 640 658 596 q 875 683 789 683 q 1022 645 960 683 q 1119 528 1085 607 q 1154 332 1154 449 q 1151 292 1154 308 l 1044 318 q 1046 333 1046 321 q 1002 522 1046 463 q 875 581 958 581 q 774 550 818 581 q 706 463 731 519 q 682 333 682 407 q 710 203 682 260 q 790 116 739 147 q 907 85 840 85 q 1012 97 956 85 q 1108 131 1068 110 l 1129 31 q 1023 -6 1082 7 q 901 -19 964 -19 m 614 389 q 877 389 792 389 q 1135 389 963 389 l 1151 292 q 880 292 968 292 q 614 292 792 292 l 614 389 z "},"Ŕ":{"ha":842,"x_min":131,"x_max":776,"o":"m 217 421 l 435 435 q 570 489 521 440 q 619 615 619 538 q 570 744 619 697 q 435 792 521 792 l 219 792 l 254 903 l 435 903 q 663 826 579 903 q 747 615 747 749 q 710 474 747 536 q 603 374 674 411 q 435 331 532 338 l 217 317 l 217 421 m 639 0 q 538 202 589 106 q 451 354 488 299 l 560 379 q 667 205 608 306 q 776 0 725 104 l 639 0 m 131 732 l 131 782 l 131 782 q 131 903 131 843 l 254 903 l 254 0 l 131 0 l 131 732 m 301 965 l 260 1043 l 522 1172 l 568 1057 l 301 965 z "},"ŕ":{"ha":556,"x_min":129,"x_max":540,"o":"m 129 106 l 129 106 l 129 565 l 129 565 q 129 664 129 615 q 190 667 165 667 q 249 664 215 667 l 249 533 q 381 625 318 589 q 524 681 443 661 q 535 546 540 628 q 386 508 453 536 q 250 429 319 479 l 249 106 l 249 106 l 249 0 l 129 0 l 129 106 m 318 756 l 263 807 l 446 1001 q 493 969 471 988 q 538 926 515 951 l 318 756 z "},"Ŗ":{"ha":842,"x_min":131,"x_max":776,"o":"m 217 421 l 435 435 q 570 489 521 440 q 619 615 619 538 q 570 744 619 697 q 435 792 521 792 l 219 792 l 254 903 l 435 903 q 663 826 579 903 q 747 615 747 749 q 710 474 747 536 q 603 374 674 411 q 435 331 532 338 l 217 317 l 217 421 m 639 0 q 538 202 589 106 q 451 354 488 299 l 560 379 q 667 205 608 306 q 776 0 725 104 l 639 0 m 131 732 l 131 782 l 131 782 q 131 903 131 843 l 254 903 l 254 0 l 131 0 l 131 732 m 306 -276 l 358 -57 l 474 -57 l 389 -279 l 306 -276 z "},"ŗ":{"ha":556,"x_min":74,"x_max":540,"o":"m 129 106 l 129 106 l 129 565 l 129 565 q 129 664 129 615 q 190 667 165 667 q 249 664 215 667 l 249 533 q 381 625 318 589 q 524 681 443 661 q 535 546 540 628 q 386 508 453 536 q 250 429 319 479 l 249 106 l 249 106 l 249 0 l 129 0 l 129 106 m 74 -276 l 126 -57 l 242 -57 l 157 -279 l 74 -276 z "},"Ř":{"ha":842,"x_min":131,"x_max":776,"o":"m 217 421 l 435 435 q 570 489 521 440 q 619 615 619 538 q 570 744 619 697 q 435 792 521 792 l 219 792 l 254 903 l 435 903 q 663 826 579 903 q 747 615 747 749 q 710 474 747 536 q 603 374 674 411 q 435 331 532 338 l 217 317 l 217 421 m 639 0 q 538 202 589 106 q 451 354 488 299 l 560 379 q 667 205 608 306 q 776 0 725 104 l 639 0 m 131 732 l 131 782 l 131 782 q 131 903 131 843 l 254 903 l 254 0 l 131 0 l 131 732 m 413 1065 l 589 1192 l 640 1125 l 435 958 l 390 958 l 185 1125 l 235 1192 l 413 1065 z "},"ř":{"ha":556,"x_min":121,"x_max":576,"o":"m 129 106 l 129 106 l 129 565 l 129 565 q 129 664 129 615 q 190 667 165 667 q 249 664 215 667 l 249 533 q 381 625 318 589 q 524 681 443 661 q 535 546 540 628 q 386 508 453 536 q 250 429 319 479 l 249 106 l 249 106 l 249 0 l 129 0 l 129 106 m 349 871 l 525 997 l 576 931 l 371 764 l 326 764 l 121 931 l 171 997 l 349 871 z "},"Ś":{"ha":722,"x_min":49,"x_max":674,"o":"m 372 -19 q 206 -5 288 -19 q 49 38 125 10 l 67 139 q 223 106 144 117 q 371 94 301 94 q 502 130 454 94 q 550 229 550 165 q 530 302 550 272 q 465 355 510 332 q 344 399 419 378 q 185 460 246 426 q 93 543 124 494 q 63 661 63 592 q 141 850 63 785 q 365 915 219 915 q 503 907 442 915 q 624 879 564 899 q 608 772 617 813 q 495 795 551 789 q 363 801 439 801 q 233 767 279 801 q 188 669 188 733 q 206 601 188 629 q 265 553 225 574 q 371 513 304 532 q 545 444 479 481 q 642 356 611 407 q 674 232 674 304 q 595 46 674 111 q 372 -19 517 -19 m 263 967 l 221 1044 l 483 1174 l 529 1058 l 263 967 z "},"ś":{"ha":590,"x_min":42,"x_max":549,"o":"m 60 496 q 119 635 60 586 q 292 683 178 683 q 413 672 354 683 q 524 635 471 660 q 503 536 518 586 q 394 569 443 560 q 294 579 344 579 q 209 558 238 579 q 181 496 181 538 q 192 448 181 465 q 232 419 204 431 q 314 394 260 407 q 458 345 407 374 q 528 277 508 317 q 549 182 549 238 q 479 33 549 86 q 293 -19 410 -19 q 158 -5 226 -19 q 42 35 90 10 l 64 143 q 174 107 117 119 q 285 94 232 94 q 390 117 353 94 q 428 181 428 139 q 399 243 428 222 q 300 278 371 264 q 158 324 211 294 q 83 394 106 353 q 60 496 60 436 m 278 756 l 222 807 l 406 1001 q 453 969 431 988 q 497 926 475 951 l 278 756 z "},"Ŝ":{"ha":722,"x_min":49,"x_max":674,"o":"m 372 -19 q 206 -5 288 -19 q 49 38 125 10 l 67 139 q 223 106 144 117 q 371 94 301 94 q 502 130 454 94 q 550 229 550 165 q 530 302 550 272 q 465 355 510 332 q 344 399 419 378 q 185 460 246 426 q 93 543 124 494 q 63 661 63 592 q 141 850 63 785 q 365 915 219 915 q 503 907 442 915 q 624 879 564 899 q 608 772 617 813 q 495 795 551 789 q 363 801 439 801 q 233 767 279 801 q 188 669 188 733 q 206 601 188 629 q 265 553 225 574 q 371 513 304 532 q 545 444 479 481 q 642 356 611 407 q 674 232 674 304 q 595 46 674 111 q 372 -19 517 -19 m 146 1028 l 351 1181 l 396 1181 l 601 1028 l 550 961 l 374 1081 l 196 961 l 146 1028 z "},"ŝ":{"ha":590,"x_min":42,"x_max":549,"o":"m 60 496 q 119 635 60 586 q 292 683 178 683 q 413 672 354 683 q 524 635 471 660 q 503 536 518 586 q 394 569 443 560 q 294 579 344 579 q 209 558 238 579 q 181 496 181 538 q 192 448 181 465 q 232 419 204 431 q 314 394 260 407 q 458 345 407 374 q 528 277 508 317 q 549 182 549 238 q 479 33 549 86 q 293 -19 410 -19 q 158 -5 226 -19 q 42 35 90 10 l 64 143 q 174 107 117 119 q 285 94 232 94 q 390 117 353 94 q 428 181 428 139 q 399 243 428 222 q 300 278 371 264 q 158 324 211 294 q 83 394 106 353 q 60 496 60 436 m 81 804 l 286 971 l 331 971 l 536 804 l 485 738 l 308 864 l 131 738 l 81 804 z "},"Ş":{"ha":722,"x_min":49,"x_max":674,"o":"m 372 -19 q 206 -5 288 -19 q 49 38 125 10 l 67 139 q 223 106 144 117 q 371 94 301 94 q 502 130 454 94 q 550 229 550 165 q 530 302 550 272 q 465 355 510 332 q 344 399 419 378 q 185 460 246 426 q 93 543 124 494 q 63 661 63 592 q 141 850 63 785 q 365 915 219 915 q 503 907 442 915 q 624 879 564 899 q 608 772 617 813 q 495 795 551 789 q 363 801 439 801 q 233 767 279 801 q 188 669 188 733 q 206 601 188 629 q 265 553 225 574 q 371 513 304 532 q 545 444 479 481 q 642 356 611 407 q 674 232 674 304 q 595 46 674 111 q 372 -19 517 -19 m 233 -236 l 321 13 l 404 10 l 346 -256 l 233 -236 z "},"ş":{"ha":590,"x_min":42,"x_max":549,"o":"m 60 496 q 119 635 60 586 q 292 683 178 683 q 413 672 354 683 q 524 635 471 660 q 503 536 518 586 q 394 569 443 560 q 294 579 344 579 q 209 558 238 579 q 181 496 181 538 q 192 448 181 465 q 232 419 204 431 q 314 394 260 407 q 458 345 407 374 q 528 277 508 317 q 549 182 549 238 q 479 33 549 86 q 293 -19 410 -19 q 158 -5 226 -19 q 42 35 90 10 l 64 143 q 174 107 117 119 q 285 94 232 94 q 390 117 353 94 q 428 181 428 139 q 399 243 428 222 q 300 278 371 264 q 158 324 211 294 q 83 394 106 353 q 60 496 60 436 m 185 -232 l 272 17 l 356 14 l 297 -251 l 185 -232 z "},"Š":{"ha":722,"x_min":49,"x_max":674,"o":"m 372 -19 q 206 -5 288 -19 q 49 38 125 10 l 67 139 q 223 106 144 117 q 371 94 301 94 q 502 130 454 94 q 550 229 550 165 q 530 302 550 272 q 465 355 510 332 q 344 399 419 378 q 185 460 246 426 q 93 543 124 494 q 63 661 63 592 q 141 850 63 785 q 365 915 219 915 q 503 907 442 915 q 624 879 564 899 q 608 772 617 813 q 495 795 551 789 q 363 801 439 801 q 233 767 279 801 q 188 669 188 733 q 206 601 188 629 q 265 553 225 574 q 371 513 304 532 q 545 444 479 481 q 642 356 611 407 q 674 232 674 304 q 595 46 674 111 q 372 -19 517 -19 m 374 1067 l 550 1193 l 601 1126 l 396 960 l 351 960 l 146 1126 l 196 1193 l 374 1067 z "},"š":{"ha":590,"x_min":42,"x_max":549,"o":"m 60 496 q 119 635 60 586 q 292 683 178 683 q 413 672 354 683 q 524 635 471 660 q 503 536 518 586 q 394 569 443 560 q 294 579 344 579 q 209 558 238 579 q 181 496 181 538 q 192 448 181 465 q 232 419 204 431 q 314 394 260 407 q 458 345 407 374 q 528 277 508 317 q 549 182 549 238 q 479 33 549 86 q 293 -19 410 -19 q 158 -5 226 -19 q 42 35 90 10 l 64 143 q 174 107 117 119 q 285 94 232 94 q 390 117 353 94 q 428 181 428 139 q 399 243 428 222 q 300 278 371 264 q 158 324 211 294 q 83 394 106 353 q 60 496 60 436 m 308 871 l 485 997 l 536 931 l 331 764 l 286 764 l 81 931 l 131 997 l 308 871 z "},"Ţ":{"ha":708,"x_min":21,"x_max":689,"o":"m 292 792 l 21 792 l 21 903 l 689 903 l 689 792 l 417 792 l 417 0 l 292 0 l 292 792 m 231 -232 l 318 17 l 401 14 l 343 -251 l 231 -232 z "},"ţ":{"ha":583,"x_min":18,"x_max":556,"o":"m 375 -19 q 218 42 272 -19 q 164 244 164 103 l 164 610 l 171 619 l 163 863 l 296 863 l 274 621 l 283 611 l 283 240 q 310 122 283 154 q 382 90 336 90 q 469 100 428 90 q 543 126 511 110 q 556 25 556 64 q 474 -6 528 8 q 375 -19 419 -19 m 18 664 l 550 664 q 550 546 554 606 l 226 561 l 18 547 l 18 664 m 253 -239 l 340 10 l 424 7 l 365 -258 l 253 -239 z "},"Ť":{"ha":708,"x_min":21,"x_max":689,"o":"m 292 792 l 21 792 l 21 903 l 689 903 l 689 792 l 417 792 l 417 0 l 292 0 l 292 792 m 354 1065 l 531 1192 l 582 1125 l 376 958 l 332 958 l 126 1125 l 176 1192 l 354 1065 z "},"ť":{"ha":583,"x_min":18,"x_max":557,"o":"m 375 -19 q 218 42 272 -19 q 164 244 164 103 l 164 610 l 171 619 l 163 863 l 296 863 l 274 621 l 283 611 l 283 240 q 310 122 283 154 q 382 90 336 90 q 469 100 428 90 q 543 126 511 110 q 556 25 556 64 q 474 -6 528 8 q 375 -19 419 -19 m 18 664 l 550 664 q 550 546 554 606 l 226 561 l 18 547 l 18 664 m 453 1100 l 553 1100 l 557 1043 l 524 754 l 456 754 l 453 1100 z "},"Ŧ":{"ha":708,"x_min":21,"x_max":689,"o":"m 292 792 l 21 792 l 21 903 l 689 903 l 689 792 l 417 792 l 417 0 l 292 0 l 292 792 m 156 499 q 553 499 354 494 q 553 403 553 451 q 156 403 354 407 q 156 499 154 451 z "},"ŧ":{"ha":583,"x_min":18,"x_max":556,"o":"m 375 -19 q 218 42 272 -19 q 164 244 164 103 l 164 610 l 171 619 l 163 863 l 296 863 l 274 621 l 283 611 l 283 240 q 310 122 283 154 q 382 90 336 90 q 469 100 428 90 q 543 126 511 110 q 556 25 556 64 q 474 -6 528 8 q 375 -19 419 -19 m 18 664 l 550 664 q 550 546 554 606 l 226 561 l 18 547 l 18 664 m 482 332 l 60 332 l 60 419 l 482 419 l 482 332 z "},"Ũ":{"ha":917,"x_min":101,"x_max":817,"o":"m 458 -19 q 193 79 285 -19 q 101 363 101 178 l 101 903 l 225 903 l 225 363 q 283 166 225 233 q 458 99 342 99 q 631 166 571 99 q 692 363 692 233 l 692 903 l 817 903 l 817 363 q 722 80 817 179 q 458 -19 628 -19 m 549 979 q 503 991 528 979 q 446 1025 478 1003 q 394 1056 410 1047 q 363 1064 378 1064 q 318 1041 338 1064 q 275 969 299 1018 l 225 990 q 293 1109 260 1071 q 368 1147 326 1147 q 413 1136 389 1147 q 469 1103 436 1125 q 519 1074 500 1083 q 554 1064 539 1064 q 597 1088 576 1064 q 639 1158 617 1111 l 690 1138 q 622 1018 656 1057 q 549 979 589 979 z "},"ũ":{"ha":813,"x_min":119,"x_max":682,"o":"m 239 251 q 251 161 239 193 q 289 117 263 129 q 363 104 315 104 q 469 131 410 104 q 590 201 528 157 l 607 107 q 512 41 561 69 q 410 -3 463 13 q 308 -19 358 -19 q 166 33 213 -19 q 119 194 119 86 l 119 664 l 239 664 l 239 251 m 682 110 l 682 110 q 682 1 682 56 q 582 0 640 -4 l 563 150 l 563 664 l 682 664 l 682 110 m 513 806 q 458 816 485 806 q 392 847 432 826 q 349 867 369 858 q 313 876 328 876 q 266 859 286 876 q 222 799 246 842 l 158 833 q 227 941 193 908 q 304 974 261 974 q 358 963 331 974 q 424 933 386 953 q 472 911 454 918 q 504 904 489 904 q 549 922 528 904 q 592 982 569 940 l 657 947 q 588 838 622 871 q 513 806 554 806 z "},"Ū":{"ha":917,"x_min":101,"x_max":817,"o":"m 458 -19 q 193 79 285 -19 q 101 363 101 178 l 101 903 l 225 903 l 225 363 q 283 166 225 233 q 458 99 342 99 q 631 166 571 99 q 692 363 692 233 l 692 903 l 817 903 l 817 363 q 722 80 817 179 q 458 -19 628 -19 m 239 1071 l 676 1071 l 676 978 l 458 988 l 239 978 l 239 1071 z "},"ū":{"ha":813,"x_min":119,"x_max":682,"o":"m 239 251 q 251 161 239 193 q 289 117 263 129 q 363 104 315 104 q 469 131 410 104 q 590 201 528 157 l 607 107 q 512 41 561 69 q 410 -3 463 13 q 308 -19 358 -19 q 166 33 213 -19 q 119 194 119 86 l 119 664 l 239 664 l 239 251 m 682 110 l 682 110 q 682 1 682 56 q 582 0 640 -4 l 563 150 l 563 664 l 682 664 l 682 110 m 189 888 l 626 888 l 626 794 l 408 804 l 189 794 l 189 888 z "},"Ŭ":{"ha":917,"x_min":101,"x_max":817,"o":"m 458 -19 q 193 79 285 -19 q 101 363 101 178 l 101 903 l 225 903 l 225 363 q 283 166 225 233 q 458 99 342 99 q 631 166 571 99 q 692 363 692 233 l 692 903 l 817 903 l 817 363 q 722 80 817 179 q 458 -19 628 -19 m 457 972 q 318 1019 371 972 q 260 1157 265 1067 l 342 1172 q 376 1076 347 1107 q 457 1044 406 1044 q 538 1076 508 1044 q 572 1172 567 1107 l 654 1157 q 596 1019 649 1067 q 457 972 543 972 z "},"ŭ":{"ha":813,"x_min":119,"x_max":682,"o":"m 239 251 q 251 161 239 193 q 289 117 263 129 q 363 104 315 104 q 469 131 410 104 q 590 201 528 157 l 607 107 q 512 41 561 69 q 410 -3 463 13 q 308 -19 358 -19 q 166 33 213 -19 q 119 194 119 86 l 119 664 l 239 664 l 239 251 m 682 110 l 682 110 q 682 1 682 56 q 582 0 640 -4 l 563 150 l 563 664 l 682 664 l 682 110 m 406 772 q 265 822 319 772 q 206 958 211 872 l 301 969 q 333 886 306 917 q 406 856 361 856 q 478 885 450 856 q 511 968 507 915 l 604 958 q 546 822 599 872 q 406 772 493 772 z "},"Ů":{"ha":917,"x_min":101,"x_max":817,"o":"m 458 -19 q 193 79 285 -19 q 101 363 101 178 l 101 903 l 225 903 l 225 363 q 283 166 225 233 q 458 99 342 99 q 631 166 571 99 q 692 363 692 233 l 692 903 l 817 903 l 817 363 q 722 80 817 179 q 458 -19 628 -19 m 458 933 q 342 971 385 933 q 299 1074 299 1008 q 342 1174 299 1138 q 458 1211 385 1211 q 574 1174 532 1211 q 617 1074 617 1138 q 574 971 617 1008 q 458 933 532 933 m 460 1010 q 516 1026 496 1010 q 536 1074 536 1043 q 515 1118 536 1101 q 460 1135 494 1135 q 401 1118 422 1135 q 379 1074 379 1101 q 401 1026 379 1043 q 460 1010 422 1010 z "},"ů":{"ha":813,"x_min":119,"x_max":682,"o":"m 239 251 q 251 161 239 193 q 289 117 263 129 q 363 104 315 104 q 469 131 410 104 q 590 201 528 157 l 607 107 q 512 41 561 69 q 410 -3 463 13 q 308 -19 358 -19 q 166 33 213 -19 q 119 194 119 86 l 119 664 l 239 664 l 239 251 m 682 110 l 682 110 q 682 1 682 56 q 582 0 640 -4 l 563 150 l 563 664 l 682 664 l 682 110 m 408 738 q 292 777 336 738 q 249 882 249 817 q 292 987 249 947 q 408 1026 336 1026 q 523 987 479 1026 q 567 882 567 947 q 523 777 567 817 q 408 738 479 738 m 410 803 q 472 824 449 803 q 496 882 496 846 q 472 940 496 918 q 410 961 449 961 q 344 940 369 961 q 319 882 319 918 q 344 824 319 846 q 410 803 369 803 z "},"Ű":{"ha":917,"x_min":101,"x_max":817,"o":"m 458 -19 q 193 79 285 -19 q 101 363 101 178 l 101 903 l 225 903 l 225 363 q 283 166 225 233 q 458 99 342 99 q 631 166 571 99 q 692 363 692 233 l 692 903 l 817 903 l 817 363 q 722 80 817 179 q 458 -19 628 -19 m 472 1044 l 699 1217 l 761 1111 l 524 975 l 472 1044 m 246 1044 l 472 1217 l 535 1111 l 299 975 l 246 1044 z "},"ű":{"ha":813,"x_min":119,"x_max":743,"o":"m 239 251 q 251 161 239 193 q 289 117 263 129 q 363 104 315 104 q 469 131 410 104 q 590 201 528 157 l 607 107 q 512 41 561 69 q 410 -3 463 13 q 308 -19 358 -19 q 166 33 213 -19 q 119 194 119 86 l 119 664 l 239 664 l 239 251 m 682 110 l 682 110 q 682 1 682 56 q 582 0 640 -4 l 563 150 l 563 664 l 682 664 l 682 110 m 288 794 l 239 828 l 408 1044 l 500 990 l 288 794 m 529 796 l 481 829 l 653 1044 l 743 989 l 529 796 z "},"Ų":{"ha":917,"x_min":101,"x_max":817,"o":"m 458 -19 q 193 79 285 -19 q 101 363 101 178 l 101 903 l 225 903 l 225 363 q 283 166 225 233 q 458 99 342 99 q 631 166 571 99 q 692 363 692 233 l 692 903 l 817 903 l 817 363 q 722 80 817 179 q 458 -19 628 -19 m 710 71 q 663 7 678 35 q 647 -43 647 -21 q 677 -86 647 -74 q 764 -93 707 -99 l 764 -185 q 590 -160 642 -196 q 539 -67 539 -125 q 565 9 539 -32 q 639 82 592 50 l 710 71 z "},"ų":{"ha":813,"x_min":119,"x_max":736,"o":"m 239 251 q 251 161 239 193 q 289 117 263 129 q 363 104 315 104 q 469 131 410 104 q 590 201 528 157 l 607 107 q 512 41 561 69 q 410 -3 463 13 q 308 -19 358 -19 q 166 33 213 -19 q 119 194 119 86 l 119 664 l 239 664 l 239 251 m 682 110 l 682 110 q 682 1 682 56 q 582 0 640 -4 l 563 150 l 563 664 l 682 664 l 682 110 m 682 1 q 635 -62 650 -35 q 619 -112 619 -90 q 649 -156 619 -143 q 736 -162 679 -168 l 736 -254 q 563 -230 614 -265 q 511 -136 511 -194 q 538 -60 511 -101 q 611 13 564 -19 l 682 1 z "},"Ŵ":{"ha":1139,"x_min":49,"x_max":1092,"o":"m 294 0 q 158 444 224 210 q 49 903 93 679 l 175 903 q 272 490 218 700 q 379 110 326 281 l 517 110 l 506 664 q 633 664 569 668 l 622 110 l 760 110 q 869 495 814 285 q 964 903 924 706 l 1092 903 q 985 454 1047 679 q 844 0 924 229 q 294 0 572 -3 m 339 1026 l 544 1179 l 589 1179 l 794 1026 l 743 960 l 567 1079 l 389 960 l 339 1026 z "},"ŵ":{"ha":847,"x_min":35,"x_max":813,"o":"m 578 10 l 575 57 q 655 347 624 188 q 692 664 686 507 q 813 664 751 667 q 767 341 807 517 q 669 0 728 165 l 578 10 m 226 106 l 638 106 l 669 0 l 179 0 l 226 106 m 179 0 q 82 336 122 161 q 35 664 42 511 q 156 664 96 667 q 193 347 161 508 q 274 57 225 186 l 269 10 l 179 0 m 378 90 q 368 499 368 281 q 482 499 425 503 q 469 90 482 265 l 378 90 m 186 804 l 392 971 l 436 971 l 642 804 l 590 738 l 414 864 l 236 738 l 186 804 z "},"Ŷ":{"ha":833,"x_min":50,"x_max":785,"o":"m 364 303 l 469 303 l 482 0 l 351 0 l 364 303 m 453 376 q 567 636 513 499 q 657 903 621 774 l 785 903 q 677 603 743 764 q 536 290 611 443 l 451 290 l 453 376 m 314 400 l 524 400 l 522 290 l 313 290 l 314 400 m 299 290 q 155 597 221 438 q 50 903 89 757 l 176 903 q 264 637 210 774 q 382 376 318 500 l 383 290 l 299 290 m 190 1026 l 396 1179 l 440 1179 l 646 1026 l 594 960 l 418 1079 l 240 960 l 190 1026 z "},"ŷ":{"ha":694,"x_min":33,"x_max":660,"o":"m 272 38 q 129 392 190 233 q 33 664 68 551 q 158 664 96 664 q 247 408 201 536 q 340 150 293 279 l 351 150 q 447 413 399 276 q 533 664 494 549 q 660 664 597 664 q 560 383 624 550 q 421 38 496 215 l 272 38 m 146 -232 q 188 -171 167 -203 q 228 -110 210 -139 q 325 92 285 -15 l 421 38 q 325 -158 371 -78 q 244 -285 281 -237 l 146 -232 m 118 804 l 324 971 l 368 971 l 574 804 l 522 738 l 346 864 l 168 738 l 118 804 z "},"Ÿ":{"ha":833,"x_min":50,"x_max":785,"o":"m 364 303 l 469 303 l 482 0 l 351 0 l 364 303 m 453 376 q 567 636 513 499 q 657 903 621 774 l 785 903 q 677 603 743 764 q 536 290 611 443 l 451 290 l 453 376 m 314 400 l 524 400 l 522 290 l 313 290 l 314 400 m 299 290 q 155 597 221 438 q 50 903 89 757 l 176 903 q 264 637 210 774 q 382 376 318 500 l 383 290 l 299 290 m 278 979 q 215 999 238 979 q 192 1054 192 1019 q 215 1107 192 1088 q 278 1126 238 1126 q 340 1107 317 1126 q 363 1054 363 1088 q 340 999 363 1019 q 278 979 318 979 m 560 979 q 496 999 519 979 q 472 1054 472 1019 q 496 1107 472 1088 q 560 1126 519 1126 q 621 1107 599 1126 q 643 1054 643 1088 q 621 999 643 1019 q 560 979 599 979 z "},"Ź":{"ha":736,"x_min":40,"x_max":696,"o":"m 40 94 l 542 813 l 556 801 l 57 790 l 57 903 l 671 903 l 671 810 l 174 89 l 161 101 l 696 111 l 696 0 l 40 0 l 40 94 m 279 965 l 238 1043 l 500 1172 l 546 1057 l 279 965 z "},"ź":{"ha":611,"x_min":54,"x_max":583,"o":"m 54 97 l 414 576 l 433 560 l 72 553 q 72 664 72 608 l 553 664 l 553 568 l 186 85 l 182 103 l 579 111 q 579 0 583 58 l 54 0 l 54 97 m 288 756 l 232 807 l 415 1001 q 463 969 440 988 q 507 926 485 951 l 288 756 z "},"Ż":{"ha":736,"x_min":40,"x_max":696,"o":"m 40 94 l 542 813 l 556 801 l 57 790 l 57 903 l 671 903 l 671 810 l 174 89 l 161 101 l 696 111 l 696 0 l 40 0 l 40 94 m 390 972 q 322 994 347 972 q 296 1056 296 1017 q 322 1115 296 1093 q 390 1138 347 1138 q 458 1115 433 1138 q 482 1056 482 1093 q 458 994 482 1017 q 390 972 433 972 z "},"ż":{"ha":611,"x_min":54,"x_max":583,"o":"m 54 97 l 414 576 l 433 560 l 72 553 q 72 664 72 608 l 553 664 l 553 568 l 186 85 l 182 103 l 579 111 q 579 0 583 58 l 54 0 l 54 97 m 318 811 q 249 833 275 811 q 224 894 224 856 q 249 954 224 932 q 318 976 275 976 q 385 954 361 976 q 410 894 410 932 q 385 833 410 856 q 318 811 361 811 z "},"Ž":{"ha":736,"x_min":40,"x_max":696,"o":"m 40 94 l 542 813 l 556 801 l 57 790 l 57 903 l 671 903 l 671 810 l 174 89 l 161 101 l 696 111 l 696 0 l 40 0 l 40 94 m 390 1065 l 567 1192 l 618 1125 l 413 958 l 368 958 l 163 1125 l 213 1192 l 390 1065 z "},"ž":{"ha":611,"x_min":54,"x_max":583,"o":"m 54 97 l 414 576 l 433 560 l 72 553 q 72 664 72 608 l 553 664 l 553 568 l 186 85 l 182 103 l 579 111 q 579 0 583 58 l 54 0 l 54 97 m 318 871 l 494 997 l 546 931 l 340 764 l 296 764 l 90 931 l 140 997 l 318 871 z "},"Ə":{"ha":944,"x_min":56,"x_max":890,"o":"m 464 -21 q 247 37 339 -21 q 105 201 154 94 q 56 454 56 308 q 60 501 56 481 q 413 501 297 501 q 760 501 529 501 q 707 665 751 596 q 588 769 663 733 q 414 806 513 806 q 265 793 346 806 q 115 760 185 781 q 94 860 106 799 q 253 908 163 890 q 435 925 344 925 q 678 868 575 925 q 835 705 781 811 q 890 454 890 599 q 839 201 890 308 q 691 37 788 94 q 464 -21 594 -21 m 464 97 q 608 131 546 97 q 708 229 669 165 q 758 382 747 293 q 472 382 565 382 q 190 382 378 382 q 236 229 200 293 q 330 131 272 165 q 464 97 388 97 z "},"ƒ":{"ha":847,"x_min":26,"x_max":825,"o":"m 203 -278 q 26 -243 117 -278 l 49 -142 q 181 -167 117 -167 q 256 -140 228 -167 q 293 -53 283 -112 l 438 758 q 509 903 457 858 q 647 947 561 947 q 740 938 694 947 q 825 914 786 929 l 803 813 q 671 836 739 836 q 594 811 622 836 q 557 726 567 786 l 413 -90 q 342 -233 396 -187 q 203 -278 289 -278 m 133 483 l 422 474 l 782 483 l 768 365 l 428 375 l 133 365 l 133 483 z "},"Ɲ":{"ha":958,"x_min":-57,"x_max":829,"o":"m 244 903 l 724 178 l 713 175 l 706 903 l 829 903 l 829 0 l 717 0 l 235 724 l 246 728 l 253 -18 q 226 -174 254 -115 q 153 -258 199 -233 q 50 -282 107 -282 q -5 -277 19 -282 q -57 -262 -29 -272 l -39 -151 q 2 -161 -18 -157 q 42 -165 22 -165 q 108 -133 86 -165 q 131 -17 131 -100 l 131 903 l 244 903 z "},"Ơ":{"ha":944,"x_min":71,"x_max":874,"o":"m 472 -19 q 260 38 351 -19 q 120 202 169 96 q 71 451 71 308 q 120 701 71 594 q 260 865 169 807 q 472 922 351 922 q 684 865 593 922 q 824 701 775 807 q 874 451 874 594 q 824 202 874 308 q 684 38 775 96 q 472 -19 593 -19 m 471 97 q 617 141 554 97 q 713 265 679 185 q 747 451 747 344 q 713 639 747 558 q 617 763 679 719 q 471 807 554 807 q 325 764 388 807 q 229 640 263 721 q 196 451 196 560 q 229 264 196 344 q 325 140 263 183 q 471 97 388 97 m 789 1043 q 802 920 810 975 q 751 832 794 865 q 624 799 708 799 l 607 896 q 676 911 656 896 q 699 954 697 926 q 689 1031 700 982 l 789 1043 z "},"ơ":{"ha":764,"x_min":61,"x_max":701,"o":"m 381 -19 q 210 23 282 -19 q 99 144 138 65 q 61 332 61 224 q 99 519 61 440 q 210 641 138 599 q 381 683 282 683 q 552 641 479 683 q 663 519 625 599 q 701 332 701 440 q 663 144 701 224 q 552 23 625 65 q 381 -19 479 -19 m 379 85 q 488 113 443 85 q 555 196 532 140 q 578 332 578 251 q 555 469 578 414 q 488 551 532 524 q 379 579 443 579 q 274 551 317 579 q 208 469 231 524 q 185 332 185 414 q 208 196 185 251 q 274 113 231 140 q 379 85 317 85 m 665 811 q 678 688 686 743 q 628 600 671 633 q 500 567 585 567 l 483 664 q 553 679 532 664 q 575 722 574 694 q 565 799 576 750 l 665 811 z "},"Ư":{"ha":917,"x_min":101,"x_max":950,"o":"m 458 -19 q 193 79 285 -19 q 101 363 101 178 l 101 903 l 225 903 l 225 363 q 283 166 225 233 q 458 99 342 99 q 631 166 571 99 q 692 363 692 233 l 692 903 l 817 903 l 817 363 q 722 80 817 179 q 458 -19 628 -19 m 929 1050 q 942 927 950 982 q 892 839 935 872 q 764 806 849 806 l 747 903 q 817 918 796 903 q 839 961 838 933 q 829 1038 840 989 l 929 1050 z "},"ư":{"ha":813,"x_min":119,"x_max":808,"o":"m 239 251 q 251 161 239 193 q 289 117 263 129 q 363 104 315 104 q 469 131 410 104 q 590 201 528 157 l 607 107 q 512 41 561 69 q 410 -3 463 13 q 308 -19 358 -19 q 166 33 213 -19 q 119 194 119 86 l 119 664 l 239 664 l 239 251 m 682 110 l 682 110 q 682 1 682 56 q 582 0 640 -4 l 563 150 l 563 664 l 682 664 l 682 110 m 788 811 q 801 688 808 743 q 750 600 793 633 q 622 567 707 567 l 606 664 q 675 679 654 664 q 697 722 696 694 q 688 799 699 750 l 788 811 z "},"Ǎ":{"ha":875,"x_min":42,"x_max":833,"o":"m 42 0 q 164 422 86 185 q 335 903 242 658 l 540 903 q 712 419 636 653 q 833 0 788 185 l 704 0 q 638 238 657 175 l 238 238 q 171 0 189 72 l 42 0 m 611 342 q 535 575 572 465 q 458 789 497 685 l 417 789 q 337 565 376 679 q 264 342 297 450 l 611 342 m 440 1065 l 617 1192 l 668 1125 l 463 958 l 418 958 l 213 1125 l 263 1192 l 440 1065 z "},"ǎ":{"ha":736,"x_min":82,"x_max":640,"o":"m 531 78 q 413 7 476 33 q 289 -19 349 -19 q 138 35 193 -19 q 82 189 82 90 q 94 287 82 238 q 129 383 106 336 q 307 386 217 388 q 524 379 397 385 l 524 408 l 524 413 q 511 499 522 463 q 471 555 500 535 q 393 575 442 575 q 285 561 349 575 q 147 521 222 547 q 119 622 133 572 q 274 666 200 651 q 407 681 347 681 q 533 657 482 681 q 613 580 585 633 q 640 439 640 526 l 640 99 l 640 99 q 640 0 640 50 q 594 -3 619 -3 q 543 0 568 -3 l 531 78 m 197 196 q 225 115 197 144 q 310 85 253 85 q 414 110 361 85 q 524 179 467 136 l 524 282 q 213 289 339 293 q 201 244 204 265 q 197 196 197 222 m 385 871 l 561 997 l 613 931 l 407 764 l 363 764 l 157 931 l 207 997 l 385 871 z "},"Ǐ":{"ha":625,"x_min":57,"x_max":567,"o":"m 251 903 l 375 903 l 375 0 l 251 0 l 251 903 m 57 110 l 313 103 l 567 110 l 564 0 l 61 0 l 57 110 m 61 903 l 564 903 l 567 794 l 313 801 l 57 794 l 61 903 m 313 1065 l 489 1192 l 540 1125 l 335 958 l 290 958 l 85 1125 l 135 1192 l 313 1065 z "},"ǐ":{"ha":424,"x_min":-8,"x_max":447,"o":"m 178 104 l 178 104 l 178 642 l 297 664 l 297 104 l 297 104 l 297 0 l 178 0 l 178 104 m 58 546 q 58 664 54 607 q 178 667 106 667 q 297 664 251 667 l 253 575 l 58 546 m 219 871 l 396 997 l 447 931 l 242 764 l 197 764 l -8 931 l 42 997 l 219 871 z "},"Ǒ":{"ha":944,"x_min":71,"x_max":874,"o":"m 472 -19 q 260 38 351 -19 q 120 202 169 96 q 71 451 71 308 q 120 701 71 594 q 260 865 169 807 q 472 922 351 922 q 684 865 593 922 q 824 701 775 807 q 874 451 874 594 q 824 202 874 308 q 684 38 775 96 q 472 -19 593 -19 m 471 97 q 617 141 554 97 q 713 265 679 185 q 747 451 747 344 q 713 639 747 558 q 617 763 679 719 q 471 807 554 807 q 325 764 388 807 q 229 640 263 721 q 196 451 196 560 q 229 264 196 344 q 325 140 263 183 q 471 97 388 97 m 471 1065 l 647 1192 l 699 1125 l 493 958 l 449 958 l 243 1125 l 293 1192 l 471 1065 z "},"ǒ":{"ha":764,"x_min":61,"x_max":701,"o":"m 381 -19 q 210 23 282 -19 q 99 144 138 65 q 61 332 61 224 q 99 519 61 440 q 210 641 138 599 q 381 683 282 683 q 552 641 479 683 q 663 519 625 599 q 701 332 701 440 q 663 144 701 224 q 552 23 625 65 q 381 -19 479 -19 m 379 85 q 488 113 443 85 q 555 196 532 140 q 578 332 578 251 q 555 469 578 414 q 488 551 532 524 q 379 579 443 579 q 274 551 317 579 q 208 469 231 524 q 185 332 185 414 q 208 196 185 251 q 274 113 231 140 q 379 85 317 85 m 381 871 l 557 997 l 608 931 l 403 764 l 358 764 l 153 931 l 203 997 l 381 871 z "},"Ǔ":{"ha":917,"x_min":101,"x_max":817,"o":"m 458 -19 q 193 79 285 -19 q 101 363 101 178 l 101 903 l 225 903 l 225 363 q 283 166 225 233 q 458 99 342 99 q 631 166 571 99 q 692 363 692 233 l 692 903 l 817 903 l 817 363 q 722 80 817 179 q 458 -19 628 -19 m 458 1065 l 635 1192 l 686 1125 l 481 958 l 436 958 l 231 1125 l 281 1192 l 458 1065 z "},"ǔ":{"ha":813,"x_min":119,"x_max":682,"o":"m 239 251 q 251 161 239 193 q 289 117 263 129 q 363 104 315 104 q 469 131 410 104 q 590 201 528 157 l 607 107 q 512 41 561 69 q 410 -3 463 13 q 308 -19 358 -19 q 166 33 213 -19 q 119 194 119 86 l 119 664 l 239 664 l 239 251 m 682 110 l 682 110 q 682 1 682 56 q 582 0 640 -4 l 563 150 l 563 664 l 682 664 l 682 110 m 408 871 l 585 997 l 636 931 l 431 764 l 386 764 l 181 931 l 231 997 l 408 871 z "},"Ǖ":{"ha":917,"x_min":101,"x_max":817,"o":"m 458 -19 q 193 79 285 -19 q 101 363 101 178 l 101 903 l 225 903 l 225 363 q 283 166 225 233 q 458 99 342 99 q 631 166 571 99 q 692 363 692 233 l 692 903 l 817 903 l 817 363 q 722 80 817 179 q 458 -19 628 -19 m 318 979 q 255 999 278 979 q 232 1054 232 1019 q 255 1107 232 1088 q 318 1126 278 1126 q 380 1107 357 1126 q 403 1054 403 1088 q 381 999 403 1019 q 318 979 358 979 m 600 979 q 536 999 560 979 q 513 1054 513 1019 q 536 1107 513 1088 q 600 1126 560 1126 q 661 1107 639 1126 q 683 1054 683 1088 q 661 999 683 1019 q 600 979 639 979 m 239 1276 l 676 1276 l 676 1183 l 458 1193 l 239 1183 l 239 1276 z "},"ǖ":{"ha":813,"x_min":119,"x_max":682,"o":"m 239 251 q 251 161 239 193 q 289 117 263 129 q 363 104 315 104 q 469 131 410 104 q 590 201 528 157 l 607 107 q 512 41 561 69 q 410 -3 463 13 q 308 -19 358 -19 q 166 33 213 -19 q 119 194 119 86 l 119 664 l 239 664 l 239 251 m 682 110 l 682 110 q 682 1 682 56 q 582 0 640 -4 l 563 150 l 563 664 l 682 664 l 682 110 m 525 811 q 461 831 485 811 q 438 886 438 851 q 461 939 438 919 q 525 958 485 958 q 586 939 564 958 q 608 886 608 919 q 586 831 608 851 q 525 811 564 811 m 286 811 q 223 831 246 811 q 200 886 200 851 q 223 939 200 919 q 286 958 246 958 q 348 939 325 958 q 371 886 371 919 q 349 831 371 851 q 286 811 326 811 m 189 1094 l 626 1094 l 626 1001 l 408 1011 l 189 1001 l 189 1094 z "},"Ǘ":{"ha":917,"x_min":101,"x_max":817,"o":"m 458 -19 q 193 79 285 -19 q 101 363 101 178 l 101 903 l 225 903 l 225 363 q 283 166 225 233 q 458 99 342 99 q 631 166 571 99 q 692 363 692 233 l 692 903 l 817 903 l 817 363 q 722 80 817 179 q 458 -19 628 -19 m 318 979 q 255 999 278 979 q 232 1054 232 1019 q 255 1107 232 1088 q 318 1126 278 1126 q 380 1107 357 1126 q 403 1054 403 1088 q 381 999 403 1019 q 318 979 358 979 m 600 979 q 536 999 560 979 q 513 1054 513 1019 q 536 1107 513 1088 q 600 1126 560 1126 q 661 1107 639 1126 q 683 1054 683 1088 q 661 999 683 1019 q 600 979 639 979 m 347 1171 l 306 1249 l 568 1378 l 614 1263 l 347 1171 z "},"ǘ":{"ha":813,"x_min":119,"x_max":682,"o":"m 239 251 q 251 161 239 193 q 289 117 263 129 q 363 104 315 104 q 469 131 410 104 q 590 201 528 157 l 607 107 q 512 41 561 69 q 410 -3 463 13 q 308 -19 358 -19 q 166 33 213 -19 q 119 194 119 86 l 119 664 l 239 664 l 239 251 m 682 110 l 682 110 q 682 1 682 56 q 582 0 640 -4 l 563 150 l 563 664 l 682 664 l 682 110 m 525 811 q 461 831 485 811 q 438 886 438 851 q 461 939 438 919 q 525 958 485 958 q 586 939 564 958 q 608 886 608 919 q 586 831 608 851 q 525 811 564 811 m 286 811 q 223 831 246 811 q 200 886 200 851 q 223 939 200 919 q 286 958 246 958 q 348 939 325 958 q 371 886 371 919 q 349 831 371 851 q 286 811 326 811 m 378 963 l 322 1014 l 506 1208 q 553 1176 531 1194 q 597 1133 575 1158 l 378 963 z "},"Ǚ":{"ha":917,"x_min":101,"x_max":817,"o":"m 458 -19 q 193 79 285 -19 q 101 363 101 178 l 101 903 l 225 903 l 225 363 q 283 166 225 233 q 458 99 342 99 q 631 166 571 99 q 692 363 692 233 l 692 903 l 817 903 l 817 363 q 722 80 817 179 q 458 -19 628 -19 m 318 979 q 255 999 278 979 q 232 1054 232 1019 q 255 1107 232 1088 q 318 1126 278 1126 q 380 1107 357 1126 q 403 1054 403 1088 q 381 999 403 1019 q 318 979 358 979 m 600 979 q 536 999 560 979 q 513 1054 513 1019 q 536 1107 513 1088 q 600 1126 560 1126 q 661 1107 639 1126 q 683 1054 683 1088 q 661 999 683 1019 q 600 979 639 979 m 458 1271 l 635 1397 l 686 1331 l 481 1164 l 436 1164 l 231 1331 l 281 1397 l 458 1271 z "},"ǚ":{"ha":813,"x_min":119,"x_max":682,"o":"m 239 251 q 251 161 239 193 q 289 117 263 129 q 363 104 315 104 q 469 131 410 104 q 590 201 528 157 l 607 107 q 512 41 561 69 q 410 -3 463 13 q 308 -19 358 -19 q 166 33 213 -19 q 119 194 119 86 l 119 664 l 239 664 l 239 251 m 682 110 l 682 110 q 682 1 682 56 q 582 0 640 -4 l 563 150 l 563 664 l 682 664 l 682 110 m 525 811 q 461 831 485 811 q 438 886 438 851 q 461 939 438 919 q 525 958 485 958 q 586 939 564 958 q 608 886 608 919 q 586 831 608 851 q 525 811 564 811 m 286 811 q 223 831 246 811 q 200 886 200 851 q 223 939 200 919 q 286 958 246 958 q 348 939 325 958 q 371 886 371 919 q 349 831 371 851 q 286 811 326 811 m 408 1078 l 585 1204 l 636 1138 l 431 971 l 386 971 l 181 1138 l 231 1204 l 408 1078 z "},"Ǜ":{"ha":917,"x_min":101,"x_max":817,"o":"m 458 -19 q 193 79 285 -19 q 101 363 101 178 l 101 903 l 225 903 l 225 363 q 283 166 225 233 q 458 99 342 99 q 631 166 571 99 q 692 363 692 233 l 692 903 l 817 903 l 817 363 q 722 80 817 179 q 458 -19 628 -19 m 318 979 q 255 999 278 979 q 232 1054 232 1019 q 255 1107 232 1088 q 318 1126 278 1126 q 380 1107 357 1126 q 403 1054 403 1088 q 381 999 403 1019 q 318 979 358 979 m 600 979 q 536 999 560 979 q 513 1054 513 1019 q 536 1107 513 1088 q 600 1126 560 1126 q 661 1107 639 1126 q 683 1054 683 1088 q 661 999 683 1019 q 600 979 639 979 m 349 1378 l 611 1249 l 569 1171 l 303 1263 l 349 1378 z "},"ǜ":{"ha":813,"x_min":119,"x_max":682,"o":"m 239 251 q 251 161 239 193 q 289 117 263 129 q 363 104 315 104 q 469 131 410 104 q 590 201 528 157 l 607 107 q 512 41 561 69 q 410 -3 463 13 q 308 -19 358 -19 q 166 33 213 -19 q 119 194 119 86 l 119 664 l 239 664 l 239 251 m 682 110 l 682 110 q 682 1 682 56 q 582 0 640 -4 l 563 150 l 563 664 l 682 664 l 682 110 m 525 811 q 461 831 485 811 q 438 886 438 851 q 461 939 438 919 q 525 958 485 958 q 586 939 564 958 q 608 886 608 919 q 586 831 608 851 q 525 811 564 811 m 286 811 q 223 831 246 811 q 200 886 200 851 q 223 939 200 919 q 286 958 246 958 q 348 939 325 958 q 371 886 371 919 q 349 831 371 851 q 286 811 326 811 m 219 1133 q 264 1176 242 1158 q 311 1208 286 1194 l 494 1014 l 439 963 l 219 1133 z "},"Ǧ":{"ha":889,"x_min":71,"x_max":792,"o":"m 503 -19 q 274 35 371 -19 q 124 197 176 90 q 71 453 71 303 q 123 705 71 599 q 271 867 175 811 q 494 922 367 922 q 642 906 574 922 q 768 861 711 889 l 749 763 q 627 797 688 785 q 508 808 567 808 q 341 765 411 808 q 235 642 271 722 q 199 454 199 563 q 238 258 199 339 q 351 135 278 176 q 524 94 424 94 q 603 100 564 94 q 681 117 643 106 l 651 419 l 772 425 l 792 26 q 649 -7 726 6 q 503 -19 572 -19 m 519 1065 l 696 1192 l 747 1125 l 542 958 l 497 958 l 292 1125 l 342 1192 l 519 1065 z "},"ǧ":{"ha":799,"x_min":74,"x_max":685,"o":"m 361 -283 q 240 -272 299 -283 q 121 -239 181 -260 l 147 -137 q 257 -169 207 -158 q 357 -179 307 -179 q 471 -156 425 -179 q 541 -84 517 -133 q 565 43 565 -35 l 565 588 l 685 604 l 685 42 q 601 -202 685 -121 q 361 -283 518 -283 m 339 13 q 149 95 224 13 q 74 339 74 178 q 113 522 74 444 q 224 642 151 600 q 397 683 297 683 q 551 661 478 683 q 685 604 625 639 l 618 525 q 509 566 565 551 q 397 581 453 581 q 290 549 335 581 q 220 464 244 518 q 196 344 196 410 q 235 174 196 232 q 351 117 275 117 q 476 144 415 117 q 582 217 536 171 l 613 128 q 495 47 569 82 q 339 13 421 13 m 388 871 l 564 997 l 615 931 l 410 764 l 365 764 l 160 931 l 210 997 l 388 871 z "},"Ǩ":{"ha":826,"x_min":129,"x_max":792,"o":"m 129 732 l 129 782 l 129 782 q 129 901 129 842 q 191 903 160 903 q 253 903 222 903 l 253 0 l 129 0 l 129 732 m 242 390 q 399 546 324 460 q 532 725 475 632 q 614 903 589 818 q 742 903 678 903 q 631 666 704 782 q 457 447 557 550 q 242 263 357 344 l 242 390 m 654 0 q 535 230 607 100 q 413 439 464 360 l 500 499 q 653 256 571 396 q 792 0 735 115 l 654 0 m 411 1065 l 588 1192 l 639 1125 l 433 958 l 389 958 l 183 1125 l 233 1192 l 411 1065 z "},"ǩ":{"ha":743,"x_min":-44,"x_max":735,"o":"m 213 317 q 359 410 286 351 q 487 535 432 468 q 564 664 542 603 q 697 664 629 668 q 595 493 661 578 q 434 333 529 408 q 221 204 339 257 l 213 317 m 597 0 q 476 190 557 65 q 397 313 438 251 l 478 381 q 735 0 628 175 l 597 0 m 124 860 l 124 860 q 124 972 124 917 q 183 974 157 974 q 243 972 210 974 l 243 0 l 124 0 l 124 860 m 183 1135 l 360 1261 l 411 1194 l 206 1028 l 161 1028 l -44 1194 l 6 1261 l 183 1135 z "},"Ǫ":{"ha":944,"x_min":71,"x_max":874,"o":"m 472 -19 q 260 38 351 -19 q 120 202 169 96 q 71 451 71 308 q 120 701 71 594 q 260 865 169 807 q 472 922 351 922 q 684 865 593 922 q 824 701 775 807 q 874 451 874 594 q 824 202 874 308 q 684 38 775 96 q 472 -19 593 -19 m 471 97 q 617 141 554 97 q 713 265 679 185 q 747 451 747 344 q 713 639 747 558 q 617 763 679 719 q 471 807 554 807 q 325 764 388 807 q 229 640 263 721 q 196 451 196 560 q 229 264 196 344 q 325 140 263 183 q 471 97 388 97 m 731 58 q 683 -6 699 22 q 668 -56 668 -33 q 698 -99 668 -86 q 785 -106 728 -111 l 785 -197 q 611 -173 663 -208 q 560 -79 560 -137 q 586 -3 560 -44 q 660 69 613 38 l 731 58 z "},"ǫ":{"ha":764,"x_min":61,"x_max":701,"o":"m 381 -19 q 210 23 282 -19 q 99 144 138 65 q 61 332 61 224 q 99 519 61 440 q 210 641 138 599 q 381 683 282 683 q 552 641 479 683 q 663 519 625 599 q 701 332 701 440 q 663 144 701 224 q 552 23 625 65 q 381 -19 479 -19 m 379 85 q 488 113 443 85 q 555 196 532 140 q 578 332 578 251 q 555 469 578 414 q 488 551 532 524 q 379 579 443 579 q 274 551 317 579 q 208 469 231 524 q 185 332 185 414 q 208 196 185 251 q 274 113 231 140 q 379 85 317 85 m 576 39 q 529 -25 544 3 q 514 -75 514 -53 q 544 -118 514 -106 q 631 -125 574 -131 l 631 -217 q 457 -192 508 -228 q 406 -99 406 -157 q 432 -23 406 -64 q 506 50 458 18 l 576 39 z "},"Ǻ":{"ha":875,"x_min":42,"x_max":833,"o":"m 42 0 q 164 422 86 185 q 335 903 242 658 l 540 903 q 712 419 636 653 q 833 0 788 185 l 704 0 q 638 238 657 175 l 238 238 q 171 0 189 72 l 42 0 m 611 342 q 535 575 572 465 q 458 789 497 685 l 417 789 q 337 565 376 679 q 264 342 297 450 l 611 342 m 418 857 q 301 894 344 857 q 258 997 258 932 q 301 1098 258 1061 q 418 1135 344 1135 q 534 1098 492 1135 q 576 997 576 1061 q 534 894 576 932 q 418 857 492 857 m 419 933 q 476 950 456 933 q 496 997 496 967 q 475 1042 496 1025 q 419 1058 454 1058 q 360 1042 382 1058 q 339 997 339 1025 q 360 950 339 967 q 419 933 382 933 m 368 1076 l 321 1121 l 476 1286 q 517 1258 499 1274 q 554 1222 536 1243 l 368 1076 z "},"ǻ":{"ha":736,"x_min":82,"x_max":640,"o":"m 531 78 q 413 7 476 33 q 289 -19 349 -19 q 138 35 193 -19 q 82 189 82 90 q 94 287 82 238 q 129 383 106 336 q 307 386 217 388 q 524 379 397 385 l 524 408 l 524 413 q 511 499 522 463 q 471 555 500 535 q 393 575 442 575 q 285 561 349 575 q 147 521 222 547 q 119 622 133 572 q 274 666 200 651 q 407 681 347 681 q 533 657 482 681 q 613 580 585 633 q 640 439 640 526 l 640 99 l 640 99 q 640 0 640 50 q 594 -3 619 -3 q 543 0 568 -3 l 531 78 m 197 196 q 225 115 197 144 q 310 85 253 85 q 414 110 361 85 q 524 179 467 136 l 524 282 q 213 289 339 293 q 201 244 204 265 q 197 196 197 222 m 385 738 q 269 777 313 738 q 225 882 225 817 q 269 987 225 947 q 385 1026 313 1026 q 499 987 456 1026 q 543 882 543 947 q 499 777 543 817 q 385 738 456 738 m 386 803 q 449 824 425 803 q 472 882 472 846 q 449 940 472 918 q 386 961 425 961 q 321 940 346 961 q 296 882 296 918 q 321 824 296 846 q 386 803 346 803 m 396 1042 l 349 1086 l 504 1251 q 545 1224 526 1239 q 582 1188 564 1208 l 396 1042 z "},"Ǽ":{"ha":1194,"x_min":32,"x_max":1133,"o":"m 32 0 q 230 479 135 265 q 426 903 325 693 l 617 903 l 526 851 q 397 571 465 726 q 256 236 328 415 q 163 0 232 179 l 32 0 m 215 332 l 660 332 l 660 222 l 196 222 l 215 332 m 665 104 l 1133 113 l 1126 0 l 600 0 l 665 104 m 565 772 l 565 903 l 690 903 l 690 0 l 565 0 l 565 772 m 674 421 l 674 515 l 1044 525 l 1044 414 l 674 421 m 476 903 l 660 903 l 663 810 l 468 810 l 476 903 m 665 799 l 671 903 l 1113 903 l 1119 792 l 665 799 m 539 965 l 497 1043 l 760 1172 l 806 1057 l 539 965 z "},"ǽ":{"ha":1167,"x_min":88,"x_max":1099,"o":"m 507 408 q 495 495 507 458 q 457 553 483 532 q 389 574 431 574 q 286 560 347 574 q 154 521 225 547 l 125 622 q 274 667 201 653 q 404 681 347 681 q 515 658 472 681 q 581 581 558 635 q 603 439 603 528 l 603 326 l 507 306 l 507 408 m 289 -19 q 144 35 201 -19 q 88 186 88 89 q 99 286 88 236 q 133 381 111 336 l 532 381 l 524 290 l 218 289 q 207 244 211 267 q 203 196 203 222 q 231 115 203 144 q 315 85 258 85 q 433 115 375 85 q 560 206 492 146 l 585 119 q 440 17 514 53 q 289 -19 367 -19 m 832 -19 q 665 22 739 -19 q 550 135 590 63 l 543 149 q 519 224 526 181 q 511 324 511 267 l 511 332 q 549 522 511 443 q 653 642 586 601 q 806 683 719 683 q 960 641 893 683 q 1063 523 1026 599 q 1099 350 1099 447 q 1096 297 1099 314 l 989 317 q 990 336 990 326 q 967 470 990 415 q 903 553 944 525 q 804 581 861 581 q 707 553 749 581 q 642 471 665 526 q 619 333 619 415 q 645 198 619 253 q 721 115 671 143 q 842 86 771 86 q 956 98 897 86 q 1060 133 1015 110 l 1079 35 q 967 -5 1031 10 q 832 -19 903 -19 m 551 381 q 822 382 683 381 q 1079 388 961 383 l 1096 297 q 831 292 975 293 q 551 290 688 290 l 551 381 m 561 756 l 506 807 l 689 1001 q 736 969 714 988 q 781 926 758 951 l 561 756 z "},"Ǿ":{"ha":944,"x_min":57,"x_max":878,"o":"m 472 -19 q 260 38 351 -19 q 120 202 169 96 q 71 451 71 308 q 120 701 71 594 q 260 865 169 807 q 472 922 351 922 q 684 865 593 922 q 824 701 775 807 q 874 451 874 594 q 824 202 874 308 q 684 38 775 96 q 472 -19 593 -19 m 471 97 q 617 141 554 97 q 713 265 679 185 q 747 451 747 344 q 713 639 747 558 q 617 763 679 719 q 471 807 554 807 q 325 764 388 807 q 229 640 263 721 q 196 451 196 560 q 229 264 196 344 q 325 140 263 183 q 471 97 388 97 m 57 14 l 799 954 l 878 892 l 138 -49 l 57 14 m 389 965 l 347 1043 l 610 1172 l 656 1057 l 389 965 z "},"ǿ":{"ha":764,"x_min":61,"x_max":701,"o":"m 381 -19 q 210 23 282 -19 q 99 144 138 65 q 61 332 61 224 q 99 519 61 440 q 210 641 138 599 q 381 683 282 683 q 552 641 479 683 q 663 519 625 599 q 701 332 701 440 q 663 144 701 224 q 552 23 625 65 q 381 -19 479 -19 m 379 85 q 488 113 443 85 q 555 196 532 140 q 578 332 578 251 q 555 469 578 414 q 488 551 532 524 q 379 579 443 579 q 274 551 317 579 q 208 469 231 524 q 185 332 185 414 q 208 196 185 251 q 274 113 231 140 q 379 85 317 85 m 78 40 l 340 363 l 576 701 l 679 624 l 417 300 l 181 -37 l 78 40 m 374 756 l 318 807 l 501 1001 q 549 969 526 988 q 593 926 571 951 l 374 756 z "},"Ș":{"ha":722,"x_min":49,"x_max":674,"o":"m 372 -19 q 206 -5 288 -19 q 49 38 125 10 l 67 139 q 223 106 144 117 q 371 94 301 94 q 502 130 454 94 q 550 229 550 165 q 530 302 550 272 q 465 355 510 332 q 344 399 419 378 q 185 460 246 426 q 93 543 124 494 q 63 661 63 592 q 141 850 63 785 q 365 915 219 915 q 503 907 442 915 q 624 879 564 899 q 608 772 617 813 q 495 795 551 789 q 363 801 439 801 q 233 767 279 801 q 188 669 188 733 q 206 601 188 629 q 265 553 225 574 q 371 513 304 532 q 545 444 479 481 q 642 356 611 407 q 674 232 674 304 q 595 46 674 111 q 372 -19 517 -19 m 250 -281 l 303 -61 l 418 -61 l 333 -283 l 250 -281 z "},"ș":{"ha":590,"x_min":42,"x_max":549,"o":"m 60 496 q 119 635 60 586 q 292 683 178 683 q 413 672 354 683 q 524 635 471 660 q 503 536 518 586 q 394 569 443 560 q 294 579 344 579 q 209 558 238 579 q 181 496 181 538 q 192 448 181 465 q 232 419 204 431 q 314 394 260 407 q 458 345 407 374 q 528 277 508 317 q 549 182 549 238 q 479 33 549 86 q 293 -19 410 -19 q 158 -5 226 -19 q 42 35 90 10 l 64 143 q 174 107 117 119 q 285 94 232 94 q 390 117 353 94 q 428 181 428 139 q 399 243 428 222 q 300 278 371 264 q 158 324 211 294 q 83 394 106 353 q 60 496 60 436 m 201 -276 l 254 -57 l 369 -57 l 285 -279 l 201 -276 z "},"Ț":{"ha":708,"x_min":21,"x_max":689,"o":"m 292 792 l 21 792 l 21 903 l 689 903 l 689 792 l 417 792 l 417 0 l 292 0 l 292 792 m 247 -276 l 300 -57 l 415 -57 l 331 -279 l 247 -276 z "},"ț":{"ha":583,"x_min":18,"x_max":556,"o":"m 375 -19 q 218 42 272 -19 q 164 244 164 103 l 164 610 l 171 619 l 163 863 l 296 863 l 274 621 l 283 611 l 283 240 q 310 122 283 154 q 382 90 336 90 q 469 100 428 90 q 543 126 511 110 q 556 25 556 64 q 474 -6 528 8 q 375 -19 419 -19 m 18 664 l 550 664 q 550 546 554 606 l 226 561 l 18 547 l 18 664 m 269 -283 l 322 -64 l 438 -64 l 353 -286 l 269 -283 z "},"Ȳ":{"ha":833,"x_min":50,"x_max":785,"o":"m 364 303 l 469 303 l 482 0 l 351 0 l 364 303 m 453 376 q 567 636 513 499 q 657 903 621 774 l 785 903 q 677 603 743 764 q 536 290 611 443 l 451 290 l 453 376 m 314 400 l 524 400 l 522 290 l 313 290 l 314 400 m 299 290 q 155 597 221 438 q 50 903 89 757 l 176 903 q 264 637 210 774 q 382 376 318 500 l 383 290 l 299 290 m 199 1071 l 636 1071 l 636 978 l 418 988 l 199 978 l 199 1071 z "},"ȳ":{"ha":694,"x_min":33,"x_max":660,"o":"m 272 38 q 129 392 190 233 q 33 664 68 551 q 158 664 96 664 q 247 408 201 536 q 340 150 293 279 l 351 150 q 447 413 399 276 q 533 664 494 549 q 660 664 597 664 q 560 383 624 550 q 421 38 496 215 l 272 38 m 146 -232 q 188 -171 167 -203 q 228 -110 210 -139 q 325 92 285 -15 l 421 38 q 325 -158 371 -78 q 244 -285 281 -237 l 146 -232 m 126 888 l 564 888 l 564 794 l 346 804 l 126 794 l 126 888 z "},"ȷ":{"ha":424,"x_min":-29,"x_max":297,"o":"m 117 -276 q 44 -270 82 -276 q -29 -251 6 -264 q -11 -150 -24 -196 q 43 -162 19 -158 q 88 -167 67 -167 q 156 -136 133 -167 q 178 -31 178 -106 l 178 649 l 297 664 l 297 -40 q 249 -220 297 -164 q 117 -276 201 -276 m 58 546 q 58 664 54 608 q 292 664 124 668 l 253 575 l 58 546 z "},"ə":{"ha":729,"x_min":63,"x_max":665,"o":"m 336 683 q 512 641 438 683 q 626 519 586 599 q 665 332 665 440 q 624 148 665 228 q 512 24 583 68 q 353 -19 440 -19 q 197 22 263 -19 q 97 139 132 64 q 63 311 63 214 q 67 372 63 344 q 308 372 229 372 q 543 372 386 372 q 478 518 533 463 q 328 574 422 574 q 215 560 274 574 q 111 525 157 547 q 90 628 96 603 q 204 668 142 653 q 336 683 267 683 m 543 272 q 175 272 358 272 q 203 172 181 213 q 263 111 225 132 q 357 90 301 90 q 442 113 403 90 q 508 178 482 136 q 543 272 535 219 z "},"ˆ":{"ha":819,"x_min":186,"x_max":642,"o":"m 186 806 l 392 972 l 436 972 l 642 806 l 590 739 l 414 865 l 236 739 l 186 806 z "},"ˇ":{"ha":833,"x_min":186,"x_max":642,"o":"m 414 947 l 590 1074 l 642 1007 l 436 840 l 392 840 l 186 1007 l 236 1074 l 414 947 z "},"˘":{"ha":875,"x_min":250,"x_max":644,"o":"m 444 796 q 307 843 358 796 q 250 981 256 890 l 332 996 q 365 899 338 931 q 444 868 393 868 q 524 899 496 868 q 563 996 553 929 l 644 981 q 583 843 635 890 q 444 796 531 796 z "},"˙":{"ha":875,"x_min":381,"x_max":538,"o":"m 460 800 q 402 819 424 800 q 381 868 381 838 q 402 917 381 899 q 460 935 424 935 q 516 917 494 935 q 538 868 538 899 q 516 819 538 838 q 460 800 494 800 z "},"˚":{"ha":875,"x_min":308,"x_max":579,"o":"m 444 782 q 345 817 382 782 q 308 910 308 851 q 346 1003 308 968 q 444 1038 383 1038 q 542 1003 506 1038 q 579 910 579 968 q 542 816 579 850 q 444 782 506 782 m 446 822 q 512 846 488 822 q 536 910 536 869 q 512 974 536 950 q 446 997 488 997 q 377 974 403 997 q 351 910 351 950 q 376 846 351 869 q 446 822 401 822 z "},"˛":{"ha":875,"x_min":347,"x_max":572,"o":"m 504 -10 q 457 -74 472 -46 q 442 -124 442 -101 q 472 -168 442 -153 q 572 -194 503 -183 l 558 -265 q 400 -228 453 -258 q 347 -147 347 -197 q 371 -73 347 -114 q 433 1 394 -32 l 504 -10 z "},"˜":{"ha":875,"x_min":208,"x_max":674,"o":"m 532 806 q 486 817 511 806 q 429 851 461 829 q 377 882 393 874 q 346 890 361 890 q 301 867 321 890 q 258 796 282 844 l 208 817 q 276 935 243 897 q 351 974 310 974 q 396 963 372 974 q 453 929 419 951 q 503 900 483 910 q 538 890 522 890 q 580 914 560 890 q 622 985 600 938 l 674 964 q 606 844 639 883 q 532 806 572 806 z "},"˝":{"ha":875,"x_min":282,"x_max":786,"o":"m 331 794 l 282 828 l 451 1044 l 543 990 l 331 794 m 572 796 l 524 829 l 696 1044 l 786 989 l 572 796 z "},"̀":{"ha":0,"x_min":239,"x_max":514,"o":"m 239 926 q 283 969 261 951 q 331 1001 306 988 l 514 807 l 458 756 l 239 926 z "},"́":{"ha":0,"x_min":193,"x_max":468,"o":"m 249 756 l 193 807 l 376 1001 q 424 969 401 988 q 468 926 446 951 l 249 756 z "},"̂":{"ha":0,"x_min":186,"x_max":642,"o":"m 186 804 l 392 971 l 436 971 l 642 804 l 590 738 l 414 864 l 236 738 l 186 804 z "},"̃":{"ha":0,"x_min":192,"x_max":690,"o":"m 546 806 q 492 816 518 806 q 425 847 465 826 q 382 867 403 858 q 346 876 361 876 q 299 859 319 876 q 256 799 279 842 l 192 833 q 260 941 226 908 q 338 974 294 974 q 392 963 364 974 q 457 933 419 953 q 505 911 488 918 q 538 904 522 904 q 582 922 561 904 q 625 982 603 940 l 690 947 q 622 838 656 871 q 546 806 588 806 z "},"̄":{"ha":0,"x_min":213,"x_max":650,"o":"m 213 888 l 650 888 l 650 794 l 432 804 l 213 794 l 213 888 z "},"̆":{"ha":0,"x_min":246,"x_max":644,"o":"m 446 772 q 306 822 360 772 q 246 958 251 872 l 342 969 q 374 886 346 917 q 446 856 401 856 q 519 885 490 856 q 551 968 547 915 l 644 958 q 586 822 639 872 q 446 772 533 772 z "},"̇":{"ha":0,"x_min":317,"x_max":503,"o":"m 411 811 q 342 833 368 811 q 317 894 317 856 q 342 954 317 932 q 411 976 368 976 q 478 954 454 976 q 503 894 503 932 q 478 833 503 856 q 411 811 454 811 z "},"̈":{"ha":0,"x_min":228,"x_max":636,"o":"m 553 811 q 489 831 513 811 q 465 886 465 851 q 489 939 465 919 q 553 958 513 958 q 614 939 592 958 q 636 886 636 919 q 614 831 636 851 q 553 811 592 811 m 314 811 q 251 831 274 811 q 228 886 228 851 q 251 939 228 919 q 314 958 274 958 q 376 939 353 958 q 399 886 399 919 q 376 831 399 851 q 314 811 354 811 z "},"̉":{"ha":0,"x_min":335,"x_max":557,"o":"m 390 797 q 453 833 436 817 q 471 869 471 849 q 440 908 471 896 q 335 926 410 919 l 344 1015 q 500 974 443 1007 q 557 882 557 940 q 542 824 557 849 q 496 778 526 799 q 418 742 465 758 l 390 797 z "},"̊":{"ha":0,"x_min":285,"x_max":603,"o":"m 444 738 q 328 777 372 738 q 285 882 285 817 q 328 987 285 947 q 444 1026 372 1026 q 559 987 515 1026 q 603 882 603 947 q 559 777 603 817 q 444 738 515 738 m 446 803 q 508 824 485 803 q 532 882 532 846 q 508 940 532 918 q 446 961 485 961 q 381 940 406 961 q 356 882 356 918 q 381 824 356 846 q 446 803 406 803 z "},"̋":{"ha":0,"x_min":282,"x_max":786,"o":"m 331 794 l 282 828 l 451 1044 l 543 990 l 331 794 m 572 796 l 524 829 l 696 1044 l 786 989 l 572 796 z "},"̌":{"ha":0,"x_min":168,"x_max":624,"o":"m 396 871 l 572 997 l 624 931 l 418 764 l 374 764 l 168 931 l 218 997 l 396 871 z "},"̒":{"ha":0,"x_min":258,"x_max":411,"o":"m 411 1038 q 362 969 383 1008 q 335 899 340 931 l 403 876 q 385 820 403 840 q 333 800 367 800 q 258 869 258 800 q 289 972 258 919 q 371 1065 319 1024 l 411 1038 z "},"̛":{"ha":0,"x_min":388,"x_max":590,"o":"m 569 817 q 583 694 590 749 q 532 606 575 639 q 404 572 489 572 l 388 669 q 457 685 436 669 q 479 728 478 700 q 469 804 481 756 l 569 817 z "},"̣":{"ha":0,"x_min":329,"x_max":515,"o":"m 424 -257 q 355 -235 381 -257 q 329 -174 329 -212 q 355 -114 329 -136 q 424 -92 381 -92 q 491 -114 467 -92 q 515 -174 515 -136 q 491 -235 515 -212 q 424 -257 467 -257 z "},"̦":{"ha":0,"x_min":289,"x_max":457,"o":"m 289 -276 l 342 -57 l 457 -57 l 372 -279 l 289 -276 z "},"̧":{"ha":0,"x_min":315,"x_max":486,"o":"m 315 -232 l 403 17 l 486 14 l 428 -251 l 315 -232 z "},"̨":{"ha":0,"x_min":333,"x_max":558,"o":"m 504 -10 q 457 -74 472 -46 q 442 -124 442 -101 q 472 -167 442 -154 q 558 -174 501 -179 l 558 -265 q 385 -241 436 -276 q 333 -147 333 -206 q 360 -72 333 -112 q 433 1 386 -31 l 504 -10 z "},"̭":{"ha":0,"x_min":219,"x_max":653,"o":"m 220 -256 l 415 -97 l 457 -97 l 653 -256 l 604 -319 l 436 -199 l 267 -319 l 220 -256 z "},"̵":{"ha":0,"x_min":276,"x_max":699,"o":"m 699 438 l 276 438 l 276 525 l 699 525 l 699 438 z "},"̷":{"ha":0,"x_min":226,"x_max":619,"o":"m 226 406 l 579 603 l 619 535 l 263 340 l 226 406 z "},"̸":{"ha":0,"x_min":121,"x_max":722,"o":"m 121 40 l 383 363 l 619 701 l 722 624 l 460 300 l 224 -37 l 121 40 z "},"Ѐ":{"ha":750,"x_min":129,"x_max":697,"o":"m 299 1172 l 561 1043 l 519 965 l 253 1057 l 299 1172 z "},"Ё":{"ha":750,"x_min":129,"x_max":697,"o":"m 268 979 q 205 999 228 979 q 182 1054 182 1019 q 205 1107 182 1088 q 268 1126 228 1126 q 330 1107 307 1126 q 353 1054 353 1088 q 331 999 353 1019 q 268 979 308 979 m 550 979 q 486 999 510 979 q 463 1054 463 1019 q 486 1107 463 1088 q 550 1126 510 1126 q 611 1107 589 1126 q 633 1054 633 1088 q 611 999 633 1019 q 550 979 589 979 z "},"Ђ":{"ha":972,"x_min":39,"x_max":897,"o":"m 654 -19 q 555 -10 601 -19 q 447 19 508 0 l 465 121 q 549 99 514 106 q 621 93 585 93 q 733 140 693 93 q 774 278 774 188 q 732 422 774 372 q 606 471 690 471 q 485 459 549 471 q 364 426 422 447 l 336 528 q 494 572 419 557 q 632 586 569 586 q 831 511 765 586 q 897 283 897 436 q 835 56 897 132 q 654 -19 772 -19 m 265 903 l 389 903 l 389 0 l 265 0 l 265 903 m 39 903 l 711 903 l 711 792 l 39 792 l 39 903 z "},"Ѓ":{"ha":708,"x_min":122,"x_max":676,"o":"m 122 776 l 122 903 l 246 842 l 246 0 l 122 0 l 122 776 m 136 792 q 136 896 136 844 l 219 903 l 215 822 l 136 792 m 122 903 l 669 903 l 676 790 l 176 801 l 122 903 m 313 965 l 271 1043 l 533 1172 l 579 1057 l 313 965 z "},"Є":{"ha":778,"x_min":69,"x_max":738,"o":"m 488 -19 q 262 38 356 -19 q 119 201 168 94 q 69 457 69 308 q 119 706 69 601 q 263 867 169 811 q 483 922 357 922 q 607 913 553 922 q 736 879 661 903 l 713 772 q 697 776 706 775 q 592 799 644 790 q 490 807 540 807 q 334 765 400 807 q 233 645 268 724 q 197 458 197 567 q 231 265 197 346 q 332 140 265 183 q 493 96 399 96 q 607 107 547 96 q 713 132 667 118 l 738 24 q 608 -10 663 0 q 488 -19 553 -19 m 189 418 l 189 514 l 638 522 l 638 411 l 189 418 z "},"Ѕ":{"ha":722,"x_min":49,"x_max":674,"o":"m 372 -19 q 206 -5 288 -19 q 49 38 125 10 l 67 139 q 223 106 144 117 q 371 94 301 94 q 502 130 454 94 q 550 229 550 165 q 530 302 550 272 q 465 355 510 332 q 344 399 419 378 q 185 460 246 426 q 93 543 124 494 q 63 661 63 592 q 141 850 63 785 q 365 915 219 915 q 503 907 442 915 q 624 879 564 899 q 608 772 617 813 q 495 795 551 789 q 363 801 439 801 q 233 767 279 801 q 188 669 188 733 q 206 601 188 629 q 265 553 225 574 q 371 513 304 532 q 545 444 479 481 q 642 356 611 407 q 674 232 674 304 q 595 46 674 111 q 372 -19 517 -19 z "},"І":{"ha":625,"x_min":57,"x_max":567,"o":"m 251 903 l 375 903 l 375 0 l 251 0 l 251 903 m 57 110 l 313 103 l 567 110 l 564 0 l 61 0 l 57 110 m 61 903 l 564 903 l 567 794 l 313 801 l 57 794 l 61 903 z "},"Ї":{"ha":625,"x_min":57,"x_max":567,"o":"m 251 903 l 375 903 l 375 0 l 251 0 l 251 903 m 57 110 l 313 103 l 567 110 l 564 0 l 61 0 l 57 110 m 61 903 l 564 903 l 567 794 l 313 801 l 57 794 l 61 903 m 172 979 q 109 999 132 979 q 86 1054 86 1019 q 109 1107 86 1088 q 172 1126 132 1126 q 234 1107 211 1126 q 257 1054 257 1088 q 235 999 257 1019 q 172 979 213 979 m 454 979 q 390 999 414 979 q 367 1054 367 1019 q 390 1107 367 1088 q 454 1126 414 1126 q 515 1107 493 1126 q 538 1054 538 1088 q 515 999 538 1019 q 454 979 493 979 z "},"Ј":{"ha":653,"x_min":43,"x_max":554,"o":"m 286 -19 q 164 -3 226 -19 q 43 42 101 14 l 64 143 q 174 110 121 122 q 271 99 226 99 q 397 144 358 99 q 435 296 435 189 l 435 903 l 554 903 l 554 281 q 485 51 554 122 q 286 -19 417 -19 m 129 903 l 467 903 l 467 794 l 122 786 l 129 903 z "},"Љ":{"ha":1306,"x_min":22,"x_max":1275,"o":"m 665 903 l 789 903 l 789 0 l 665 0 l 665 903 m 22 113 q 142 163 106 115 q 194 368 178 211 q 219 903 210 525 l 343 903 q 310 306 336 490 q 224 60 285 121 q 31 -6 164 -1 l 22 113 m 261 903 l 742 903 l 742 790 l 261 790 l 261 903 m 740 113 l 971 113 q 1072 132 1031 113 q 1133 190 1113 151 q 1154 289 1154 229 q 1107 412 1154 369 q 969 454 1060 454 l 757 454 l 757 565 l 979 565 q 1197 492 1118 565 q 1275 286 1275 419 q 1241 131 1275 194 q 1142 33 1207 67 q 985 0 1076 0 l 740 0 l 740 113 z "},"Њ":{"ha":1292,"x_min":131,"x_max":1254,"o":"m 742 110 l 958 110 q 1092 151 1042 110 q 1142 264 1142 193 q 1092 378 1142 335 q 957 421 1042 421 l 758 421 l 758 528 l 967 528 q 1176 458 1099 528 q 1254 265 1254 388 q 1179 72 1254 143 q 972 0 1104 0 l 742 0 l 742 110 m 131 903 l 254 903 l 254 0 l 131 0 l 131 903 m 172 525 l 743 525 l 743 417 l 172 417 l 172 525 m 667 903 l 790 903 l 790 0 l 667 0 l 667 903 z "},"Ћ":{"ha":931,"x_min":11,"x_max":854,"o":"m 244 903 l 368 903 l 368 0 l 244 0 l 244 903 m 11 903 l 683 903 l 683 792 l 11 792 l 11 903 m 665 586 q 780 562 739 586 q 838 488 821 538 q 854 351 854 438 l 854 0 l 732 0 l 732 303 q 717 401 732 365 q 671 454 703 438 q 585 471 639 471 q 458 465 525 471 q 339 449 390 458 l 332 514 q 485 564 385 542 q 665 586 586 586 z "},"Ќ":{"ha":819,"x_min":122,"x_max":774,"o":"m 122 903 l 246 903 l 246 0 l 122 0 l 122 903 m 419 438 l 531 479 l 774 0 l 640 0 l 419 438 m 190 522 l 517 522 l 524 417 l 183 417 l 190 522 m 428 508 q 542 701 490 594 q 621 903 593 808 l 743 903 q 652 656 711 779 q 515 429 593 533 l 411 429 l 428 508 m 299 965 l 257 1043 l 519 1172 l 565 1057 l 299 965 z "},"Ѝ":{"ha":958,"x_min":129,"x_max":828,"o":"m 706 0 l 713 728 l 724 724 l 242 0 l 129 0 l 129 903 l 253 903 l 246 175 l 233 178 l 714 903 l 828 903 l 828 0 l 706 0 m 369 1172 l 632 1043 l 590 965 l 324 1057 l 369 1172 z "},"Ў":{"ha":792,"x_min":68,"x_max":746,"o":"m 167 -10 q 68 1 113 -10 l 75 110 q 158 101 113 101 q 244 122 207 101 q 315 186 282 143 q 389 306 347 229 l 397 279 l 344 279 q 178 562 246 396 q 69 903 110 728 l 190 903 q 278 627 225 763 q 404 394 332 492 l 439 394 q 552 656 500 513 q 626 903 604 799 l 746 903 q 662 613 724 783 q 525 306 600 442 q 411 126 464 194 q 299 24 358 58 q 167 -10 239 -10 z "},"Џ":{"ha":986,"x_min":122,"x_max":865,"o":"m 865 903 l 865 0 l 742 0 l 742 903 l 865 903 m 246 903 l 246 0 l 122 0 l 122 903 l 246 903 m 818 110 l 818 0 l 164 0 l 164 110 l 818 110 m 444 76 l 539 76 l 546 -178 l 436 -178 l 444 76 z "},"А":{"ha":875,"x_min":42,"x_max":833,"o":"m 42 0 q 164 422 86 185 q 335 903 242 658 l 540 903 q 712 419 636 653 q 833 0 788 185 l 704 0 q 638 238 657 175 l 238 238 q 171 0 189 72 l 42 0 m 611 342 q 535 575 572 465 q 458 789 497 685 l 417 789 q 337 565 376 679 q 264 342 297 450 l 611 342 z "},"Б":{"ha":847,"x_min":122,"x_max":765,"o":"m 211 111 l 436 111 q 584 156 531 111 q 638 282 638 201 q 584 397 638 354 q 436 439 531 439 l 207 439 l 207 536 l 435 536 q 611 505 536 536 q 726 416 686 474 q 765 282 765 358 q 680 74 765 149 q 443 0 594 0 l 211 0 l 211 111 m 122 776 l 122 903 l 246 842 l 246 0 l 122 0 l 122 776 m 136 792 q 136 896 136 844 l 219 903 l 215 822 l 136 792 m 122 903 l 669 903 l 676 790 l 176 801 l 122 903 z "},"В":{"ha":847,"x_min":129,"x_max":769,"o":"m 226 99 l 457 99 q 599 142 549 99 q 650 264 650 186 q 599 376 650 340 q 440 414 549 413 l 233 415 l 238 510 l 447 510 q 479 505 463 510 q 510 494 496 500 q 533 485 521 489 q 556 482 544 482 q 711 423 653 482 q 769 269 769 364 q 692 70 769 140 q 469 0 615 0 l 250 0 l 226 99 m 447 510 q 531 532 496 510 q 583 588 565 554 q 600 654 600 621 q 554 765 600 726 q 419 804 508 804 l 193 804 l 253 903 l 431 903 q 641 840 568 903 q 714 664 714 776 q 669 528 714 589 q 551 454 625 467 l 447 510 m 129 732 l 129 782 l 129 782 q 129 903 129 843 l 253 903 l 253 0 l 129 0 l 129 732 z "},"Г":{"ha":708,"x_min":122,"x_max":676,"o":"m 122 776 l 122 903 l 246 842 l 246 0 l 122 0 l 122 776 m 136 792 q 136 896 136 844 l 219 903 l 215 822 l 136 792 m 122 903 l 669 903 l 676 790 l 176 801 l 122 903 z "},"Д":{"ha":944,"x_min":40,"x_max":908,"o":"m 697 903 l 821 903 l 821 0 l 697 0 l 697 903 m 40 113 q 153 167 117 122 q 207 365 189 213 q 228 857 225 518 l 228 903 l 344 903 q 326 341 346 511 q 245 101 306 171 q 40 -7 185 31 l 40 113 m 269 903 l 789 903 l 789 794 l 269 794 l 269 903 m 40 113 l 908 113 l 908 0 l 40 0 l 40 113 m 40 -178 l 40 83 l 135 83 l 150 -178 l 40 -178 m 813 83 l 908 83 l 908 -178 l 797 -178 l 813 83 z "},"Е":{"ha":750,"x_min":129,"x_max":697,"o":"m 129 772 l 129 903 l 253 903 l 253 0 l 129 0 l 129 772 m 229 104 l 697 113 l 690 0 l 164 0 l 229 104 m 236 421 l 236 515 l 608 525 l 608 414 l 236 421 m 136 903 l 232 903 l 232 808 l 136 785 l 136 903 m 229 799 l 235 903 l 676 903 l 683 792 l 229 799 z "},"Ж":{"ha":1097,"x_min":78,"x_max":1021,"o":"m 489 901 l 610 901 l 610 0 l 489 0 l 489 901 m 740 438 l 850 481 l 1021 0 l 890 0 l 740 438 m 549 522 l 818 522 l 822 417 l 544 417 l 549 522 m 744 508 q 819 702 788 597 q 865 901 851 807 l 989 901 q 933 663 972 785 q 838 429 894 542 l 757 429 l 744 508 m 78 0 l 247 481 l 358 438 l 208 0 l 78 0 m 268 417 l 272 522 l 542 522 l 546 417 l 268 417 m 260 429 q 166 660 207 533 q 108 901 125 786 l 233 901 q 281 700 249 804 q 356 508 313 596 l 333 429 l 260 429 z "},"З":{"ha":750,"x_min":26,"x_max":681,"o":"m 335 -19 q 176 -6 250 -19 q 26 39 103 8 l 47 140 q 174 106 111 118 q 314 94 238 94 q 447 115 392 94 q 529 174 501 136 q 557 261 557 211 q 499 381 557 336 q 344 429 442 425 l 196 419 l 196 521 l 344 513 q 447 535 406 515 q 508 588 488 556 q 528 660 528 619 q 476 768 528 728 q 319 808 425 808 q 201 797 263 808 q 83 761 139 785 l 61 860 q 343 922 192 922 q 573 857 494 922 q 651 674 651 792 q 601 526 651 589 q 450 444 550 464 l 447 501 q 620 414 560 479 q 681 254 681 349 q 640 110 681 172 q 521 15 599 49 q 335 -19 443 -19 z "},"И":{"ha":958,"x_min":129,"x_max":828,"o":"m 706 0 l 713 728 l 724 724 l 242 0 l 129 0 l 129 903 l 253 903 l 246 175 l 233 178 l 714 903 l 828 903 l 828 0 l 706 0 z "},"Й":{"ha":958,"x_min":129,"x_max":828,"o":"m 706 0 l 713 728 l 724 724 l 242 0 l 129 0 l 129 903 l 253 903 l 246 175 l 233 178 l 714 903 l 828 903 l 828 0 l 706 0 z "},"К":{"ha":819,"x_min":122,"x_max":774,"o":"m 122 903 l 246 903 l 246 0 l 122 0 l 122 903 m 419 438 l 531 479 l 774 0 l 640 0 l 419 438 m 190 522 l 517 522 l 524 417 l 183 417 l 190 522 m 428 508 q 542 701 490 594 q 621 903 593 808 l 743 903 q 652 656 711 779 q 515 429 593 533 l 411 429 l 428 508 z "},"Л":{"ha":1000,"x_min":22,"x_max":879,"o":"m 756 903 l 879 903 l 879 0 l 756 0 l 756 903 m 22 113 q 29 113 26 113 q 149 166 113 117 q 201 372 185 215 q 226 903 217 529 l 350 903 q 317 305 343 489 q 228 60 290 121 q 31 -6 167 -1 l 22 113 m 268 903 l 832 903 l 832 794 l 268 794 l 268 903 z "},"М":{"ha":1056,"x_min":128,"x_max":928,"o":"m 492 254 l 229 708 l 238 724 l 244 0 l 128 0 l 128 903 l 235 903 l 528 401 l 819 903 l 928 903 l 928 0 l 811 0 l 817 724 l 825 708 l 563 254 l 492 254 z "},"Н":{"ha":958,"x_min":131,"x_max":829,"o":"m 706 903 l 829 903 l 829 0 l 706 0 l 706 903 m 131 903 l 254 903 l 254 0 l 131 0 l 131 903 m 172 511 l 783 511 l 783 403 l 172 403 l 172 511 z "},"О":{"ha":944,"x_min":71,"x_max":874,"o":"m 472 -19 q 260 38 351 -19 q 120 202 169 96 q 71 451 71 308 q 120 701 71 594 q 260 865 169 807 q 472 922 351 922 q 684 865 593 922 q 824 701 775 807 q 874 451 874 594 q 824 202 874 308 q 684 38 775 96 q 472 -19 593 -19 m 471 97 q 617 141 554 97 q 713 265 679 185 q 747 451 747 344 q 713 639 747 558 q 617 763 679 719 q 471 807 554 807 q 325 764 388 807 q 229 640 263 721 q 196 451 196 560 q 229 264 196 344 q 325 140 263 183 q 471 97 388 97 z "},"П":{"ha":944,"x_min":122,"x_max":824,"o":"m 700 903 l 824 903 l 824 0 l 700 0 l 700 903 m 122 903 l 246 903 l 246 0 l 122 0 l 122 903 m 164 903 l 776 903 l 776 794 l 164 794 l 164 903 z "},"Р":{"ha":806,"x_min":129,"x_max":744,"o":"m 217 403 l 428 417 q 574 469 525 422 q 622 603 622 517 q 571 743 622 694 q 428 792 519 792 l 232 792 l 253 903 l 428 903 q 662 824 579 903 q 744 603 744 746 q 663 391 744 464 q 435 310 582 318 l 217 297 l 217 403 m 129 732 l 129 782 l 129 782 q 129 903 129 843 l 253 903 l 253 0 l 129 0 l 129 732 z "},"С":{"ha":778,"x_min":69,"x_max":738,"o":"m 488 -19 q 262 38 356 -19 q 119 201 168 94 q 69 457 69 308 q 119 706 69 601 q 263 867 169 811 q 483 922 357 922 q 607 913 553 922 q 736 879 661 903 l 713 772 q 625 793 667 785 l 625 793 q 553 803 585 800 q 490 807 521 807 q 334 765 400 807 q 233 645 268 724 q 197 458 197 567 q 231 265 197 346 q 332 140 265 183 q 493 96 399 96 q 607 107 547 96 q 713 132 667 118 l 738 24 q 608 -10 663 0 q 488 -19 553 -19 z "},"Т":{"ha":708,"x_min":21,"x_max":689,"o":"m 292 792 l 21 792 l 21 903 l 689 903 l 689 792 l 417 792 l 417 0 l 292 0 l 292 792 z "},"У":{"ha":792,"x_min":68,"x_max":746,"o":"m 167 -10 q 68 1 113 -10 l 75 110 q 158 101 113 101 q 244 122 207 101 q 315 186 282 143 q 389 306 347 229 l 397 279 l 344 279 q 178 562 246 396 q 69 903 110 728 l 190 903 q 278 627 225 763 q 404 394 332 492 l 439 394 q 552 656 500 513 q 626 903 604 799 l 746 903 q 662 613 724 783 q 525 306 600 442 q 411 126 464 194 q 299 24 358 58 q 167 -10 239 -10 z "},"Ф":{"ha":958,"x_min":65,"x_max":894,"o":"m 485 188 q 697 258 625 193 q 768 444 768 322 q 697 635 768 569 q 485 707 625 701 l 485 815 q 791 720 688 814 q 894 444 894 626 q 791 174 894 265 q 485 81 688 82 l 485 188 m 474 81 q 168 174 271 82 q 65 444 65 265 q 169 720 65 626 q 474 815 272 814 l 474 707 q 263 635 333 701 q 192 444 192 569 q 263 258 192 322 q 474 188 335 193 l 474 81 m 419 908 l 539 908 l 539 -12 l 419 -12 l 419 908 z "},"Х":{"ha":917,"x_min":78,"x_max":840,"o":"m 78 0 q 208 237 133 115 q 363 469 283 358 q 213 694 281 583 q 100 903 146 804 l 238 903 q 335 715 275 817 q 461 521 394 613 l 475 501 l 444 501 q 578 704 518 601 q 681 903 638 807 l 818 903 q 715 710 778 814 q 574 496 651 607 l 556 469 q 713 233 639 354 q 840 0 788 111 l 703 0 q 579 227 647 115 q 440 432 511 339 l 478 432 q 335 220 406 333 q 215 0 265 107 l 78 0 z "},"Ц":{"ha":944,"x_min":104,"x_max":865,"o":"m 669 903 l 793 903 l 793 0 l 669 0 l 669 903 m 146 113 l 746 113 l 746 0 l 146 0 l 146 113 m 104 903 l 228 903 l 228 0 l 104 0 l 104 903 m 757 81 l 865 81 l 865 -178 l 742 -178 l 757 81 m 711 113 l 865 113 l 865 0 l 711 0 l 711 113 z "},"Ч":{"ha":819,"x_min":74,"x_max":690,"o":"m 290 344 q 124 399 174 344 q 74 579 74 454 l 74 903 l 196 903 l 196 629 q 210 530 196 567 q 254 476 224 493 q 336 460 285 460 q 469 474 401 460 q 596 511 538 489 l 603 407 q 447 363 535 381 q 290 344 360 344 m 567 903 l 690 903 l 690 0 l 567 0 l 567 903 z "},"Ш":{"ha":1181,"x_min":96,"x_max":1086,"o":"m 964 903 l 1086 903 l 1086 0 l 964 0 l 964 903 m 138 113 l 1021 113 l 1021 0 l 138 0 l 138 113 m 96 903 l 218 903 l 218 0 l 96 0 l 96 903 m 531 903 l 653 903 l 653 0 l 531 0 l 531 903 z "},"Щ":{"ha":1194,"x_min":96,"x_max":1144,"o":"m 96 903 l 219 903 l 219 0 l 96 0 l 96 903 m 522 903 l 646 903 l 646 0 l 522 0 l 522 903 m 949 903 l 1072 903 l 1072 0 l 949 0 l 949 903 m 138 113 l 1007 113 l 1007 0 l 138 0 l 138 113 m 1036 81 l 1144 81 l 1144 -178 l 1021 -178 l 1036 81 m 990 113 l 1144 113 l 1144 0 l 990 0 l 990 113 z "},"Ъ":{"ha":958,"x_min":36,"x_max":928,"o":"m 339 110 l 604 110 q 756 153 703 110 q 808 282 808 197 q 756 413 808 368 q 603 457 704 457 l 356 457 l 356 565 l 613 565 q 847 493 765 565 q 928 286 928 421 q 849 74 928 147 q 618 0 769 0 l 339 0 l 339 110 m 264 757 l 264 903 l 388 903 l 388 0 l 264 0 l 264 757 m 36 903 l 335 903 l 335 808 l 36 785 l 36 903 z "},"Ы":{"ha":1181,"x_min":122,"x_max":1046,"o":"m 197 110 l 442 110 q 593 153 540 110 q 646 282 646 197 q 594 413 646 368 q 440 457 542 457 l 214 457 l 214 565 l 450 565 q 684 493 603 565 q 765 286 765 421 q 686 74 765 147 q 456 0 607 0 l 197 0 l 197 110 m 122 903 l 246 903 l 246 0 l 122 0 l 122 903 m 922 903 l 1046 903 l 1046 0 l 922 0 l 922 903 z "},"Ь":{"ha":847,"x_min":131,"x_max":815,"o":"m 206 110 l 492 110 q 644 155 592 110 q 696 289 696 200 q 643 413 696 369 q 490 457 590 457 l 222 457 l 222 565 l 500 565 q 672 533 601 565 q 779 438 743 500 q 815 286 815 375 q 736 74 815 147 q 506 0 657 0 l 206 0 l 206 110 m 131 903 l 254 903 l 254 0 l 131 0 l 131 903 z "},"Э":{"ha":778,"x_min":40,"x_max":708,"o":"m 290 -19 q 170 -10 225 -19 q 40 24 115 0 l 65 132 q 171 107 111 118 q 285 96 231 96 q 446 140 379 96 q 547 265 513 183 q 581 458 581 346 q 545 645 581 567 q 444 765 510 724 q 288 807 378 807 q 185 799 238 807 q 81 776 133 790 q 65 772 74 775 l 42 879 q 171 913 117 903 q 294 922 225 922 q 515 867 421 922 q 658 706 608 811 q 708 457 708 601 q 659 201 708 308 q 516 38 610 94 q 290 -19 422 -19 m 140 522 l 589 514 l 589 418 l 140 411 l 140 522 z "},"Ю":{"ha":1361,"x_min":126,"x_max":1324,"o":"m 126 903 l 250 903 l 250 0 l 126 0 l 126 903 m 890 -19 q 660 38 758 -19 q 509 201 563 94 q 456 451 456 308 q 509 701 456 594 q 660 865 563 808 q 890 922 758 922 q 1119 865 1021 922 q 1270 701 1217 808 q 1324 451 1324 594 q 1270 201 1324 308 q 1119 38 1217 94 q 890 -19 1021 -19 m 889 99 q 1051 142 982 99 q 1158 265 1121 185 q 1196 451 1196 344 q 1158 639 1196 558 q 1050 763 1119 719 q 889 806 981 806 q 728 763 797 806 q 620 639 658 719 q 582 451 582 558 q 620 265 582 344 q 728 142 658 185 q 889 99 797 99 m 164 511 l 531 511 l 531 403 l 164 403 l 164 511 z "},"Я":{"ha":842,"x_min":89,"x_max":721,"o":"m 408 331 q 238 374 310 338 q 127 473 165 411 q 89 615 89 535 q 174 826 89 749 q 408 903 260 903 l 597 903 l 632 792 l 408 792 q 267 744 318 792 q 215 615 215 697 q 267 489 215 538 q 410 435 319 440 l 635 421 l 635 317 l 408 331 m 94 0 q 192 201 140 103 q 296 379 243 300 l 397 354 q 308 192 351 285 q 226 0 265 100 l 94 0 m 597 0 l 597 903 l 721 903 q 721 782 721 843 l 721 782 l 721 731 l 721 0 l 597 0 z "},"а":{"ha":736,"x_min":82,"x_max":640,"o":"m 531 78 q 413 7 476 33 q 289 -19 349 -19 q 138 35 193 -19 q 82 189 82 90 q 94 287 82 238 q 129 383 106 336 q 307 386 217 388 q 524 379 397 385 l 524 408 l 524 413 q 511 499 522 463 q 471 555 500 535 q 393 575 442 575 q 285 561 349 575 q 147 521 222 547 q 119 622 133 572 q 274 666 200 651 q 407 681 347 681 q 533 657 482 681 q 613 580 585 633 q 640 439 640 526 l 640 99 l 640 99 q 640 0 640 50 q 594 -3 619 -3 q 543 0 568 -3 l 531 78 m 197 196 q 225 115 197 144 q 310 85 253 85 q 414 110 361 85 q 524 179 467 136 l 524 282 q 213 289 339 293 q 201 244 204 265 q 197 196 197 222 z "},"б":{"ha":806,"x_min":78,"x_max":742,"o":"m 408 -19 q 160 85 243 -19 q 78 394 78 189 q 100 664 78 563 q 185 829 122 765 q 371 924 249 893 q 458 943 413 935 q 547 958 504 951 q 636 969 592 964 l 646 861 q 592 854 618 858 q 539 846 565 850 q 466 833 501 840 q 399 815 431 825 q 272 756 314 793 q 213 638 231 719 q 194 394 194 557 q 219 219 194 288 q 292 117 243 150 q 413 83 340 83 q 567 145 511 83 q 622 311 622 207 q 578 473 622 419 q 435 526 533 526 q 308 510 375 526 q 175 465 240 493 l 175 563 q 317 616 239 594 q 481 638 394 638 q 674 557 607 638 q 742 324 742 476 q 656 74 742 167 q 408 -19 571 -19 z "},"в":{"ha":764,"x_min":125,"x_max":706,"o":"m 200 92 l 444 92 q 550 121 514 92 q 586 201 586 150 q 548 277 586 251 q 438 303 510 303 l 219 303 l 217 388 l 443 388 q 636 339 567 388 q 706 197 706 290 q 641 53 706 107 q 446 0 576 0 l 200 0 l 200 92 m 125 664 l 238 664 l 238 0 l 125 0 l 125 664 m 481 375 q 527 425 510 399 q 544 485 544 451 q 510 551 544 529 q 415 572 476 572 l 165 572 l 165 664 l 432 664 q 597 624 540 664 q 654 511 654 585 q 616 404 654 450 q 525 331 578 358 l 468 367 l 481 375 z "},"г":{"ha":625,"x_min":125,"x_max":596,"o":"m 125 664 l 596 664 l 596 546 l 244 558 l 244 0 l 125 0 l 125 664 z "},"д":{"ha":833,"x_min":56,"x_max":778,"o":"m 56 111 q 149 146 121 113 q 189 291 178 179 q 203 664 200 403 l 311 664 q 297 248 313 374 q 231 73 282 122 q 64 22 181 24 l 56 111 m 56 83 l 150 83 l 165 -178 l 56 -178 l 56 83 m 56 111 l 778 111 l 778 0 l 56 0 l 56 111 m 682 83 l 778 83 l 778 -178 l 667 -178 l 682 83 m 582 664 l 701 664 l 701 0 l 582 0 l 582 664 m 263 664 l 654 664 l 654 554 l 263 554 l 263 664 z "},"е":{"ha":729,"x_min":64,"x_max":667,"o":"m 393 -19 q 217 23 292 -19 q 103 144 143 65 q 64 332 64 224 q 105 516 64 436 q 217 640 146 596 q 376 683 289 683 q 532 642 467 683 q 632 525 597 600 q 667 353 667 450 q 663 292 667 319 q 422 292 500 292 q 186 292 343 292 q 251 146 196 201 q 401 90 307 90 q 514 103 456 90 q 618 139 572 117 q 639 36 633 61 q 525 -4 588 11 q 393 -19 463 -19 m 186 392 q 554 392 371 392 q 526 492 549 451 q 466 553 504 532 q 372 574 428 574 q 287 551 326 574 q 221 486 247 528 q 186 392 194 444 z "},"ж":{"ha":903,"x_min":18,"x_max":883,"o":"m 190 365 l 286 294 l 156 0 l 18 0 l 190 365 m 228 289 q 117 480 165 382 q 42 664 68 578 l 178 664 q 231 521 206 585 q 289 397 257 457 l 453 397 l 453 289 l 228 289 m 392 664 l 511 664 l 511 0 l 392 0 l 392 664 m 449 397 l 613 397 q 670 521 644 457 q 724 664 696 585 l 858 664 q 784 480 832 578 q 674 289 736 382 l 449 289 l 449 397 m 614 294 l 710 365 l 883 0 l 746 0 l 614 294 z "},"з":{"ha":597,"x_min":44,"x_max":568,"o":"m 288 -19 q 160 -8 221 -19 q 44 25 99 3 l 61 119 q 263 88 154 88 q 406 117 358 88 q 454 200 454 147 q 419 281 454 253 q 306 311 383 310 l 160 306 l 160 400 l 306 393 q 400 422 369 396 q 431 488 431 449 q 396 553 431 528 q 279 579 361 579 q 181 571 229 579 q 86 544 132 563 l 69 638 q 185 673 129 663 q 304 683 240 683 q 485 636 424 683 q 546 510 546 589 q 515 403 546 451 q 424 332 485 356 l 422 383 q 534 312 500 358 q 568 196 568 265 q 496 38 568 96 q 288 -19 424 -19 z "},"и":{"ha":875,"x_min":140,"x_max":736,"o":"m 619 0 l 619 507 l 629 503 l 246 0 l 140 0 l 140 664 l 257 664 l 257 157 l 244 161 l 629 664 l 736 664 l 736 0 l 619 0 z "},"й":{"ha":875,"x_min":140,"x_max":736,"o":"m 619 0 l 619 507 l 629 503 l 246 0 l 140 0 l 140 664 l 257 664 l 257 157 l 244 161 l 629 664 l 736 664 l 736 0 l 619 0 z "},"к":{"ha":736,"x_min":119,"x_max":713,"o":"m 174 397 l 385 397 q 479 526 440 456 q 532 664 518 596 l 654 664 q 583 473 639 571 q 440 289 526 375 l 174 289 l 174 397 m 382 294 l 478 361 l 713 0 l 575 0 l 382 294 m 119 664 l 239 664 l 239 0 l 119 0 l 119 664 z "},"л":{"ha":847,"x_min":46,"x_max":738,"o":"m 618 664 l 738 664 l 738 0 l 618 0 l 618 664 m 236 664 l 690 664 l 690 554 l 236 554 l 236 664 m 46 103 q 151 144 121 110 q 191 288 181 179 q 204 664 201 396 l 319 664 q 302 245 321 381 q 228 53 283 110 q 53 -7 172 -3 l 46 103 z "},"м":{"ha":944,"x_min":132,"x_max":813,"o":"m 450 144 l 232 482 l 240 494 l 240 0 l 132 0 l 132 664 l 235 664 l 472 296 l 710 664 l 813 664 l 813 0 l 704 0 l 704 494 l 713 482 l 496 144 l 450 144 z "},"н":{"ha":819,"x_min":125,"x_max":696,"o":"m 576 664 l 696 664 l 696 0 l 576 0 l 576 664 m 125 664 l 244 664 l 244 0 l 125 0 l 125 664 m 167 401 l 649 401 l 649 292 l 167 292 l 167 401 z "},"о":{"ha":764,"x_min":61,"x_max":701,"o":"m 381 -19 q 210 23 282 -19 q 99 144 138 65 q 61 332 61 224 q 99 519 61 440 q 210 641 138 599 q 381 683 282 683 q 552 641 479 683 q 663 519 625 599 q 701 332 701 440 q 663 144 701 224 q 552 23 625 65 q 381 -19 479 -19 m 379 85 q 488 113 443 85 q 555 196 532 140 q 578 332 578 251 q 555 469 578 414 q 488 551 532 524 q 379 579 443 579 q 274 551 317 579 q 208 469 231 524 q 185 332 185 414 q 208 196 185 251 q 274 113 231 140 q 379 85 317 85 z "},"п":{"ha":847,"x_min":139,"x_max":710,"o":"m 590 664 l 710 664 l 710 0 l 590 0 l 590 664 m 139 664 l 258 664 l 258 0 l 139 0 l 139 664 m 181 664 l 663 664 l 663 554 l 181 554 l 181 664 z "},"р":{"ha":806,"x_min":122,"x_max":743,"o":"m 474 683 q 615 643 554 683 q 709 527 675 603 q 743 346 743 451 q 700 151 743 233 q 581 25 657 68 q 408 -18 504 -18 q 292 0 356 -18 q 181 46 229 18 l 185 146 q 309 99 253 115 q 407 83 365 83 q 515 114 467 83 q 592 204 564 144 q 619 347 619 264 q 597 469 619 418 q 533 546 574 519 q 439 572 493 572 q 331 547 396 572 q 218 490 267 521 l 199 579 q 330 653 260 624 q 474 683 400 683 m 235 564 l 242 517 l 242 -264 l 122 -264 l 122 664 q 172 665 150 665 q 217 664 193 665 l 224 664 l 235 564 m 236 -168 q 236 -264 236 -217 l 140 -264 q 140 -168 140 -217 l 186 -168 l 236 -168 z "},"с":{"ha":653,"x_min":61,"x_max":613,"o":"m 388 -19 q 217 23 292 -19 q 102 146 143 65 q 61 335 61 226 q 103 521 61 442 q 221 642 144 600 q 399 683 297 683 q 498 671 444 683 q 608 631 551 658 q 592 528 603 578 q 526 550 546 544 l 526 550 q 459 567 490 561 q 403 574 428 574 q 288 545 338 574 q 210 463 238 517 q 183 336 183 410 q 211 203 183 258 q 289 119 239 147 q 407 90 339 90 q 505 106 447 90 q 596 136 563 121 q 608 60 603 108 q 613 35 611 47 q 497 -7 553 6 q 388 -19 440 -19 z "},"т":{"ha":653,"x_min":32,"x_max":621,"o":"m 265 664 l 389 664 l 389 0 l 265 0 l 265 664 m 32 664 l 621 664 l 621 553 l 32 553 l 32 664 z "},"у":{"ha":694,"x_min":33,"x_max":660,"o":"m 272 38 q 129 392 190 233 q 33 664 68 551 q 158 664 96 664 q 247 408 201 536 q 340 150 293 279 l 351 150 q 447 413 399 276 q 533 664 494 549 q 660 664 597 664 q 560 383 624 550 q 421 38 496 215 l 272 38 m 146 -232 q 188 -171 167 -203 q 228 -110 210 -139 q 325 92 285 -15 l 421 38 q 325 -158 371 -78 q 244 -285 281 -237 l 146 -232 z "},"ф":{"ha":903,"x_min":76,"x_max":828,"o":"m 399 972 l 504 972 l 504 -264 l 399 -264 l 399 972 m 422 583 q 294 556 347 583 q 214 473 242 529 q 186 332 186 417 q 214 192 186 247 q 294 110 242 136 q 422 83 347 83 l 422 -19 q 240 22 318 -19 q 119 143 163 64 q 76 332 76 222 q 119 521 76 442 q 240 642 163 600 q 422 683 318 683 l 422 583 m 481 683 q 663 642 585 683 q 785 521 742 600 q 828 332 828 442 q 785 143 828 222 q 663 22 742 64 q 481 -19 585 -19 l 482 83 q 610 110 557 83 q 690 192 663 136 q 718 332 718 247 q 690 473 718 417 q 610 556 663 529 q 482 583 557 583 l 481 683 z "},"х":{"ha":736,"x_min":51,"x_max":685,"o":"m 51 0 q 121 100 86 50 q 286 333 247 281 q 215 436 251 385 q 64 664 157 521 l 204 664 q 276 542 233 611 q 374 389 319 472 l 406 340 l 331 340 q 339 351 335 346 q 443 513 390 429 q 533 664 496 596 l 671 664 q 565 501 621 586 q 450 333 508 417 q 570 167 511 251 q 685 0 629 83 l 544 0 q 483 97 518 46 q 411 203 449 149 q 332 314 392 232 l 406 314 q 344 229 375 272 q 190 0 265 117 l 51 0 z "},"ц":{"ha":814,"x_min":125,"x_max":758,"o":"m 563 664 l 682 664 l 682 0 l 563 0 l 563 664 m 167 111 l 758 111 l 758 0 l 167 0 l 167 111 m 125 664 l 244 664 l 244 0 l 125 0 l 125 664 m 663 83 l 758 83 l 758 -178 l 647 -178 l 663 83 z "},"ч":{"ha":722,"x_min":64,"x_max":611,"o":"m 274 224 q 156 247 203 224 q 87 318 110 271 q 64 438 64 365 l 64 664 l 183 664 l 183 508 q 192 412 183 446 q 224 362 200 378 q 296 346 249 346 q 490 369 360 346 q 519 375 506 372 l 528 271 q 395 238 463 251 q 274 224 328 224 m 492 664 l 611 664 l 611 0 l 492 0 l 492 664 z "},"ш":{"ha":1069,"x_min":135,"x_max":935,"o":"m 135 664 l 254 664 l 254 0 l 135 0 l 135 664 m 475 664 l 594 664 l 594 0 l 475 0 l 475 664 m 815 664 l 935 664 l 935 0 l 815 0 l 815 664 m 169 111 l 874 111 l 874 0 l 169 0 l 169 111 z "},"щ":{"ha":1049,"x_min":125,"x_max":993,"o":"m 125 664 l 244 664 l 244 0 l 125 0 l 125 664 m 461 664 l 581 664 l 581 0 l 461 0 l 461 664 m 797 664 l 917 664 l 917 0 l 797 0 l 797 664 m 160 111 l 993 111 l 993 0 l 160 0 l 160 111 m 897 83 l 993 83 l 993 -178 l 882 -178 l 897 83 z "},"ъ":{"ha":875,"x_min":36,"x_max":810,"o":"m 318 99 l 533 99 q 650 133 610 99 q 690 233 690 167 q 648 332 690 299 q 526 365 606 365 l 338 365 l 335 464 l 542 464 q 742 406 674 464 q 810 231 810 347 q 743 58 810 115 q 549 0 676 0 l 318 0 l 318 99 m 243 561 l 36 554 l 36 664 l 363 664 l 363 0 l 243 0 l 243 561 z "},"ы":{"ha":1111,"x_min":139,"x_max":985,"o":"m 214 99 l 436 99 q 547 132 507 99 q 586 229 586 165 q 545 326 586 294 q 429 358 504 358 l 233 358 l 231 457 l 438 457 q 636 400 567 457 q 706 229 706 343 q 641 60 706 121 q 444 0 576 0 l 214 0 l 214 99 m 139 664 l 258 664 l 258 0 l 139 0 l 139 664 m 865 664 l 985 664 l 985 0 l 865 0 l 865 664 z "},"ь":{"ha":792,"x_min":139,"x_max":726,"o":"m 214 99 l 457 99 q 567 132 528 99 q 607 229 607 165 q 566 326 607 294 q 450 358 525 358 l 233 358 l 231 457 l 458 457 q 657 400 588 457 q 726 229 726 343 q 662 60 726 121 q 465 0 597 0 l 214 0 l 214 99 m 139 664 l 258 664 l 258 0 l 139 0 l 139 664 z "},"э":{"ha":729,"x_min":71,"x_max":667,"o":"m 315 -19 q 183 -6 247 -19 q 71 33 119 8 l 88 118 q 196 95 139 104 q 296 86 253 86 q 481 151 417 86 q 544 336 544 217 q 516 466 544 411 q 433 549 488 521 q 303 578 379 578 q 193 568 257 578 q 94 546 129 558 l 78 631 q 194 670 129 657 q 321 683 260 683 q 506 642 428 683 q 625 522 583 600 q 667 335 667 443 q 573 75 667 169 q 315 -19 479 -19 m 221 390 l 588 382 l 588 300 l 221 293 l 221 390 z "}}}
